<svg xmlns="http://www.w3.org/2000/svg" xmlns:xlink="http://www.w3.org/1999/xlink" width="1080" zoomAndPan="magnify" viewBox="0 0 810 809.999993" height="1080" preserveAspectRatio="xMidYMid meet" version="1.0"><defs><clipPath id="f0d6dd9e4c"><path d="M 81 420.808594 L 249 420.808594 L 249 586.640625 L 81 586.640625 Z M 81 420.808594 " clip-rule="nonzero"/></clipPath><clipPath id="edc6340175"><path d="M 304 198.347656 L 506 198.347656 L 506 453.90625 L 304 453.90625 Z M 304 198.347656 " clip-rule="nonzero"/></clipPath><clipPath id="8d261ce371"><path d="M 103 275 L 214 275 L 214 385.40625 L 103 385.40625 Z M 103 275 " clip-rule="nonzero"/></clipPath><clipPath id="e2c93fe8e6"><path d="M 154 266.839844 L 222.339844 266.839844 L 222.339844 335 L 154 335 Z M 154 266.839844 " clip-rule="nonzero"/></clipPath><clipPath id="d39d05edff"><path d="M 519 266.839844 L 684 266.839844 L 684 439.882812 L 519 439.882812 Z M 519 266.839844 " clip-rule="nonzero"/></clipPath></defs><g clip-path="url(#f0d6dd9e4c)"><path fill="#ff0000" d="M 81.210938 503.832031 C 81.210938 505.191406 81.242188 506.550781 81.308594 507.90625 C 81.378906 509.261719 81.476562 510.617188 81.613281 511.96875 C 81.746094 513.320312 81.914062 514.671875 82.113281 516.015625 C 82.3125 517.359375 82.546875 518.695312 82.8125 520.027344 C 83.082031 521.363281 83.378906 522.6875 83.710938 524.003906 C 84.042969 525.324219 84.410156 526.632812 84.804688 527.933594 C 85.203125 529.234375 85.628906 530.523438 86.089844 531.800781 C 86.550781 533.082031 87.042969 534.347656 87.566406 535.605469 C 88.089844 536.859375 88.644531 538.101562 89.226562 539.328125 C 89.8125 540.558594 90.425781 541.769531 91.070312 542.96875 C 91.714844 544.167969 92.386719 545.347656 93.089844 546.515625 C 93.792969 547.679688 94.523438 548.828125 95.285156 549.957031 C 96.042969 551.085938 96.832031 552.199219 97.644531 553.289062 C 98.457031 554.378906 99.300781 555.449219 100.167969 556.5 C 101.035156 557.550781 101.925781 558.582031 102.84375 559.585938 C 103.761719 560.59375 104.703125 561.578125 105.671875 562.539062 C 106.636719 563.5 107.625 564.433594 108.640625 565.347656 C 109.652344 566.261719 110.6875 567.148438 111.742188 568.007812 C 112.800781 568.871094 113.875 569.707031 114.972656 570.515625 C 116.074219 571.324219 117.191406 572.109375 118.324219 572.863281 C 119.460938 573.617188 120.617188 574.34375 121.789062 575.042969 C 122.960938 575.742188 124.148438 576.410156 125.355469 577.050781 C 126.5625 577.691406 127.78125 578.304688 129.015625 578.882812 C 130.253906 579.464844 131.5 580.015625 132.765625 580.535156 C 134.027344 581.054688 135.300781 581.542969 136.589844 582 C 137.875 582.460938 139.171875 582.886719 140.480469 583.28125 C 141.789062 583.675781 143.105469 584.035156 144.433594 584.367188 C 145.757812 584.695312 147.089844 584.996094 148.429688 585.257812 C 149.773438 585.523438 151.117188 585.757812 152.46875 585.957031 C 153.820312 586.15625 155.179688 586.320312 156.539062 586.457031 C 157.898438 586.589844 159.261719 586.6875 160.625 586.753906 C 161.992188 586.820312 163.359375 586.855469 164.722656 586.855469 C 166.089844 586.855469 167.457031 586.820312 168.824219 586.753906 C 170.1875 586.6875 171.550781 586.589844 172.910156 586.457031 C 174.269531 586.320312 175.625 586.15625 176.980469 585.957031 C 178.332031 585.757812 179.675781 585.523438 181.015625 585.257812 C 182.359375 584.996094 183.691406 584.695312 185.015625 584.367188 C 186.34375 584.035156 187.660156 583.675781 188.96875 583.28125 C 190.277344 582.886719 191.574219 582.460938 192.859375 582 C 194.148438 581.542969 195.421875 581.054688 196.683594 580.535156 C 197.945312 580.015625 199.195312 579.464844 200.433594 578.882812 C 201.667969 578.304688 202.886719 577.691406 204.09375 577.050781 C 205.296875 576.410156 206.488281 575.742188 207.660156 575.042969 C 208.832031 574.34375 209.988281 573.617188 211.121094 572.863281 C 212.257812 572.109375 213.375 571.324219 214.472656 570.515625 C 215.570312 569.707031 216.648438 568.871094 217.707031 568.007812 C 218.761719 567.148438 219.796875 566.261719 220.808594 565.347656 C 221.824219 564.433594 222.8125 563.5 223.777344 562.539062 C 224.746094 561.578125 225.6875 560.59375 226.605469 559.585938 C 227.523438 558.582031 228.414062 557.550781 229.28125 556.5 C 230.148438 555.449219 230.992188 554.378906 231.804688 553.289062 C 232.617188 552.199219 233.40625 551.085938 234.164062 549.957031 C 234.925781 548.828125 235.65625 547.679688 236.359375 546.515625 C 237.058594 545.347656 237.734375 544.167969 238.378906 542.96875 C 239.023438 541.769531 239.636719 540.558594 240.222656 539.328125 C 240.804688 538.101562 241.359375 536.859375 241.882812 535.605469 C 242.40625 534.347656 242.898438 533.082031 243.359375 531.800781 C 243.816406 530.523438 244.246094 529.234375 244.644531 527.933594 C 245.039062 526.632812 245.40625 525.324219 245.738281 524.003906 C 246.070312 522.6875 246.367188 521.363281 246.636719 520.027344 C 246.902344 518.695312 247.136719 517.359375 247.335938 516.015625 C 247.535156 514.671875 247.703125 513.320312 247.835938 511.96875 C 247.972656 510.617188 248.070312 509.261719 248.140625 507.90625 C 248.207031 506.550781 248.238281 505.191406 248.238281 503.832031 C 248.238281 502.472656 248.207031 501.117188 248.140625 499.757812 C 248.070312 498.402344 247.972656 497.046875 247.835938 495.695312 C 247.703125 494.34375 247.535156 492.996094 247.335938 491.648438 C 247.136719 490.304688 246.902344 488.96875 246.636719 487.636719 C 246.367188 486.300781 246.070312 484.976562 245.738281 483.660156 C 245.40625 482.339844 245.039062 481.03125 244.644531 479.730469 C 244.246094 478.433594 243.816406 477.140625 243.359375 475.863281 C 242.898438 474.582031 242.40625 473.316406 241.882812 472.0625 C 241.359375 470.804688 240.804688 469.5625 240.222656 468.335938 C 239.636719 467.105469 239.023438 465.894531 238.378906 464.695312 C 237.734375 463.496094 237.058594 462.316406 236.359375 461.148438 C 235.65625 459.984375 234.925781 458.835938 234.164062 457.707031 C 233.40625 456.578125 232.617188 455.46875 231.804688 454.375 C 230.992188 453.285156 230.148438 452.214844 229.28125 451.164062 C 228.414062 450.113281 227.523438 449.085938 226.605469 448.078125 C 225.6875 447.070312 224.746094 446.085938 223.777344 445.125 C 222.8125 444.164062 221.824219 443.230469 220.808594 442.316406 C 219.796875 441.402344 218.761719 440.515625 217.707031 439.65625 C 216.648438 438.792969 215.570312 437.957031 214.472656 437.148438 C 213.375 436.339844 212.257812 435.554688 211.121094 434.800781 C 209.988281 434.046875 208.832031 433.320312 207.660156 432.621094 C 206.488281 431.921875 205.296875 431.253906 204.09375 430.613281 C 202.886719 429.972656 201.667969 429.363281 200.433594 428.78125 C 199.195312 428.199219 197.945312 427.648438 196.683594 427.128906 C 195.421875 426.609375 194.148438 426.121094 192.859375 425.664062 C 191.574219 425.203125 190.277344 424.777344 188.96875 424.382812 C 187.660156 423.988281 186.34375 423.628906 185.015625 423.296875 C 183.691406 422.96875 182.359375 422.671875 181.015625 422.40625 C 179.675781 422.140625 178.332031 421.90625 176.980469 421.707031 C 175.625 421.507812 174.269531 421.34375 172.910156 421.210938 C 171.550781 421.078125 170.1875 420.976562 168.824219 420.910156 C 167.457031 420.84375 166.089844 420.808594 164.722656 420.808594 C 163.359375 420.808594 161.992188 420.84375 160.625 420.910156 C 159.261719 420.976562 157.898438 421.078125 156.539062 421.210938 C 155.179688 421.34375 153.820312 421.507812 152.46875 421.707031 C 151.117188 421.90625 149.773438 422.140625 148.429688 422.40625 C 147.089844 422.671875 145.757812 422.96875 144.433594 423.296875 C 143.105469 423.628906 141.789062 423.988281 140.480469 424.382812 C 139.171875 424.777344 137.875 425.203125 136.589844 425.664062 C 135.300781 426.121094 134.027344 426.609375 132.765625 427.128906 C 131.5 427.648438 130.253906 428.199219 129.015625 428.78125 C 127.78125 429.363281 126.5625 429.972656 125.355469 430.613281 C 124.148438 431.253906 122.960938 431.921875 121.789062 432.621094 C 120.617188 433.320312 119.460938 434.046875 118.324219 434.800781 C 117.191406 435.554688 116.074219 436.339844 114.972656 437.148438 C 113.875 437.957031 112.800781 438.792969 111.742188 439.65625 C 110.6875 440.515625 109.652344 441.402344 108.640625 442.316406 C 107.625 443.230469 106.636719 444.164062 105.671875 445.125 C 104.703125 446.085938 103.761719 447.070312 102.84375 448.078125 C 101.925781 449.085938 101.035156 450.113281 100.167969 451.164062 C 99.300781 452.214844 98.457031 453.285156 97.644531 454.375 C 96.832031 455.46875 96.042969 456.578125 95.285156 457.707031 C 94.523438 458.835938 93.792969 459.984375 93.089844 461.148438 C 92.386719 462.316406 91.714844 463.496094 91.070312 464.695312 C 90.425781 465.894531 89.8125 467.105469 89.226562 468.335938 C 88.644531 469.5625 88.089844 470.804688 87.566406 472.0625 C 87.042969 473.316406 86.550781 474.582031 86.089844 475.863281 C 85.628906 477.140625 85.203125 478.433594 84.804688 479.730469 C 84.410156 481.03125 84.042969 482.339844 83.710938 483.660156 C 83.378906 484.976562 83.082031 486.300781 82.8125 487.636719 C 82.546875 488.96875 82.3125 490.304688 82.113281 491.648438 C 81.914062 492.996094 81.746094 494.34375 81.613281 495.695312 C 81.476562 497.046875 81.378906 498.402344 81.308594 499.757812 C 81.242188 501.117188 81.210938 502.472656 81.210938 503.832031 Z M 81.210938 503.832031 " fill-opacity="1" fill-rule="nonzero"/></g><path fill="#ff0000" d="M 241.230469 440.402344 L 703.878906 440.402344 C 717.636719 440.402344 728.785156 451.554688 728.785156 465.308594 L 728.785156 542.472656 C 728.785156 556.226562 717.636719 567.378906 703.878906 567.378906 L 242.03125 567.378906 C 257.007812 550.605469 266.105469 528.527344 266.105469 504.332031 C 266.105469 479.714844 256.683594 457.28125 241.230469 440.402344 Z M 241.230469 440.402344 " fill-opacity="1" fill-rule="evenodd"/><path fill="#ffffff" d="M 333.777344 497.621094 L 324.738281 497.621094 C 324.570312 496.453125 324.234375 495.414062 323.726562 494.503906 C 323.214844 493.582031 322.5625 492.800781 321.765625 492.152344 C 320.964844 491.503906 320.042969 491.011719 319 490.667969 C 317.96875 490.324219 316.847656 490.152344 315.636719 490.152344 C 313.449219 490.152344 311.542969 490.695312 309.917969 491.78125 C 308.292969 492.855469 307.035156 494.421875 306.140625 496.488281 C 305.246094 498.535156 304.800781 501.027344 304.800781 503.957031 C 304.800781 506.96875 305.246094 509.503906 306.140625 511.550781 C 307.050781 513.601562 308.316406 515.148438 309.9375 516.195312 C 311.5625 517.242188 313.441406 517.765625 315.574219 517.765625 C 316.769531 517.765625 317.878906 517.605469 318.894531 517.289062 C 319.925781 516.972656 320.84375 516.511719 321.640625 515.90625 C 322.4375 515.289062 323.097656 514.539062 323.621094 513.65625 C 324.160156 512.777344 324.53125 511.773438 324.738281 510.644531 L 333.777344 510.683594 C 333.542969 512.625 332.957031 514.496094 332.019531 516.296875 C 331.097656 518.085938 329.855469 519.691406 328.285156 521.105469 C 326.730469 522.511719 324.875 523.625 322.714844 524.449219 C 320.566406 525.261719 318.140625 525.667969 315.429688 525.667969 C 311.660156 525.667969 308.289062 524.816406 305.316406 523.109375 C 302.359375 521.402344 300.019531 518.933594 298.300781 515.699219 C 296.59375 512.46875 295.738281 508.550781 295.738281 503.957031 C 295.738281 499.347656 296.605469 495.425781 298.339844 492.195312 C 300.074219 488.960938 302.425781 486.496094 305.398438 484.804688 C 308.371094 483.097656 311.714844 482.246094 315.429688 482.246094 C 317.878906 482.246094 320.148438 482.589844 322.238281 483.277344 C 324.34375 483.964844 326.207031 484.96875 327.832031 486.292969 C 329.457031 487.597656 330.777344 489.203125 331.792969 491.101562 C 332.824219 493 333.488281 495.171875 333.777344 497.621094 Z M 333.777344 497.621094 " fill-opacity="1" fill-rule="nonzero"/><path fill="#ffffff" d="M 379.023438 503.957031 C 379.023438 508.566406 378.148438 512.488281 376.402344 515.722656 C 374.667969 518.953125 372.300781 521.421875 369.304688 523.128906 C 366.316406 524.820312 362.960938 525.667969 359.230469 525.667969 C 355.476562 525.667969 352.105469 524.816406 349.121094 523.109375 C 346.132812 521.402344 343.773438 518.933594 342.039062 515.699219 C 340.308594 512.46875 339.441406 508.550781 339.441406 503.957031 C 339.441406 499.347656 340.308594 495.425781 342.039062 492.195312 C 343.773438 488.960938 346.132812 486.496094 349.121094 484.804688 C 352.105469 483.097656 355.476562 482.246094 359.230469 482.246094 C 362.960938 482.246094 366.316406 483.097656 369.304688 484.804688 C 372.300781 486.496094 374.667969 488.960938 376.402344 492.195312 C 378.148438 495.425781 379.023438 499.347656 379.023438 503.957031 Z M 369.964844 503.957031 C 369.964844 500.972656 369.515625 498.453125 368.621094 496.402344 C 367.742188 494.355469 366.496094 492.800781 364.886719 491.738281 C 363.277344 490.679688 361.390625 490.152344 359.230469 490.152344 C 357.070312 490.152344 355.1875 490.679688 353.578125 491.738281 C 351.96875 492.800781 350.714844 494.355469 349.820312 496.402344 C 348.941406 498.453125 348.5 500.972656 348.5 503.957031 C 348.5 506.941406 348.941406 509.460938 349.820312 511.511719 C 350.714844 513.5625 351.96875 515.117188 353.578125 516.175781 C 355.1875 517.234375 357.070312 517.765625 359.230469 517.765625 C 361.390625 517.765625 363.277344 517.234375 364.886719 516.175781 C 366.496094 515.117188 367.742188 513.5625 368.621094 511.511719 C 369.515625 509.460938 369.964844 506.941406 369.964844 503.957031 Z M 369.964844 503.957031 " fill-opacity="1" fill-rule="nonzero"/><path fill="#ffffff" d="M 420.996094 482.824219 L 420.996094 525.089844 L 413.277344 525.089844 L 394.890625 498.488281 L 394.578125 498.488281 L 394.578125 525.089844 L 385.644531 525.089844 L 385.644531 482.824219 L 393.484375 482.824219 L 411.730469 509.40625 L 412.101562 509.40625 L 412.101562 482.824219 Z M 420.996094 482.824219 " fill-opacity="1" fill-rule="nonzero"/><path fill="#ffffff" d="M 426.769531 490.191406 L 426.769531 482.824219 L 461.484375 482.824219 L 461.484375 490.191406 L 448.542969 490.191406 L 448.542969 525.089844 L 439.707031 525.089844 L 439.707031 490.191406 Z M 426.769531 490.191406 " fill-opacity="1" fill-rule="nonzero"/><path fill="#ffffff" d="M 469.320312 525.089844 L 459.742188 525.089844 L 474.335938 482.824219 L 485.847656 482.824219 L 500.421875 525.089844 L 490.84375 525.089844 L 480.257812 492.484375 L 479.925781 492.484375 Z M 468.71875 508.476562 L 491.339844 508.476562 L 491.339844 515.453125 L 468.71875 515.453125 Z M 468.71875 508.476562 " fill-opacity="1" fill-rule="nonzero"/><path fill="#ffffff" d="M 540.8125 497.621094 L 531.773438 497.621094 C 531.609375 496.453125 531.273438 495.414062 530.765625 494.503906 C 530.253906 493.582031 529.601562 492.800781 528.800781 492.152344 C 528.003906 491.503906 527.082031 491.011719 526.035156 490.667969 C 525.003906 490.324219 523.882812 490.152344 522.675781 490.152344 C 520.484375 490.152344 518.578125 490.695312 516.957031 491.78125 C 515.332031 492.855469 514.074219 494.421875 513.179688 496.488281 C 512.285156 498.535156 511.839844 501.027344 511.839844 503.957031 C 511.839844 506.96875 512.285156 509.503906 513.179688 511.550781 C 514.085938 513.601562 515.351562 515.148438 516.976562 516.195312 C 518.597656 517.242188 520.480469 517.765625 522.609375 517.765625 C 523.808594 517.765625 524.914062 517.605469 525.933594 517.289062 C 526.964844 516.972656 527.882812 516.511719 528.679688 515.90625 C 529.476562 515.289062 530.136719 514.539062 530.660156 513.65625 C 531.195312 512.777344 531.566406 511.773438 531.773438 510.644531 L 540.8125 510.683594 C 540.582031 512.625 539.996094 514.496094 539.058594 516.296875 C 538.136719 518.085938 536.890625 519.691406 535.324219 521.105469 C 533.769531 522.511719 531.914062 523.625 529.75 524.449219 C 527.605469 525.261719 525.179688 525.667969 522.464844 525.667969 C 518.695312 525.667969 515.324219 524.816406 512.351562 523.109375 C 509.398438 521.402344 507.054688 518.933594 505.335938 515.699219 C 503.632812 512.46875 502.777344 508.550781 502.777344 503.957031 C 502.777344 499.347656 503.644531 495.425781 505.378906 492.195312 C 507.113281 488.960938 509.464844 486.496094 512.4375 484.804688 C 515.410156 483.097656 518.753906 482.246094 522.464844 482.246094 C 524.914062 482.246094 527.183594 482.589844 529.277344 483.277344 C 531.382812 483.964844 533.246094 484.96875 534.867188 486.292969 C 536.492188 487.597656 537.8125 489.203125 538.832031 491.101562 C 539.863281 493 540.523438 495.171875 540.8125 497.621094 Z M 540.8125 497.621094 " fill-opacity="1" fill-rule="nonzero"/><path fill="#ffffff" d="M 545.613281 490.191406 L 545.613281 482.824219 L 580.324219 482.824219 L 580.324219 490.191406 L 567.382812 490.191406 L 567.382812 525.089844 L 558.550781 525.089844 L 558.550781 490.191406 Z M 545.613281 490.191406 " fill-opacity="1" fill-rule="nonzero"/><path fill="#ffffff" d="M 625.597656 482.824219 L 634.535156 482.824219 L 634.535156 510.273438 C 634.535156 513.355469 633.796875 516.050781 632.328125 518.363281 C 630.867188 520.675781 628.824219 522.476562 626.195312 523.769531 C 623.570312 525.050781 620.507812 525.6875 617.011719 525.6875 C 613.503906 525.6875 610.4375 525.050781 607.808594 523.769531 C 605.183594 522.476562 603.136719 520.675781 601.679688 518.363281 C 600.222656 516.050781 599.492188 513.355469 599.492188 510.273438 L 599.492188 482.824219 L 608.425781 482.824219 L 608.425781 509.507812 C 608.425781 511.117188 608.777344 512.550781 609.480469 513.800781 C 610.195312 515.054688 611.199219 516.039062 612.496094 516.753906 C 613.785156 517.46875 615.292969 517.824219 617.011719 517.824219 C 618.75 517.824219 620.253906 517.46875 621.53125 516.753906 C 622.828125 516.039062 623.824219 515.054688 624.527344 513.800781 C 625.242188 512.550781 625.597656 511.117188 625.597656 509.507812 Z M 625.597656 482.824219 " fill-opacity="1" fill-rule="nonzero"/><path fill="#ffffff" d="M 664.816406 494.980469 C 664.648438 493.316406 663.941406 492.023438 662.691406 491.101562 C 661.4375 490.179688 659.738281 489.71875 657.59375 489.71875 C 656.136719 489.71875 654.902344 489.921875 653.898438 490.335938 C 652.894531 490.734375 652.125 491.292969 651.585938 492.007812 C 651.0625 492.722656 650.800781 493.535156 650.800781 494.445312 C 650.773438 495.199219 650.933594 495.859375 651.277344 496.425781 C 651.636719 496.988281 652.125 497.476562 652.742188 497.890625 C 653.363281 498.289062 654.074219 498.640625 654.890625 498.941406 C 655.699219 499.230469 656.566406 499.480469 657.488281 499.683594 L 661.285156 500.59375 C 663.128906 501.007812 664.824219 501.554688 666.363281 502.246094 C 667.902344 502.933594 669.238281 503.777344 670.367188 504.78125 C 671.496094 505.789062 672.367188 506.96875 672.988281 508.332031 C 673.621094 509.695312 673.945312 511.257812 673.957031 513.015625 C 673.945312 515.605469 673.285156 517.847656 671.976562 519.746094 C 670.683594 521.628906 668.8125 523.09375 666.363281 524.140625 C 663.929688 525.171875 660.988281 525.6875 657.550781 525.6875 C 654.140625 525.6875 651.167969 525.167969 648.636719 524.121094 C 646.117188 523.074219 644.148438 521.527344 642.730469 519.476562 C 641.332031 517.414062 640.59375 514.859375 640.523438 511.820312 L 649.171875 511.820312 C 649.265625 513.238281 649.671875 514.421875 650.390625 515.371094 C 651.117188 516.304688 652.089844 517.015625 653.300781 517.496094 C 654.523438 517.964844 655.90625 518.195312 657.445312 518.195312 C 658.960938 518.195312 660.277344 517.976562 661.386719 517.535156 C 662.519531 517.097656 663.390625 516.484375 664.007812 515.699219 C 664.628906 514.914062 664.9375 514.015625 664.9375 512.996094 C 664.9375 512.046875 664.65625 511.25 664.09375 510.601562 C 663.542969 509.957031 662.730469 509.40625 661.65625 508.953125 C 660.597656 508.496094 659.296875 508.085938 657.753906 507.714844 L 653.15625 506.558594 C 649.59375 505.691406 646.777344 504.335938 644.714844 502.492188 C 642.648438 500.648438 641.625 498.164062 641.640625 495.042969 C 641.625 492.484375 642.308594 490.246094 643.679688 488.335938 C 645.074219 486.421875 646.976562 484.929688 649.398438 483.855469 C 651.820312 482.78125 654.570312 482.246094 657.652344 482.246094 C 660.789062 482.246094 663.527344 482.78125 665.867188 483.855469 C 668.21875 484.929688 670.050781 486.421875 671.359375 488.335938 C 672.664062 490.246094 673.335938 492.460938 673.378906 494.980469 Z M 664.816406 494.980469 " fill-opacity="1" fill-rule="nonzero"/><path fill="#ffffff" d="M 202.089844 481.417969 C 202.089844 477.304688 198.726562 473.945312 194.617188 473.945312 L 134.84375 473.945312 C 130.734375 473.945312 127.371094 477.304688 127.371094 481.417969 L 127.371094 526.25 C 127.371094 530.359375 130.734375 533.71875 134.84375 533.71875 L 194.617188 533.71875 C 198.726562 533.71875 202.089844 530.359375 202.089844 526.25 Z M 194.617188 481.417969 L 164.730469 500.097656 L 134.84375 481.417969 Z M 164.730469 507.566406 L 134.84375 488.886719 L 134.84375 526.25 L 194.617188 526.25 L 194.617188 488.886719 Z M 164.730469 507.566406 " fill-opacity="1" fill-rule="evenodd"/><g clip-path="url(#edc6340175)"><path fill="#ff0000" d="M 332.191406 379.726562 L 305.070312 434.230469 C 304.8125 434.804688 304.683594 435.40625 304.683594 436.039062 C 304.683594 436.667969 304.8125 437.273438 305.070312 437.847656 C 305.332031 438.421875 305.703125 438.914062 306.179688 439.332031 C 306.65625 439.746094 307.199219 440.046875 307.804688 440.226562 C 323.195312 444.722656 338.820312 448.132812 354.683594 450.457031 C 370.546875 452.785156 386.496094 454.003906 402.527344 454.117188 L 404.996094 454.117188 C 421.457031 454.121094 437.835938 452.957031 454.128906 450.628906 C 470.425781 448.304688 486.476562 444.835938 502.277344 440.226562 C 502.882812 440.046875 503.425781 439.746094 503.902344 439.332031 C 504.378906 438.914062 504.746094 438.421875 505.011719 437.847656 C 505.269531 437.269531 505.398438 436.667969 505.398438 436.039062 C 505.398438 435.40625 505.269531 434.804688 505.011719 434.230469 L 477.804688 379.726562 C 470.394531 364.773438 451.34375 353.265625 428.28125 348.855469 C 431.960938 347.429688 435.484375 345.683594 438.847656 343.617188 C 442.210938 341.554688 445.363281 339.203125 448.300781 336.566406 C 451.238281 333.929688 453.914062 331.050781 456.332031 327.929688 C 458.746094 324.804688 460.863281 321.492188 462.675781 317.988281 C 463.933594 318.164062 465.199219 318.253906 466.46875 318.25 C 467.289062 318.25 468.105469 318.210938 468.917969 318.132812 C 469.730469 318.050781 470.539062 317.929688 471.34375 317.773438 C 472.144531 317.613281 472.9375 317.414062 473.71875 317.175781 C 474.503906 316.941406 475.273438 316.664062 476.027344 316.351562 C 476.785156 316.039062 477.523438 315.691406 478.246094 315.304688 C 478.964844 314.921875 479.667969 314.5 480.347656 314.046875 C 481.027344 313.59375 481.683594 313.105469 482.316406 312.589844 C 482.949219 312.070312 483.554688 311.519531 484.132812 310.945312 C 484.714844 310.367188 485.261719 309.761719 485.78125 309.128906 C 486.300781 308.496094 486.789062 307.839844 487.246094 307.160156 C 487.699219 306.480469 488.121094 305.78125 488.507812 305.0625 C 488.894531 304.339844 489.242188 303.601562 489.558594 302.847656 C 489.871094 302.089844 490.148438 301.324219 490.386719 300.539062 C 490.625 299.757812 490.824219 298.964844 490.984375 298.164062 C 491.144531 297.363281 491.269531 296.554688 491.347656 295.738281 C 491.429688 294.925781 491.472656 294.109375 491.472656 293.292969 L 491.472656 282.972656 C 491.480469 281.777344 491.402344 280.585938 491.238281 279.402344 C 491.070312 278.214844 490.820312 277.050781 490.484375 275.902344 C 490.144531 274.753906 489.726562 273.636719 489.226562 272.550781 C 488.726562 271.464844 488.148438 270.417969 487.496094 269.417969 C 486.84375 268.414062 486.121094 267.464844 485.328125 266.570312 C 484.535156 265.671875 483.683594 264.839844 482.769531 264.066406 C 481.855469 263.296875 480.890625 262.59375 479.871094 261.964844 C 478.855469 261.335938 477.796875 260.78125 476.699219 260.304688 C 476.390625 258.167969 475.984375 256.050781 475.484375 253.949219 C 474.984375 251.847656 474.394531 249.773438 473.707031 247.722656 C 473.023438 245.675781 472.246094 243.664062 471.382812 241.683594 C 470.515625 239.703125 469.566406 237.769531 468.527344 235.875 C 467.488281 233.980469 466.367188 232.136719 465.164062 230.34375 C 463.960938 228.550781 462.679688 226.8125 461.324219 225.132812 C 459.964844 223.453125 458.535156 221.839844 457.03125 220.289062 C 455.527344 218.738281 453.960938 217.253906 452.324219 215.84375 C 450.691406 214.433594 448.996094 213.097656 447.242188 211.835938 C 445.488281 210.578125 443.679688 209.398438 441.820312 208.300781 C 439.960938 207.203125 438.054688 206.1875 436.105469 205.261719 C 434.15625 204.332031 432.167969 203.496094 430.140625 202.742188 C 428.117188 201.992188 426.0625 201.335938 423.976562 200.769531 C 421.894531 200.203125 419.789062 199.730469 417.660156 199.351562 C 415.535156 198.972656 413.394531 198.6875 411.246094 198.503906 C 409.09375 198.316406 406.9375 198.222656 404.777344 198.230469 C 402.617188 198.234375 400.460938 198.335938 398.3125 198.535156 C 396.160156 198.730469 394.023438 199.023438 391.898438 199.414062 C 389.773438 199.804688 387.671875 200.285156 385.589844 200.863281 C 383.507812 201.441406 381.457031 202.109375 379.4375 202.867188 C 377.414062 203.628906 375.429688 204.476562 373.484375 205.414062 C 371.539062 206.351562 369.640625 207.375 367.785156 208.484375 C 365.929688 209.589844 364.128906 210.777344 362.382812 212.046875 C 360.632812 213.316406 358.945312 214.660156 357.316406 216.078125 C 355.6875 217.496094 354.128906 218.984375 352.632812 220.542969 C 351.136719 222.101562 349.714844 223.726562 348.363281 225.410156 C 347.015625 227.097656 345.742188 228.839844 344.546875 230.640625 C 343.355469 232.4375 342.242188 234.289062 341.214844 236.1875 C 340.183594 238.085938 339.242188 240.027344 338.386719 242.011719 C 337.53125 243.992188 336.765625 246.011719 336.089844 248.0625 C 335.417969 250.113281 334.832031 252.191406 334.34375 254.296875 C 333.855469 256.398438 333.460938 258.519531 333.160156 260.660156 C 332.125 261.171875 331.132812 261.753906 330.179688 262.40625 C 329.226562 263.054688 328.320312 263.769531 327.46875 264.546875 C 326.613281 265.320312 325.816406 266.152344 325.078125 267.042969 C 324.339844 267.929688 323.667969 268.863281 323.058594 269.84375 C 322.449219 270.824219 321.910156 271.84375 321.445312 272.898438 C 320.976562 273.953125 320.585938 275.035156 320.269531 276.144531 C 319.953125 277.257812 319.714844 278.382812 319.554688 279.527344 C 319.394531 280.667969 319.3125 281.816406 319.3125 282.972656 L 319.3125 293.246094 C 319.3125 294.464844 319.398438 295.675781 319.574219 296.878906 C 319.75 298.085938 320.011719 299.269531 320.359375 300.4375 C 320.710938 301.601562 321.140625 302.738281 321.65625 303.839844 C 322.167969 304.945312 322.757812 306.003906 323.429688 307.023438 C 324.097656 308.039062 324.835938 309.003906 325.644531 309.914062 C 326.453125 310.824219 327.324219 311.667969 328.257812 312.453125 C 329.1875 313.234375 330.171875 313.945312 331.207031 314.585938 C 332.246094 315.222656 333.320312 315.785156 334.4375 316.265625 L 334.4375 327.554688 C 334.4375 327.847656 334.46875 328.132812 334.523438 328.417969 C 334.582031 328.699219 334.664062 328.976562 334.773438 329.242188 C 334.886719 329.511719 335.019531 329.765625 335.183594 330.007812 C 335.34375 330.246094 335.527344 330.46875 335.730469 330.675781 C 335.933594 330.878906 336.15625 331.0625 336.398438 331.222656 C 336.640625 331.382812 336.894531 331.519531 337.160156 331.628906 C 337.429688 331.742188 337.703125 331.824219 337.988281 331.882812 C 338.273438 331.9375 338.558594 331.964844 338.847656 331.964844 L 357.0625 331.964844 C 360.460938 335.710938 364.246094 339.015625 368.421875 341.875 C 372.59375 344.734375 377.039062 347.078125 381.757812 348.898438 C 358.605469 353.308594 339.597656 364.773438 332.191406 379.726562 Z M 482.960938 282.972656 L 482.960938 293.246094 C 482.960938 293.785156 482.933594 294.324219 482.878906 294.859375 C 482.824219 295.398438 482.746094 295.929688 482.636719 296.457031 C 482.53125 296.988281 482.398438 297.507812 482.242188 298.023438 C 482.085938 298.542969 481.902344 299.046875 481.695312 299.546875 C 481.488281 300.042969 481.257812 300.53125 481 301.003906 C 480.746094 301.480469 480.46875 301.941406 480.167969 302.390625 C 479.867188 302.835938 479.546875 303.269531 479.203125 303.6875 C 478.859375 304.101562 478.5 304.5 478.117188 304.882812 C 477.734375 305.261719 477.335938 305.625 476.917969 305.964844 C 476.5 306.304688 476.066406 306.625 475.617188 306.925781 C 475.171875 307.226562 474.707031 307.5 474.230469 307.753906 C 473.757812 308.007812 473.269531 308.238281 472.769531 308.445312 C 472.273438 308.652344 471.765625 308.832031 471.25 308.988281 C 470.734375 309.144531 470.210938 309.277344 469.683594 309.378906 C 469.152344 309.484375 468.621094 309.5625 468.082031 309.617188 C 467.546875 309.667969 467.007812 309.695312 466.46875 309.695312 C 467.710938 306.238281 468.644531 302.695312 469.273438 299.074219 C 469.902344 295.457031 470.21875 291.808594 470.21875 288.132812 C 470.21875 284.457031 469.902344 280.808594 469.273438 277.1875 C 468.644531 273.566406 467.710938 270.027344 466.46875 266.566406 C 467.007812 266.566406 467.546875 266.589844 468.082031 266.640625 C 468.621094 266.6875 469.152344 266.765625 469.683594 266.867188 C 470.210938 266.972656 470.734375 267.097656 471.25 267.253906 C 471.769531 267.40625 472.277344 267.585938 472.773438 267.792969 C 473.273438 267.996094 473.761719 268.222656 474.238281 268.476562 C 474.714844 268.730469 475.175781 269.003906 475.625 269.300781 C 476.074219 269.601562 476.507812 269.917969 476.925781 270.261719 C 477.34375 270.601562 477.746094 270.960938 478.125 271.339844 C 478.507812 271.722656 478.871094 272.121094 479.214844 272.535156 C 479.558594 272.953125 479.878906 273.382812 480.179688 273.832031 C 480.480469 274.277344 480.757812 274.738281 481.011719 275.214844 C 481.265625 275.691406 481.5 276.175781 481.707031 276.675781 C 481.914062 277.171875 482.09375 277.679688 482.25 278.195312 C 482.410156 278.710938 482.539062 279.234375 482.644531 279.761719 C 482.75 280.289062 482.828125 280.824219 482.882812 281.359375 C 482.9375 281.894531 482.960938 282.433594 482.960938 282.972656 Z M 404.996094 206.859375 C 409.203125 206.847656 413.375 207.25 417.503906 208.066406 C 421.628906 208.882812 425.636719 210.09375 429.527344 211.707031 C 433.414062 213.320312 437.105469 215.300781 440.597656 217.644531 C 444.09375 219.992188 447.320312 222.65625 450.285156 225.644531 C 452.507812 227.851562 454.558594 230.207031 456.4375 232.710938 C 458.316406 235.214844 460 237.84375 461.496094 240.597656 C 462.988281 243.351562 464.273438 246.195312 465.351562 249.136719 C 466.429688 252.078125 467.285156 255.078125 467.925781 258.144531 L 466.601562 258.144531 C 465.332031 258.144531 464.066406 258.230469 462.808594 258.410156 C 461.449219 255.777344 459.917969 253.246094 458.210938 250.824219 C 456.503906 248.398438 454.640625 246.101562 452.621094 243.933594 C 450.597656 241.765625 448.441406 239.746094 446.144531 237.871094 C 443.84375 236 441.429688 234.289062 438.898438 232.75 C 436.367188 231.207031 433.742188 229.84375 431.023438 228.660156 C 428.304688 227.480469 425.519531 226.488281 422.664062 225.6875 C 419.8125 224.886719 416.917969 224.285156 413.980469 223.878906 C 411.042969 223.476562 408.09375 223.273438 405.128906 223.273438 C 402.164062 223.273438 399.214844 223.476562 396.277344 223.878906 C 393.339844 224.285156 390.445312 224.886719 387.589844 225.6875 C 384.738281 226.488281 381.953125 227.480469 379.234375 228.660156 C 376.515625 229.84375 373.890625 231.207031 371.359375 232.75 C 368.828125 234.289062 366.414062 236 364.113281 237.871094 C 361.816406 239.746094 359.65625 241.765625 357.636719 243.933594 C 355.617188 246.101562 353.753906 248.398438 352.046875 250.824219 C 350.339844 253.246094 348.808594 255.777344 347.449219 258.410156 C 346.417969 258.34375 345.390625 258.34375 344.359375 258.410156 L 342.289062 258.410156 C 342.644531 256.609375 343.074219 254.832031 343.582031 253.066406 C 344.089844 251.304688 344.671875 249.570312 345.328125 247.859375 C 345.984375 246.144531 346.714844 244.464844 347.515625 242.816406 C 348.320312 241.167969 349.191406 239.554688 350.128906 237.980469 C 351.070312 236.40625 352.078125 234.875 353.148438 233.390625 C 354.222656 231.902344 355.355469 230.464844 356.550781 229.074219 C 357.75 227.683594 359.003906 226.347656 360.3125 225.066406 C 361.625 223.785156 362.988281 222.5625 364.40625 221.398438 C 365.820312 220.234375 367.285156 219.132812 368.796875 218.09375 C 370.308594 217.054688 371.859375 216.082031 373.457031 215.179688 C 375.050781 214.273438 376.679688 213.4375 378.347656 212.675781 C 380.015625 211.910156 381.710938 211.21875 383.4375 210.601562 C 385.164062 209.980469 386.914062 209.4375 388.6875 208.972656 C 390.460938 208.503906 392.25 208.113281 394.054688 207.800781 C 395.863281 207.488281 397.679688 207.25 399.503906 207.09375 C 401.332031 206.9375 403.164062 206.859375 404.996094 206.859375 Z M 327.824219 293.246094 L 327.824219 282.972656 C 327.824219 282.148438 327.890625 281.324219 328.015625 280.507812 C 328.140625 279.691406 328.328125 278.890625 328.574219 278.101562 C 328.820312 277.316406 329.125 276.550781 329.488281 275.808594 C 329.851562 275.066406 330.265625 274.355469 330.738281 273.675781 C 331.207031 272.996094 331.726562 272.355469 332.292969 271.753906 C 332.859375 271.15625 333.464844 270.601562 334.117188 270.089844 C 334.765625 269.582031 335.453125 269.125 336.171875 268.71875 C 336.890625 268.3125 337.636719 267.964844 338.40625 267.671875 L 338.847656 267.671875 C 340.496094 267.03125 342.199219 266.695312 343.964844 266.65625 C 342.722656 270.109375 341.789062 273.640625 341.160156 277.253906 C 340.53125 280.867188 340.214844 284.507812 340.214844 288.175781 C 340.214844 291.84375 340.53125 295.484375 341.160156 299.097656 C 341.789062 302.710938 342.722656 306.246094 343.964844 309.695312 C 342.894531 309.679688 341.839844 309.558594 340.796875 309.335938 C 339.75 309.113281 338.738281 308.789062 337.757812 308.367188 C 336.777344 307.945312 335.84375 307.433594 334.964844 306.832031 C 334.082031 306.226562 333.265625 305.546875 332.519531 304.785156 C 331.773438 304.019531 331.105469 303.195312 330.519531 302.300781 C 329.933594 301.410156 329.4375 300.46875 329.035156 299.476562 C 328.632812 298.488281 328.328125 297.46875 328.125 296.421875 C 327.921875 295.375 327.820312 294.316406 327.824219 293.246094 Z M 343.257812 323.277344 L 343.257812 318.164062 L 344.449219 318.164062 C 345.496094 318.15625 346.542969 318.082031 347.582031 317.941406 C 348.5 319.761719 349.515625 321.523438 350.625 323.234375 Z M 381.316406 331.789062 C 381.6875 332.574219 382.164062 333.289062 382.742188 333.9375 C 383.316406 334.585938 383.972656 335.144531 384.703125 335.609375 C 385.4375 336.074219 386.222656 336.425781 387.054688 336.667969 C 387.886719 336.910156 388.738281 337.035156 389.605469 337.039062 L 398.425781 337.039062 C 399.03125 337.035156 399.632812 336.972656 400.226562 336.851562 C 400.820312 336.730469 401.398438 336.554688 401.957031 336.320312 C 402.515625 336.085938 403.046875 335.800781 403.550781 335.460938 C 404.050781 335.125 404.519531 334.738281 404.945312 334.308594 C 405.375 333.878906 405.753906 333.414062 406.089844 332.90625 C 406.425781 332.402344 406.710938 331.871094 406.941406 331.308594 C 407.171875 330.75 407.347656 330.171875 407.464844 329.578125 C 407.582031 328.984375 407.640625 328.382812 407.640625 327.777344 L 407.640625 325.351562 C 407.640625 324.746094 407.582031 324.144531 407.464844 323.550781 C 407.347656 322.957031 407.171875 322.378906 406.941406 321.816406 C 406.710938 321.257812 406.425781 320.726562 406.089844 320.21875 C 405.753906 319.714844 405.375 319.25 404.945312 318.820312 C 404.519531 318.390625 404.050781 318.003906 403.550781 317.667969 C 403.046875 317.328125 402.515625 317.042969 401.957031 316.808594 C 401.398438 316.574219 400.820312 316.398438 400.226562 316.277344 C 399.632812 316.15625 399.03125 316.09375 398.425781 316.089844 L 389.605469 316.089844 C 389.09375 316.101562 388.585938 316.152344 388.082031 316.246094 C 387.578125 316.339844 387.085938 316.476562 386.605469 316.652344 C 386.125 316.828125 385.664062 317.042969 385.21875 317.296875 C 384.773438 317.550781 384.351562 317.835938 383.953125 318.160156 C 383.558594 318.484375 383.191406 318.839844 382.851562 319.222656 C 382.515625 319.609375 382.210938 320.019531 381.941406 320.453125 C 381.671875 320.890625 381.441406 321.34375 381.246094 321.816406 C 381.050781 322.292969 380.898438 322.777344 380.785156 323.277344 L 360.898438 323.277344 C 360.160156 322.347656 359.449219 321.394531 358.769531 320.421875 C 358.089844 319.445312 357.445312 318.449219 356.828125 317.433594 C 356.210938 316.417969 355.628906 315.382812 355.078125 314.328125 C 354.527344 313.273438 354.011719 312.207031 353.527344 311.121094 C 353.046875 310.035156 352.597656 308.933594 352.183594 307.820312 C 351.769531 306.707031 351.394531 305.578125 351.050781 304.441406 C 350.707031 303.304688 350.402344 302.15625 350.132812 301 C 349.863281 299.839844 349.632812 298.675781 349.433594 297.503906 C 349.238281 296.332031 349.082031 295.15625 348.960938 293.972656 C 348.839844 292.789062 348.753906 291.605469 348.707031 290.417969 C 348.660156 289.230469 348.652344 288.042969 348.683594 286.855469 C 348.710938 285.667969 348.777344 284.480469 348.878906 283.296875 C 348.984375 282.113281 349.125 280.933594 349.304688 279.757812 C 349.480469 278.582031 349.699219 277.414062 349.949219 276.253906 C 350.203125 275.09375 350.492188 273.941406 350.816406 272.796875 C 351.140625 271.65625 351.503906 270.523438 351.898438 269.402344 C 352.296875 268.28125 352.726562 267.175781 353.195312 266.082031 C 353.660156 264.992188 354.160156 263.914062 354.695312 262.851562 C 355.230469 261.789062 355.800781 260.746094 356.402344 259.722656 C 357 258.695312 357.632812 257.691406 358.296875 256.707031 C 358.964844 255.722656 359.65625 254.757812 360.382812 253.816406 C 361.109375 252.875 361.863281 251.957031 362.648438 251.066406 C 363.429688 250.171875 364.242188 249.304688 365.078125 248.460938 C 365.917969 247.617188 366.78125 246.804688 367.671875 246.015625 C 368.5625 245.226562 369.476562 244.46875 370.414062 243.738281 C 371.351562 243.011719 372.3125 242.3125 373.292969 241.640625 C 374.277344 240.972656 375.277344 240.335938 376.300781 239.730469 C 377.324219 239.125 378.363281 238.550781 379.421875 238.011719 C 380.480469 237.472656 381.554688 236.964844 382.648438 236.492188 C 383.738281 236.023438 384.84375 235.585938 385.960938 235.183594 C 387.078125 234.78125 388.207031 234.414062 389.351562 234.085938 C 390.492188 233.753906 391.640625 233.460938 392.800781 233.203125 C 393.960938 232.945312 395.128906 232.722656 396.304688 232.539062 C 397.476562 232.355469 398.65625 232.210938 399.839844 232.101562 C 401.023438 231.992188 402.207031 231.917969 403.398438 231.882812 C 404.585938 231.851562 405.773438 231.855469 406.960938 231.894531 C 408.148438 231.933594 409.332031 232.015625 410.515625 232.128906 C 411.699219 232.246094 412.875 232.398438 414.050781 232.589844 C 415.222656 232.777344 416.386719 233.007812 417.546875 233.269531 C 418.707031 233.535156 419.855469 233.835938 420.996094 234.171875 C 422.132812 234.507812 423.261719 234.878906 424.378906 235.289062 C 425.492188 235.695312 426.597656 236.140625 427.683594 236.617188 C 428.773438 237.097656 429.84375 237.609375 430.898438 238.152344 C 431.957031 238.699219 432.992188 239.277344 434.011719 239.886719 C 435.03125 240.5 436.03125 241.144531 437.007812 241.816406 C 437.988281 242.492188 438.941406 243.195312 439.878906 243.929688 C 440.8125 244.667969 441.71875 245.429688 442.605469 246.222656 C 443.492188 247.015625 444.351562 247.835938 445.183594 248.679688 C 446.019531 249.527344 446.824219 250.402344 447.601562 251.296875 C 448.382812 252.195312 449.132812 253.117188 449.851562 254.0625 C 450.570312 255.007812 451.261719 255.976562 451.921875 256.964844 C 452.578125 257.953125 453.207031 258.960938 453.800781 259.992188 C 454.398438 261.019531 454.960938 262.066406 455.488281 263.128906 C 456.015625 264.195312 456.511719 265.273438 456.972656 266.367188 C 457.433594 267.464844 457.859375 268.574219 458.25 269.695312 C 458.640625 270.816406 458.996094 271.953125 459.3125 273.097656 C 459.632812 274.242188 459.914062 275.394531 460.160156 276.558594 C 460.40625 277.71875 460.617188 278.890625 460.789062 280.066406 C 460.960938 281.242188 461.09375 282.421875 461.191406 283.605469 C 461.289062 284.789062 461.347656 285.976562 461.371094 287.164062 C 461.394531 288.351562 461.378906 289.539062 461.324219 290.726562 C 461.273438 291.914062 461.183594 293.097656 461.054688 294.28125 C 460.925781 295.460938 460.761719 296.640625 460.558594 297.808594 C 460.355469 298.980469 460.117188 300.144531 459.84375 301.300781 C 459.566406 302.457031 459.253906 303.601562 458.90625 304.738281 C 458.558594 305.875 458.171875 307 457.753906 308.109375 C 457.335938 309.222656 456.878906 310.320312 456.390625 311.402344 C 455.902344 312.488281 455.378906 313.554688 454.824219 314.601562 C 454.265625 315.652344 453.679688 316.683594 453.058594 317.699219 C 452.433594 318.710938 451.78125 319.703125 451.097656 320.675781 C 450.414062 321.644531 449.699219 322.59375 448.953125 323.519531 C 448.210938 324.449219 447.4375 325.347656 446.636719 326.226562 C 445.835938 327.105469 445.007812 327.957031 444.152344 328.78125 C 443.296875 329.605469 442.414062 330.402344 441.507812 331.171875 C 440.601562 331.941406 439.675781 332.679688 438.722656 333.390625 C 437.769531 334.101562 436.796875 334.78125 435.800781 335.429688 C 434.804688 336.082031 433.789062 336.699219 432.753906 337.28125 C 431.71875 337.867188 430.667969 338.417969 429.597656 338.9375 C 428.527344 339.453125 427.445312 339.9375 426.34375 340.386719 C 425.246094 340.835938 424.132812 341.253906 423.003906 341.632812 C 421.878906 342.011719 420.742188 342.355469 419.59375 342.660156 C 418.445312 342.96875 417.289062 343.238281 416.125 343.472656 C 414.957031 343.707031 413.789062 343.902344 412.609375 344.0625 C 411.433594 344.222656 410.25 344.347656 409.066406 344.433594 C 407.878906 344.515625 406.691406 344.566406 405.503906 344.574219 C 404.316406 344.585938 403.128906 344.558594 401.941406 344.492188 C 400.753906 344.425781 399.574219 344.324219 398.390625 344.183594 C 397.210938 344.046875 396.039062 343.867188 394.867188 343.65625 C 393.699219 343.441406 392.539062 343.191406 391.386719 342.902344 C 390.234375 342.613281 389.089844 342.289062 387.957031 341.929688 C 386.824219 341.570312 385.703125 341.175781 384.597656 340.746094 C 383.488281 340.3125 382.398438 339.847656 381.320312 339.347656 C 380.238281 338.847656 379.179688 338.316406 378.132812 337.75 C 377.089844 337.183594 376.066406 336.582031 375.058594 335.949219 C 374.050781 335.320312 373.066406 334.65625 372.101562 333.960938 C 371.136719 333.265625 370.195312 332.542969 369.277344 331.789062 Z M 389.339844 324.734375 L 398.425781 324.734375 C 398.621094 324.734375 398.785156 324.804688 398.925781 324.941406 C 399.0625 325.078125 399.132812 325.246094 399.132812 325.4375 L 399.132812 327.863281 C 399.132812 328.058594 399.0625 328.226562 398.925781 328.363281 C 398.785156 328.5 398.621094 328.570312 398.425781 328.570312 L 390.003906 328.570312 C 390.046875 328.261719 390.046875 327.953125 390.003906 327.644531 C 390.066406 326.566406 389.769531 325.597656 389.121094 324.734375 Z M 404.289062 355.03125 L 406.144531 355.03125 C 435.160156 355.03125 462.191406 367.023438 470.394531 383.515625 L 495.222656 433.4375 C 480.140625 437.585938 464.847656 440.675781 449.339844 442.707031 C 433.828125 444.734375 418.253906 445.6875 402.613281 445.5625 C 372.886719 445.375 343.695312 441.332031 315.035156 433.4375 L 339.820312 383.5625 C 348.019531 367.023438 375.054688 355.03125 404.070312 355.03125 Z M 404.289062 355.03125 " fill-opacity="1" fill-rule="nonzero"/></g><g clip-path="url(#8d261ce371)"><path fill="#ff0000" d="M 210.410156 356.460938 C 204.296875 354.46875 196.472656 351.90625 188.792969 350.058594 C 187.226562 349.632812 183.671875 349.632812 182.105469 352.191406 L 177.269531 359.589844 C 176.84375 360.15625 176.273438 360.441406 175.707031 360.585938 C 174.285156 360.726562 172.71875 360.441406 171.582031 359.445312 C 168.453125 357.457031 156.363281 346.359375 149.25 339.535156 C 142.136719 332.136719 131.328125 320.1875 129.050781 317.058594 C 128.199219 315.921875 127.773438 314.359375 127.914062 312.933594 C 128.058594 312.222656 128.339844 311.65625 128.910156 311.371094 L 136.304688 306.535156 C 138.011719 305.398438 138.867188 301.414062 138.441406 299.851562 C 137.019531 293.875 135.167969 287.191406 132.183594 278.371094 C 131.46875 276.523438 128.625 274.246094 124.074219 275.8125 C 117.957031 278.371094 112.269531 282.070312 107.433594 286.90625 C 106.011719 288.328125 104.730469 289.75 103.59375 291.316406 C 103.308594 291.601562 103.164062 292.027344 103.164062 292.3125 C 102.171875 310.089844 114.117188 333.984375 133.605469 353.332031 C 152.378906 372.957031 176.417969 385.617188 194.480469 385.617188 C 195.191406 385.617188 195.761719 385.617188 196.472656 385.617188 C 196.898438 385.617188 197.183594 385.476562 197.46875 385.191406 C 199.03125 383.910156 200.453125 382.628906 201.878906 381.351562 C 205.71875 377.511719 208.847656 373.101562 211.40625 368.40625 C 211.976562 367.128906 212.542969 365.988281 213.113281 364.710938 C 213.683594 362.71875 214.820312 357.882812 210.410156 356.460938 Z M 125.496094 278.941406 C 126.777344 278.515625 128.484375 278.800781 128.910156 279.652344 C 131.753906 288.328125 133.746094 294.871094 135.027344 300.703125 C 135.3125 301.699219 135.027344 303.121094 134.316406 303.691406 L 132.609375 304.828125 C 127.203125 297.574219 123.933594 289.039062 123.078125 280.078125 C 123.078125 280.078125 124.644531 279.367188 125.496094 278.941406 Z M 209.84375 363.285156 C 209.558594 364.140625 209.132812 364.851562 208.847656 365.5625 C 192.207031 362.859375 185.804688 358.167969 183.957031 356.460938 L 185.234375 354.46875 C 185.945312 353.472656 187.226562 353.472656 188.222656 353.757812 C 195.476562 355.464844 203.300781 358.023438 209.273438 359.875 C 210.269531 360.15625 210.269531 362.007812 209.84375 363.285156 Z M 209.84375 363.285156 " fill-opacity="1" fill-rule="nonzero"/></g><g clip-path="url(#e2c93fe8e6)"><path fill="#ff0000" d="M 156.503906 266.851562 C 155.507812 266.851562 154.796875 267.703125 154.796875 268.558594 C 154.796875 269.410156 155.652344 270.265625 156.503906 270.265625 C 191.066406 270.265625 218.945312 298.285156 218.945312 332.707031 C 218.945312 333.703125 219.800781 334.414062 220.652344 334.414062 C 221.503906 334.414062 222.359375 333.558594 222.359375 332.707031 C 222.5 296.4375 192.917969 266.992188 156.503906 266.851562 Z M 156.503906 266.851562 " fill-opacity="1" fill-rule="nonzero"/></g><path fill="#ff0000" d="M 187.371094 302.125 C 195.617188 310.234375 200.171875 321.328125 200.171875 332.992188 C 200.171875 333.984375 201.023438 334.699219 201.878906 334.699219 C 202.730469 334.699219 203.585938 333.84375 203.585938 332.992188 C 203.585938 306.960938 182.390625 285.769531 156.363281 285.769531 C 155.367188 285.769531 154.65625 286.621094 154.65625 287.476562 C 154.65625 288.472656 155.367188 289.183594 156.21875 289.324219 C 156.21875 289.324219 156.363281 289.324219 156.363281 289.324219 C 168.023438 289.324219 179.121094 293.875 187.371094 302.125 Z M 187.371094 302.125 " fill-opacity="1" fill-rule="nonzero"/><path fill="#ff0000" d="M 156.503906 309.238281 C 169.589844 309.238281 180.257812 319.90625 180.257812 332.992188 C 180.257812 333.984375 181.109375 334.699219 181.964844 334.699219 C 182.816406 334.699219 183.671875 333.84375 183.671875 332.992188 C 183.671875 317.914062 171.4375 305.679688 156.363281 305.679688 C 155.367188 305.679688 154.65625 306.535156 154.65625 307.386719 C 154.65625 308.242188 155.507812 309.238281 156.503906 309.238281 Z M 156.503906 309.238281 " fill-opacity="1" fill-rule="nonzero"/><g clip-path="url(#d39d05edff)"><path fill="#ff0000" d="M 539.613281 389.742188 C 540.988281 393.757812 544.757812 396.285156 548.78125 396.285156 C 549.820312 396.285156 550.878906 396.117188 551.914062 395.761719 L 615.757812 373.859375 C 618.203125 373.019531 620.175781 371.277344 621.3125 368.953125 C 622.449219 366.628906 622.613281 364.003906 621.773438 361.554688 L 609.570312 325.976562 C 607.835938 320.925781 602.316406 318.226562 597.265625 319.960938 L 533.425781 341.859375 C 528.375 343.59375 525.675781 349.113281 527.40625 354.164062 Z M 542.207031 388.851562 L 530 353.273438 C 529.484375 351.773438 529.523438 350.214844 529.996094 348.8125 L 563.925781 361.519531 L 544.941406 392.378906 C 543.707031 391.5625 542.722656 390.355469 542.207031 388.851562 Z M 614.867188 371.265625 L 551.027344 393.167969 C 549.855469 393.566406 548.652344 393.632812 547.515625 393.421875 L 566.542969 362.5 L 576.546875 366.246094 C 576.703125 366.304688 576.867188 366.332031 577.027344 366.332031 C 577.492188 366.332031 577.941406 366.09375 578.195312 365.679688 L 583.792969 356.582031 L 617.796875 369.3125 C 617.011719 370.195312 616.015625 370.871094 614.867188 371.265625 Z M 606.976562 326.867188 L 619.179688 362.445312 C 619.683594 363.910156 619.679688 365.464844 619.191406 366.90625 L 585.257812 354.199219 L 604.242188 323.339844 C 605.476562 324.15625 606.460938 325.363281 606.976562 326.867188 Z M 534.316406 344.453125 L 598.15625 322.554688 C 598.898438 322.296875 599.65625 322.175781 600.402344 322.175781 C 600.828125 322.175781 601.25 322.222656 601.664062 322.296875 L 576.449219 363.28125 L 531.386719 346.40625 C 532.15625 345.542969 533.144531 344.855469 534.316406 344.453125 Z M 550.867188 291.25 L 590.738281 315.347656 C 590.953125 315.476562 591.199219 315.546875 591.449219 315.546875 C 591.578125 315.546875 591.707031 315.527344 591.835938 315.488281 C 592.207031 315.378906 592.511719 315.121094 592.679688 314.773438 L 598.398438 303.015625 L 615.359375 307.191406 C 615.464844 307.21875 615.578125 307.230469 615.683594 307.230469 C 616.113281 307.230469 616.523438 307.03125 616.785156 306.679688 C 617.113281 306.234375 617.144531 305.636719 616.867188 305.164062 L 606.179688 287.011719 L 614.996094 268.878906 C 615.230469 268.402344 615.164062 267.832031 614.832031 267.417969 C 614.5 267.007812 613.960938 266.820312 613.445312 266.945312 L 552.367188 281.597656 C 550.242188 282.105469 548.714844 283.761719 548.382812 285.917969 C 548.046875 288.078125 549 290.117188 550.867188 291.25 Z M 590.871094 312.222656 L 559.988281 293.558594 L 595.675781 302.34375 Z M 603.800781 285.632812 L 561.398438 282.25 L 611.261719 270.289062 Z M 551.089844 286.339844 C 551.246094 285.347656 551.894531 284.605469 552.835938 284.316406 L 603.804688 288.382812 L 612.851562 303.75 L 552.144531 288.804688 C 551.332031 288.242188 550.9375 287.335938 551.089844 286.339844 Z M 675.265625 422.867188 C 675.019531 422.152344 675.402344 421.371094 676.117188 421.128906 C 676.832031 420.882812 677.613281 421.261719 677.859375 421.980469 L 683.296875 437.832031 C 683.542969 438.546875 683.160156 439.328125 682.445312 439.574219 C 682.296875 439.625 682.148438 439.648438 682 439.648438 C 681.429688 439.648438 680.898438 439.289062 680.703125 438.71875 Z M 673.414062 409.023438 L 674.707031 412.792969 C 674.953125 413.511719 674.574219 414.289062 673.855469 414.535156 C 673.707031 414.585938 673.558594 414.609375 673.410156 414.609375 C 672.839844 414.609375 672.308594 414.253906 672.113281 413.683594 L 670.820312 409.914062 C 668.992188 404.578125 665.777344 399.824219 661.53125 396.167969 C 660.957031 395.671875 660.890625 394.808594 661.386719 394.234375 C 661.878906 393.660156 662.746094 393.59375 663.320312 394.089844 C 667.9375 398.066406 671.425781 403.230469 673.414062 409.023438 Z M 651.492188 390.316406 C 644.640625 387.855469 637.367188 387.804688 630.46875 390.175781 L 627.324219 391.25 C 627.175781 391.300781 627.027344 391.328125 626.878906 391.328125 C 626.3125 391.328125 625.777344 390.96875 625.582031 390.398438 C 625.335938 389.683594 625.71875 388.902344 626.4375 388.65625 L 629.578125 387.582031 C 636.96875 385.046875 645.078125 385.101562 652.417969 387.734375 C 653.132812 387.992188 653.5 388.777344 653.246094 389.488281 C 652.988281 390.203125 652.203125 390.570312 651.492188 390.316406 Z M 610.53125 397.015625 L 589.101562 404.367188 C 588.953125 404.417969 588.800781 404.441406 588.65625 404.441406 C 588.085938 404.441406 587.554688 404.082031 587.359375 403.515625 C 587.113281 402.796875 587.496094 402.019531 588.210938 401.773438 L 609.640625 394.417969 C 610.355469 394.175781 611.136719 394.554688 611.382812 395.273438 C 611.628906 395.988281 611.246094 396.769531 610.53125 397.015625 Z M 573.59375 408.234375 C 573.835938 408.953125 573.457031 409.730469 572.738281 409.976562 L 554.410156 416.265625 C 552.457031 416.9375 550.4375 417.378906 548.402344 417.582031 C 548.355469 417.585938 548.308594 417.585938 548.265625 417.585938 C 547.570312 417.585938 546.972656 417.058594 546.902344 416.351562 C 546.828125 415.597656 547.375 414.925781 548.128906 414.851562 C 549.953125 414.671875 551.769531 414.273438 553.519531 413.671875 L 571.851562 407.382812 C 572.566406 407.140625 573.347656 407.519531 573.59375 408.234375 Z M 538.285156 413.753906 C 539 413.992188 539.390625 414.765625 539.152344 415.484375 C 538.960938 416.0625 538.425781 416.425781 537.851562 416.425781 C 537.707031 416.425781 537.5625 416.402344 537.417969 416.355469 C 531.097656 414.253906 525.835938 409.914062 522.601562 404.136719 C 522.230469 403.476562 522.464844 402.640625 523.128906 402.269531 C 523.789062 401.898438 524.625 402.136719 524.992188 402.796875 C 527.894531 407.976562 532.613281 411.867188 538.285156 413.753906 Z M 519.199219 391.511719 C 519.097656 384.695312 521.589844 378.164062 526.214844 373.125 C 526.726562 372.566406 527.59375 372.53125 528.152344 373.042969 C 528.707031 373.554688 528.746094 374.421875 528.234375 374.976562 C 524.085938 379.5 521.847656 385.355469 521.941406 391.472656 C 521.953125 392.230469 521.347656 392.851562 520.589844 392.863281 C 520.582031 392.863281 520.574219 392.863281 520.570312 392.863281 C 519.820312 392.863281 519.210938 392.261719 519.199219 391.511719 Z M 638.082031 334.253906 L 622.238281 339.6875 C 622.089844 339.738281 621.941406 339.761719 621.792969 339.761719 C 621.222656 339.761719 620.691406 339.40625 620.496094 338.835938 C 620.25 338.121094 620.632812 337.339844 621.347656 337.09375 L 637.195312 331.65625 C 637.910156 331.414062 638.691406 331.792969 638.9375 332.511719 C 639.183594 333.226562 638.800781 334.007812 638.082031 334.253906 Z M 648.726562 327.703125 L 655.765625 325.289062 C 660.066406 323.8125 663.816406 321.148438 666.605469 317.582031 C 667.070312 316.984375 667.933594 316.878906 668.527344 317.347656 C 669.125 317.8125 669.230469 318.675781 668.765625 319.273438 C 665.648438 323.257812 661.460938 326.234375 656.65625 327.882812 L 649.617188 330.296875 C 649.46875 330.347656 649.320312 330.371094 649.171875 330.371094 C 648.601562 330.371094 648.070312 330.011719 647.875 329.445312 C 647.628906 328.726562 648.011719 327.949219 648.726562 327.703125 Z M 658.777344 280.675781 C 659.136719 280.007812 659.96875 279.761719 660.636719 280.121094 C 666.417969 283.253906 670.78125 288.410156 672.917969 294.636719 C 674.191406 298.347656 674.613281 302.195312 674.171875 306.066406 C 674.09375 306.765625 673.5 307.28125 672.8125 307.28125 C 672.761719 307.28125 672.707031 307.277344 672.65625 307.273438 C 671.902344 307.1875 671.363281 306.507812 671.449219 305.753906 C 671.84375 302.292969 671.464844 298.851562 670.324219 295.527344 C 668.410156 289.953125 664.507812 285.335938 659.328125 282.53125 C 658.664062 282.171875 658.417969 281.339844 658.777344 280.675781 Z M 617.78125 287.332031 C 617.535156 286.617188 617.914062 285.835938 618.632812 285.589844 L 639.671875 278.375 C 642.398438 277.4375 645.230469 276.960938 648.085938 276.949219 C 648.089844 276.949219 648.089844 276.949219 648.089844 276.949219 C 648.847656 276.949219 649.460938 277.5625 649.460938 278.316406 C 649.464844 279.074219 648.851562 279.691406 648.09375 279.691406 C 645.539062 279.699219 643.003906 280.128906 640.5625 280.96875 L 619.519531 288.183594 C 619.375 288.234375 619.222656 288.257812 619.078125 288.257812 C 618.507812 288.257812 617.972656 287.902344 617.78125 287.332031 Z M 605.144531 421.855469 C 603.3125 416.523438 603.652344 410.875 606.101562 405.945312 C 606.4375 405.265625 607.257812 404.988281 607.9375 405.328125 C 608.617188 405.664062 608.890625 406.484375 608.554688 407.164062 C 606.4375 411.433594 606.148438 416.332031 607.734375 420.964844 C 608.582031 423.425781 609.890625 425.621094 611.628906 427.492188 C 612.144531 428.046875 612.113281 428.914062 611.558594 429.429688 C 611.296875 429.675781 610.960938 429.796875 610.628906 429.796875 C 610.257812 429.796875 609.894531 429.652344 609.625 429.359375 C 607.621094 427.207031 606.113281 424.679688 605.144531 421.855469 Z M 620.285156 432.574219 C 623.230469 433.269531 626.285156 433.125 629.121094 432.152344 C 634.335938 430.363281 638.261719 425.972656 639.628906 420.40625 C 639.808594 419.671875 640.550781 419.222656 641.285156 419.402344 C 642.019531 419.582031 642.46875 420.324219 642.289062 421.0625 C 640.699219 427.539062 636.109375 432.652344 630.011719 434.746094 C 628.0625 435.414062 626.027344 435.75 623.980469 435.75 C 622.535156 435.75 621.082031 435.582031 619.652344 435.242188 C 618.917969 435.070312 618.460938 434.332031 618.636719 433.59375 C 618.808594 432.859375 619.550781 432.402344 620.285156 432.574219 Z M 622.324219 395.414062 C 629.203125 395.207031 635.839844 398.847656 639.640625 404.917969 C 640.042969 405.558594 639.851562 406.402344 639.207031 406.804688 C 638.980469 406.949219 638.730469 407.015625 638.480469 407.015625 C 638.023438 407.015625 637.578125 406.789062 637.320312 406.371094 C 634.03125 401.125 628.316406 397.976562 622.40625 398.15625 C 621.660156 398.1875 621.015625 397.585938 620.996094 396.828125 C 620.972656 396.070312 621.566406 395.4375 622.324219 395.414062 Z M 622.324219 395.414062 " fill-opacity="1" fill-rule="nonzero"/></g></svg>