<svg xmlns="http://www.w3.org/2000/svg" xmlns:xlink="http://www.w3.org/1999/xlink" width="500" zoomAndPan="magnify" viewBox="0 0 375 374.999991" height="500" preserveAspectRatio="xMidYMid meet" version="1.0"><defs><g/><clipPath id="a62f2d96de"><path d="M 11.527344 18 L 243.351562 18 L 243.351562 284 L 11.527344 284 Z M 11.527344 18 " clip-rule="nonzero"/></clipPath><clipPath id="6474937d99"><path d="M 63.113281 238.964844 L 93.601562 238.964844 L 93.601562 269.453125 L 63.113281 269.453125 Z M 63.113281 238.964844 " clip-rule="nonzero"/></clipPath><clipPath id="6e1f19802e"><path d="M 78.359375 238.964844 C 69.941406 238.964844 63.113281 245.792969 63.113281 254.210938 C 63.113281 262.628906 69.941406 269.453125 78.359375 269.453125 C 86.777344 269.453125 93.601562 262.628906 93.601562 254.210938 C 93.601562 245.792969 86.777344 238.964844 78.359375 238.964844 Z M 78.359375 238.964844 " clip-rule="nonzero"/></clipPath><clipPath id="d9e1f06b32"><path d="M 68.621094 244.472656 L 88.097656 244.472656 L 88.097656 263.949219 L 68.621094 263.949219 Z M 68.621094 244.472656 " clip-rule="nonzero"/></clipPath><clipPath id="3a7e96ffd9"><path d="M 78.359375 244.472656 C 72.980469 244.472656 68.621094 248.832031 68.621094 254.210938 C 68.621094 259.585938 72.980469 263.949219 78.359375 263.949219 C 83.734375 263.949219 88.097656 259.585938 88.097656 254.210938 C 88.097656 248.832031 83.734375 244.472656 78.359375 244.472656 Z M 78.359375 244.472656 " clip-rule="nonzero"/></clipPath></defs><rect x="-37.5" width="450" fill="#ffffff" y="-37.499999" height="449.999989" fill-opacity="1"/><rect x="-37.5" width="450" fill="#ff0000" y="-37.499999" height="449.999989" fill-opacity="1"/><g fill="#1c191a" fill-opacity="1"><g transform="translate(130.003546, 275.851299)"><g><path d="M 57.8125 -58.875 C 61.019531 -57.300781 62.625 -55.5625 62.625 -53.65625 C 62.625 -52.789062 62.21875 -51.488281 61.40625 -49.75 L 38.890625 -4.078125 C 38.296875 -2.878906 37.382812 -1.910156 36.15625 -1.171875 C 34.9375 -0.441406 33.675781 -0.078125 32.375 -0.078125 L 31.5625 -0.078125 C 30.195312 -0.078125 28.898438 -0.441406 27.671875 -1.171875 C 26.453125 -1.910156 25.546875 -2.878906 24.953125 -4.078125 L 2.453125 -49.75 C 1.628906 -51.488281 1.21875 -52.789062 1.21875 -53.65625 C 1.21875 -55.5625 2.820312 -57.300781 6.03125 -58.875 C 7.820312 -59.800781 9.191406 -60.265625 10.140625 -60.265625 C 11.097656 -60.265625 11.820312 -60.15625 12.3125 -59.9375 C 12.800781 -59.71875 13.265625 -59.335938 13.703125 -58.796875 C 14.191406 -58.140625 14.640625 -57.414062 15.046875 -56.625 C 15.453125 -55.84375 16.5 -53.585938 18.1875 -49.859375 C 19.875 -46.140625 21.679688 -42.1875 23.609375 -38 C 25.535156 -33.8125 27.351562 -29.851562 29.0625 -26.125 C 30.78125 -22.40625 31.75 -20.328125 31.96875 -19.890625 L 48.28125 -55.609375 C 48.707031 -56.648438 49.085938 -57.46875 49.421875 -58.0625 C 50.398438 -59.53125 51.59375 -60.265625 53 -60.265625 C 54.414062 -60.265625 56.019531 -59.800781 57.8125 -58.875 Z M 57.8125 -58.875 "/></g></g></g><g fill="#1c191a" fill-opacity="1"><g transform="translate(195.071672, 275.851299)"><g><path d="M 2.03125 -21.453125 C 2.03125 -27.972656 4.3125 -33.351562 8.875 -37.59375 C 13.445312 -41.832031 18.671875 -43.953125 24.546875 -43.953125 C 30.421875 -43.953125 35.613281 -41.84375 40.125 -37.625 C 44.632812 -33.414062 46.890625 -28.050781 46.890625 -21.53125 C 46.890625 -17.019531 45.71875 -13.007812 43.375 -9.5 C 41.039062 -5.988281 38.203125 -3.40625 34.859375 -1.75 C 31.515625 -0.09375 28.046875 0.734375 24.453125 0.734375 C 20.867188 0.734375 17.390625 -0.144531 14.015625 -1.90625 C 10.648438 -3.675781 7.8125 -6.285156 5.5 -9.734375 C 3.1875 -13.191406 2.03125 -17.097656 2.03125 -21.453125 Z M 19.078125 -15.609375 C 20.816406 -14.285156 22.582031 -13.625 24.375 -13.625 C 26.175781 -13.625 27.972656 -14.300781 29.765625 -15.65625 C 31.554688 -17.019531 32.453125 -19.03125 32.453125 -21.6875 C 32.453125 -24.351562 31.609375 -26.335938 29.921875 -27.640625 C 28.242188 -28.941406 26.425781 -29.59375 24.46875 -29.59375 C 22.507812 -29.59375 20.6875 -28.914062 19 -27.5625 C 17.3125 -26.207031 16.46875 -24.207031 16.46875 -21.5625 C 16.46875 -18.925781 17.335938 -16.941406 19.078125 -15.609375 Z M 19.078125 -15.609375 "/></g></g></g><g fill="#1c191a" fill-opacity="1"><g transform="translate(245.218168, 275.851299)"><g><path d="M 3.265625 -35.796875 C 3.265625 -37.046875 3.300781 -37.984375 3.375 -38.609375 C 3.457031 -39.234375 3.691406 -39.953125 4.078125 -40.765625 C 4.835938 -42.179688 6.957031 -42.890625 10.4375 -42.890625 C 13.050781 -42.890625 14.898438 -42.425781 15.984375 -41.5 C 16.910156 -40.738281 17.398438 -39.570312 17.453125 -38 C 17.503906 -37.457031 17.53125 -36.671875 17.53125 -35.640625 L 17.53125 -7.09375 C 17.53125 -5.84375 17.488281 -4.90625 17.40625 -4.28125 C 17.320312 -3.65625 17.066406 -2.9375 16.640625 -2.125 C 15.929688 -0.707031 13.835938 0 10.359375 0 C 6.929688 0 4.835938 -0.734375 4.078125 -2.203125 C 3.691406 -3.015625 3.457031 -3.71875 3.375 -4.3125 C 3.300781 -4.914062 3.265625 -5.867188 3.265625 -7.171875 Z M 16.671875 -50.921875 C 16.265625 -50.140625 15.546875 -49.582031 14.515625 -49.25 C 13.484375 -48.925781 12.109375 -48.765625 10.390625 -48.765625 C 8.679688 -48.765625 7.3125 -48.925781 6.28125 -49.25 C 5.25 -49.582031 4.523438 -50.15625 4.109375 -50.96875 C 3.703125 -51.78125 3.457031 -52.5 3.375 -53.125 C 3.300781 -53.75 3.265625 -54.6875 3.265625 -55.9375 C 3.265625 -57.1875 3.300781 -58.125 3.375 -58.75 C 3.457031 -59.375 3.691406 -60.066406 4.078125 -60.828125 C 4.835938 -62.296875 6.957031 -63.03125 10.4375 -63.03125 C 13.863281 -63.03125 15.929688 -62.296875 16.640625 -60.828125 C 17.066406 -60.015625 17.320312 -59.296875 17.40625 -58.671875 C 17.488281 -58.046875 17.53125 -57.109375 17.53125 -55.859375 C 17.53125 -54.609375 17.488281 -53.671875 17.40625 -53.046875 C 17.320312 -52.421875 17.078125 -51.710938 16.671875 -50.921875 Z M 16.671875 -50.921875 "/></g></g></g><g fill="#1c191a" fill-opacity="1"><g transform="translate(267.233716, 275.851299)"><g><path d="M 16.71875 -21.484375 C 16.71875 -19.171875 17.476562 -17.375 19 -16.09375 C 20.519531 -14.820312 22.132812 -14.1875 23.84375 -14.1875 C 25.5625 -14.1875 27.164062 -14.6875 28.65625 -15.6875 C 30.15625 -16.695312 31.367188 -17.203125 32.296875 -17.203125 C 33.921875 -17.203125 35.90625 -15.765625 38.25 -12.890625 C 39.5 -11.304688 40.125 -9.890625 40.125 -8.640625 C 40.125 -6.578125 38.628906 -4.648438 35.640625 -2.859375 C 32.535156 -0.679688 28.726562 0.40625 24.21875 0.40625 C 19.164062 0.40625 14.300781 -1.414062 9.625 -5.0625 C 7.394531 -6.800781 5.570312 -9.125 4.15625 -12.03125 C 2.738281 -14.9375 2.03125 -18.140625 2.03125 -21.640625 C 2.03125 -25.148438 2.738281 -28.332031 4.15625 -31.1875 C 5.570312 -34.039062 7.394531 -36.335938 9.625 -38.078125 C 14.132812 -41.671875 18.945312 -43.46875 24.0625 -43.46875 C 26.125 -43.46875 28.132812 -43.179688 30.09375 -42.609375 C 32.050781 -42.035156 33.488281 -41.476562 34.40625 -40.9375 L 35.71875 -40.125 C 36.695312 -39.46875 37.457031 -38.953125 38 -38.578125 C 39.414062 -37.484375 40.125 -36.242188 40.125 -34.859375 C 40.125 -33.472656 39.550781 -31.910156 38.40625 -30.171875 C 36.445312 -27.179688 34.570312 -25.6875 32.78125 -25.6875 C 31.75 -25.6875 30.28125 -26.285156 28.375 -27.484375 C 27.394531 -28.410156 25.992188 -28.875 24.171875 -28.875 C 22.359375 -28.875 20.660156 -28.21875 19.078125 -26.90625 C 17.503906 -25.601562 16.71875 -23.796875 16.71875 -21.484375 Z M 16.71875 -21.484375 "/></g></g></g><g fill="#1c191a" fill-opacity="1"><g transform="translate(310.612474, 275.851299)"><g><path d="M 44.6875 -26.625 C 44.6875 -23.28125 43.859375 -20.804688 42.203125 -19.203125 C 40.546875 -17.597656 38.710938 -16.796875 36.703125 -16.796875 L 17.375 -16.796875 C 17.375 -15.273438 18.269531 -14 20.0625 -12.96875 C 21.851562 -11.9375 23.644531 -11.421875 25.4375 -11.421875 C 28.59375 -11.421875 31.066406 -11.742188 32.859375 -12.390625 L 33.765625 -12.71875 C 35.066406 -13.320312 36.148438 -13.625 37.015625 -13.625 C 38.753906 -13.625 40.25 -12.398438 41.5 -9.953125 C 42.207031 -8.484375 42.5625 -7.234375 42.5625 -6.203125 C 42.5625 -1.359375 36.773438 1.0625 25.203125 1.0625 C 21.171875 1.0625 17.59375 0.367188 14.46875 -1.015625 C 11.34375 -2.398438 8.910156 -4.238281 7.171875 -6.53125 C 3.742188 -10.925781 2.03125 -15.84375 2.03125 -21.28125 C 2.03125 -28.132812 4.242188 -33.613281 8.671875 -37.71875 C 13.109375 -41.820312 18.644531 -43.875 25.28125 -43.875 C 32.832031 -43.875 38.378906 -41.207031 41.921875 -35.875 C 43.765625 -33.050781 44.6875 -29.96875 44.6875 -26.625 Z M 27.484375 -24.21875 C 29.546875 -24.21875 30.578125 -25.085938 30.578125 -26.828125 C 30.578125 -28.078125 30.097656 -29.082031 29.140625 -29.84375 C 28.191406 -30.601562 26.832031 -30.984375 25.0625 -30.984375 C 23.300781 -30.984375 21.550781 -30.265625 19.8125 -28.828125 C 18.070312 -27.390625 17.203125 -25.851562 17.203125 -24.21875 Z M 27.484375 -24.21875 "/></g></g></g><g fill="#1c191a" fill-opacity="1"><g transform="translate(129.921515, 347.101295)"><g><path d="M 46.5625 -42 C 49.382812 -40.3125 50.796875 -38.515625 50.796875 -36.609375 C 50.796875 -35.523438 50.253906 -34.03125 49.171875 -32.125 L 32.296875 -3.1875 C 31.753906 -2.257812 30.882812 -1.425781 29.6875 -0.6875 C 28.488281 0.0390625 27.300781 0.40625 26.125 0.40625 C 24.957031 0.40625 23.84375 0.117188 22.78125 -0.453125 C 21.726562 -1.023438 20.984375 -1.609375 20.546875 -2.203125 L 19.8125 -3.09375 L 2.859375 -32.125 C 1.765625 -33.925781 1.21875 -35.394531 1.21875 -36.53125 C 1.21875 -38.488281 2.632812 -40.3125 5.46875 -42 C 7.53125 -43.195312 9.160156 -43.796875 10.359375 -43.796875 C 11.554688 -43.796875 12.492188 -43.425781 13.171875 -42.6875 C 13.847656 -41.957031 14.566406 -40.859375 15.328125 -39.390625 L 26.015625 -18.84375 L 36.703125 -39.390625 C 37.296875 -40.421875 37.738281 -41.164062 38.03125 -41.625 C 38.332031 -42.09375 38.8125 -42.554688 39.46875 -43.015625 C 40.125 -43.472656 40.992188 -43.703125 42.078125 -43.703125 C 43.160156 -43.703125 44.65625 -43.132812 46.5625 -42 Z M 46.5625 -42 "/></g></g></g><g fill="#1c191a" fill-opacity="1"><g transform="translate(183.166487, 347.101295)"><g><path d="M 44.6875 -26.625 C 44.6875 -23.28125 43.859375 -20.804688 42.203125 -19.203125 C 40.546875 -17.597656 38.710938 -16.796875 36.703125 -16.796875 L 17.375 -16.796875 C 17.375 -15.273438 18.269531 -14 20.0625 -12.96875 C 21.851562 -11.9375 23.644531 -11.421875 25.4375 -11.421875 C 28.59375 -11.421875 31.066406 -11.742188 32.859375 -12.390625 L 33.765625 -12.71875 C 35.066406 -13.320312 36.148438 -13.625 37.015625 -13.625 C 38.753906 -13.625 40.25 -12.398438 41.5 -9.953125 C 42.207031 -8.484375 42.5625 -7.234375 42.5625 -6.203125 C 42.5625 -1.359375 36.773438 1.0625 25.203125 1.0625 C 21.171875 1.0625 17.59375 0.367188 14.46875 -1.015625 C 11.34375 -2.398438 8.910156 -4.238281 7.171875 -6.53125 C 3.742188 -10.925781 2.03125 -15.84375 2.03125 -21.28125 C 2.03125 -28.132812 4.242188 -33.613281 8.671875 -37.71875 C 13.109375 -41.820312 18.644531 -43.875 25.28125 -43.875 C 32.832031 -43.875 38.378906 -41.207031 41.921875 -35.875 C 43.765625 -33.050781 44.6875 -29.96875 44.6875 -26.625 Z M 27.484375 -24.21875 C 29.546875 -24.21875 30.578125 -25.085938 30.578125 -26.828125 C 30.578125 -28.078125 30.097656 -29.082031 29.140625 -29.84375 C 28.191406 -30.601562 26.832031 -30.984375 25.0625 -30.984375 C 23.300781 -30.984375 21.550781 -30.265625 19.8125 -28.828125 C 18.070312 -27.390625 17.203125 -25.851562 17.203125 -24.21875 Z M 27.484375 -24.21875 "/></g></g></g><g fill="#1c191a" fill-opacity="1"><g transform="translate(231.111426, 347.101295)"><g><path d="M 32.453125 -42.484375 C 33.484375 -42.160156 34.335938 -41.601562 35.015625 -40.8125 C 35.703125 -40.019531 36.046875 -38.753906 36.046875 -37.015625 C 36.046875 -35.273438 35.523438 -33.375 34.484375 -31.3125 C 33.453125 -29.25 31.960938 -28.21875 30.015625 -28.21875 C 29.035156 -28.21875 28.09375 -28.429688 27.1875 -28.859375 C 26.289062 -29.296875 25.109375 -29.515625 23.640625 -29.515625 C 22.179688 -29.515625 20.8125 -29 19.53125 -27.96875 C 18.25 -26.9375 17.609375 -25.6875 17.609375 -24.21875 L 17.609375 -7.09375 C 17.609375 -5.84375 17.566406 -4.90625 17.484375 -4.28125 C 17.410156 -3.65625 17.15625 -2.9375 16.71875 -2.125 C 15.90625 -0.707031 13.785156 0 10.359375 0 C 7.742188 0 5.867188 -0.460938 4.734375 -1.390625 C 3.859375 -2.148438 3.367188 -3.316406 3.265625 -4.890625 C 3.265625 -5.429688 3.265625 -6.21875 3.265625 -7.25 L 3.265625 -35.875 C 3.265625 -37.125 3.300781 -38.0625 3.375 -38.6875 C 3.457031 -39.3125 3.691406 -40.003906 4.078125 -40.765625 C 4.835938 -42.234375 6.957031 -42.96875 10.4375 -42.96875 C 13.695312 -42.96875 15.734375 -42.34375 16.546875 -41.09375 C 17.148438 -40.226562 17.453125 -39.332031 17.453125 -38.40625 C 17.722656 -38.789062 18.113281 -39.253906 18.625 -39.796875 C 19.144531 -40.335938 20.25 -41.070312 21.9375 -42 C 23.625 -42.925781 25.101562 -43.390625 26.375 -43.390625 C 27.65625 -43.390625 28.726562 -43.316406 29.59375 -43.171875 C 30.46875 -43.035156 31.421875 -42.804688 32.453125 -42.484375 Z M 32.453125 -42.484375 "/></g></g></g><g fill="#1c191a" fill-opacity="1"><g transform="translate(269.597847, 347.101295)"><g><path d="M 3.59375 -3.828125 C 2.550781 -4.484375 2.03125 -5.515625 2.03125 -6.921875 C 2.03125 -8.335938 3.066406 -10.488281 5.140625 -13.375 C 5.734375 -14.300781 6.695312 -14.765625 8.03125 -14.765625 C 9.363281 -14.765625 11.171875 -14.097656 13.453125 -12.765625 C 15.734375 -11.429688 17.800781 -10.765625 19.65625 -10.765625 C 22.96875 -10.765625 24.625 -11.414062 24.625 -12.71875 C 24.625 -13.75 22.800781 -14.507812 19.15625 -15 C 15.738281 -15.488281 12.34375 -16.769531 8.96875 -18.84375 C 7.394531 -19.820312 6.085938 -21.351562 5.046875 -23.4375 C 4.015625 -25.53125 3.5 -28.019531 3.5 -30.90625 C 3.5 -39.5 9.398438 -43.796875 21.203125 -43.796875 C 25.054688 -43.796875 29.023438 -42.867188 33.109375 -41.015625 C 35.015625 -40.148438 35.96875 -39.0625 35.96875 -37.75 C 35.96875 -36.445312 35.367188 -34.84375 34.171875 -32.9375 C 32.972656 -31.039062 31.75 -30.09375 30.5 -30.09375 C 29.84375 -30.09375 28.628906 -30.5 26.859375 -31.3125 C 25.097656 -32.125 23.1875 -32.53125 21.125 -32.53125 C 17.914062 -32.53125 16.3125 -31.9375 16.3125 -30.75 C 16.3125 -29.113281 18.160156 -28.050781 21.859375 -27.5625 C 25.441406 -27.175781 28.921875 -26.144531 32.296875 -24.46875 C 33.867188 -23.707031 35.1875 -22.390625 36.25 -20.515625 C 37.3125 -18.640625 37.84375 -16.285156 37.84375 -13.453125 C 37.84375 -10.628906 37.3125 -8.222656 36.25 -6.234375 C 35.1875 -4.253906 33.703125 -2.773438 31.796875 -1.796875 C 28.316406 -0.109375 23.953125 0.734375 18.703125 0.734375 C 13.460938 0.734375 8.425781 -0.785156 3.59375 -3.828125 Z M 3.59375 -3.828125 "/></g></g></g><g fill="#1c191a" fill-opacity="1"><g transform="translate(310.693509, 347.101295)"><g><path d="M 44.6875 -26.625 C 44.6875 -23.28125 43.859375 -20.804688 42.203125 -19.203125 C 40.546875 -17.597656 38.710938 -16.796875 36.703125 -16.796875 L 17.375 -16.796875 C 17.375 -15.273438 18.269531 -14 20.0625 -12.96875 C 21.851562 -11.9375 23.644531 -11.421875 25.4375 -11.421875 C 28.59375 -11.421875 31.066406 -11.742188 32.859375 -12.390625 L 33.765625 -12.71875 C 35.066406 -13.320312 36.148438 -13.625 37.015625 -13.625 C 38.753906 -13.625 40.25 -12.398438 41.5 -9.953125 C 42.207031 -8.484375 42.5625 -7.234375 42.5625 -6.203125 C 42.5625 -1.359375 36.773438 1.0625 25.203125 1.0625 C 21.171875 1.0625 17.59375 0.367188 14.46875 -1.015625 C 11.34375 -2.398438 8.910156 -4.238281 7.171875 -6.53125 C 3.742188 -10.925781 2.03125 -15.84375 2.03125 -21.28125 C 2.03125 -28.132812 4.242188 -33.613281 8.671875 -37.71875 C 13.109375 -41.820312 18.644531 -43.875 25.28125 -43.875 C 32.832031 -43.875 38.378906 -41.207031 41.921875 -35.875 C 43.765625 -33.050781 44.6875 -29.96875 44.6875 -26.625 Z M 27.484375 -24.21875 C 29.546875 -24.21875 30.578125 -25.085938 30.578125 -26.828125 C 30.578125 -28.078125 30.097656 -29.082031 29.140625 -29.84375 C 28.191406 -30.601562 26.832031 -30.984375 25.0625 -30.984375 C 23.300781 -30.984375 21.550781 -30.265625 19.8125 -28.828125 C 18.070312 -27.390625 17.203125 -25.851562 17.203125 -24.21875 Z M 27.484375 -24.21875 "/></g></g></g><g clip-path="url(#a62f2d96de)"><path fill="#1c191a" d="M 11.367188 43.414062 L 11.367188 118.371094 C 11.367188 136.839844 31.359375 148.378906 47.351562 139.144531 L 57.128906 133.496094 C 48.042969 111.289062 55.308594 85.464844 74.9375 71.34375 C 78.125 69.046875 82.570312 69.765625 84.871094 72.949219 C 85.007812 73.144531 85.132812 73.347656 85.25 73.554688 L 85.269531 73.554688 C 87.097656 76.726562 86.222656 80.765625 83.246094 82.898438 C 67.503906 94.226562 62.65625 115.554688 72.605469 132.789062 C 82.554688 150.023438 103.464844 156.480469 121.148438 148.507812 C 124.542969 146.984375 128.542969 148.332031 130.320312 151.601562 C 130.410156 151.761719 130.488281 151.921875 130.5625 152.085938 C 132.175781 155.671875 130.570312 159.886719 126.988281 161.5 C 104.9375 171.4375 78.933594 164.800781 64.242188 145.832031 L 52.382812 152.683594 C 27 167.34375 11.367188 194.429688 11.367188 223.742188 L 11.367188 283.808594 L 86.6875 283.808594 C 97.074219 283.808594 105.492188 275.386719 105.492188 265.003906 L 105.492188 205.273438 L 130.597656 205.273438 C 153.710938 205.273438 173.640625 201.492188 190.386719 193.941406 C 207.367188 186.160156 220.453125 175.3125 229.652344 161.398438 C 238.851562 147.480469 243.453125 130.972656 243.453125 111.871094 C 243.453125 92.765625 238.851562 76.257812 229.652344 62.34375 C 220.453125 48.191406 207.367188 37.328125 190.386719 29.777344 C 173.640625 22.230469 153.710938 18.464844 130.597656 18.464844 L 36.316406 18.464844 C 22.535156 18.464844 11.367188 29.632812 11.367188 43.414062 Z M 155.699219 56.605469 C 165.128906 57.265625 174.054688 62.453125 179.15625 71.289062 C 187.320312 85.433594 182.519531 103.394531 168.378906 111.558594 L 161.675781 115.410156 L 152.949219 100.3125 C 152.015625 98.691406 149.964844 98.132812 148.339844 99.070312 C 146.710938 100.007812 146.160156 102.078125 147.09375 103.699219 L 155.820312 118.796875 L 147.058594 123.859375 L 138.335938 108.742188 C 137.398438 107.121094 135.34375 106.578125 133.722656 107.515625 C 132.101562 108.453125 131.542969 110.507812 132.480469 112.128906 L 141.203125 127.226562 L 132.445312 132.289062 L 123.738281 117.191406 C 122.800781 115.570312 120.730469 115.011719 119.109375 115.945312 C 117.488281 116.882812 116.945312 118.953125 117.882812 120.574219 L 126.589844 135.675781 L 119.902344 139.527344 C 105.761719 147.691406 87.800781 142.890625 79.636719 128.746094 C 71.472656 114.605469 76.292969 96.644531 90.433594 88.480469 L 97.117188 84.625 L 105.84375 99.726562 C 106.777344 101.347656 108.832031 101.90625 110.453125 100.96875 C 112.074219 100.03125 112.632812 97.960938 111.699219 96.339844 L 102.976562 81.242188 L 111.734375 76.179688 L 120.457031 91.292969 C 121.394531 92.917969 123.449219 93.457031 125.070312 92.519531 C 126.691406 91.585938 127.25 89.535156 126.3125 87.910156 L 117.589844 72.8125 L 126.347656 67.75 L 135.070312 82.847656 C 136.007812 84.46875 138.0625 85.027344 139.683594 84.089844 C 141.304688 83.15625 141.863281 81.082031 140.925781 79.460938 L 132.203125 64.363281 L 138.890625 60.492188 C 144.191406 57.433594 150.039062 56.210938 155.699219 56.605469 Z M 155.699219 56.605469 " fill-opacity="1" fill-rule="nonzero"/></g><g clip-path="url(#6474937d99)"><g clip-path="url(#6e1f19802e)"><path fill="#ff0000" d="M 63.113281 238.964844 L 93.601562 238.964844 L 93.601562 269.453125 L 63.113281 269.453125 Z M 63.113281 238.964844 " fill-opacity="1" fill-rule="nonzero"/></g></g><g clip-path="url(#d9e1f06b32)"><g clip-path="url(#3a7e96ffd9)"><path fill="#1c191a" d="M 68.621094 244.472656 L 88.097656 244.472656 L 88.097656 263.949219 L 68.621094 263.949219 Z M 68.621094 244.472656 " fill-opacity="1" fill-rule="nonzero"/></g></g><g fill="#1c191a" fill-opacity="1"><g transform="translate(146.641402, 368.772809)"><g><path d="M 0.5625 -5.828125 L 3.453125 -5.828125 L 3.453125 -4.765625 L 0.5625 -4.765625 Z M 0.5625 -5.828125 "/></g></g></g><g fill="#1c191a" fill-opacity="1"><g transform="translate(153.682353, 368.772809)"><g/></g></g><g fill="#1c191a" fill-opacity="1"><g transform="translate(159.057823, 368.772809)"><g><path d="M 4.515625 -0.015625 L 3.375 -0.015625 L 1.625 -8.453125 L 1.625 0 L 0.59375 0 L 0.59375 -10.59375 L 2.234375 -10.59375 L 3.984375 -2.140625 L 5.65625 -10.59375 L 7.3125 -10.59375 L 7.3125 0 L 6.1875 0 L 6.1875 -8.53125 Z M 4.515625 -0.015625 "/></g></g></g><g fill="#1c191a" fill-opacity="1"><g transform="translate(170.005077, 368.772809)"><g><path d="M 1.796875 -2.140625 L 1.390625 0 L 0.296875 0 L 2.328125 -10.59375 L 4.046875 -10.59375 L 6.078125 0 L 4.890625 0 L 4.484375 -2.140625 Z M 1.953125 -3.15625 L 4.3125 -3.15625 L 3.125 -9.265625 Z M 1.953125 -3.15625 "/></g></g></g><g fill="#1c191a" fill-opacity="1"><g transform="translate(179.423126, 368.772809)"><g><path d="M 2.40625 -4.609375 L 1.78125 -3.5625 L 1.78125 0 L 0.609375 0 L 0.609375 -10.59375 L 1.78125 -10.59375 L 1.78125 -5.484375 L 4.609375 -10.59375 L 5.796875 -10.59375 L 3.125 -5.765625 L 5.890625 0 L 4.671875 0 Z M 2.40625 -4.609375 "/></g></g></g><g fill="#1c191a" fill-opacity="1"><g transform="translate(188.644337, 368.772809)"><g><path d="M 4.375 -5.90625 L 4.375 -4.84375 L 1.78125 -4.84375 L 1.78125 -1.078125 L 4.96875 -1.078125 L 4.96875 0 L 0.609375 0 L 0.609375 -10.59375 L 4.96875 -10.59375 L 4.96875 -9.515625 L 1.78125 -9.515625 L 1.78125 -5.90625 Z M 4.375 -5.90625 "/></g></g></g><g fill="#1c191a" fill-opacity="1"><g transform="translate(197.123662, 368.772809)"><g/></g></g><g fill="#1c191a" fill-opacity="1"><g transform="translate(202.499135, 368.772809)"><g><path d="M 2.484375 -3.796875 L 0.25 -10.59375 L 1.46875 -10.59375 L 3.125 -5.390625 L 4.78125 -10.59375 L 5.90625 -10.59375 L 3.65625 -3.796875 L 3.65625 0 L 2.484375 0 Z M 2.484375 -3.796875 "/></g></g></g><g fill="#1c191a" fill-opacity="1"><g transform="translate(211.674921, 368.772809)"><g><path d="M 0.515625 -8.046875 C 0.515625 -8.859375 0.710938 -9.503906 1.109375 -9.984375 C 1.503906 -10.460938 2.113281 -10.703125 2.9375 -10.703125 C 3.75 -10.703125 4.359375 -10.460938 4.765625 -9.984375 C 5.171875 -9.503906 5.375 -8.859375 5.375 -8.046875 L 5.375 -2.5625 C 5.375 -1.75 5.171875 -1.097656 4.765625 -0.609375 C 4.359375 -0.128906 3.75 0.109375 2.9375 0.109375 C 2.113281 0.109375 1.503906 -0.128906 1.109375 -0.609375 C 0.710938 -1.097656 0.515625 -1.75 0.515625 -2.5625 Z M 1.6875 -2.5 C 1.6875 -2.007812 1.785156 -1.628906 1.984375 -1.359375 C 2.191406 -1.097656 2.507812 -0.96875 2.9375 -0.96875 C 3.375 -0.96875 3.691406 -1.097656 3.890625 -1.359375 C 4.085938 -1.628906 4.1875 -2.007812 4.1875 -2.5 L 4.1875 -8.09375 C 4.1875 -8.582031 4.085938 -8.957031 3.890625 -9.21875 C 3.691406 -9.488281 3.375 -9.625 2.9375 -9.625 C 2.507812 -9.625 2.191406 -9.488281 1.984375 -9.21875 C 1.785156 -8.957031 1.6875 -8.582031 1.6875 -8.09375 Z M 1.6875 -2.5 "/></g></g></g><g fill="#1c191a" fill-opacity="1"><g transform="translate(220.593324, 368.772809)"><g><path d="M 1.71875 -2.5 C 1.71875 -2.007812 1.816406 -1.628906 2.015625 -1.359375 C 2.210938 -1.097656 2.53125 -0.96875 2.96875 -0.96875 C 3.394531 -0.96875 3.703125 -1.097656 3.890625 -1.359375 C 4.085938 -1.628906 4.1875 -2.007812 4.1875 -2.5 L 4.1875 -10.59375 L 5.296875 -10.59375 L 5.296875 -2.5625 C 5.296875 -1.75 5.101562 -1.097656 4.71875 -0.609375 C 4.34375 -0.117188 3.742188 0.125 2.921875 0.125 C 2.109375 0.125 1.507812 -0.117188 1.125 -0.609375 C 0.75 -1.097656 0.5625 -1.75 0.5625 -2.5625 L 0.5625 -10.59375 L 1.71875 -10.59375 Z M 1.71875 -2.5 "/></g></g></g><g fill="#1c191a" fill-opacity="1"><g transform="translate(229.481446, 368.772809)"><g><path d="M 2.96875 -10.59375 C 3.800781 -10.59375 4.398438 -10.382812 4.765625 -9.96875 C 5.140625 -9.5625 5.328125 -8.960938 5.328125 -8.171875 L 5.328125 -7.3125 C 5.328125 -6.726562 5.21875 -6.253906 5 -5.890625 C 4.789062 -5.523438 4.460938 -5.269531 4.015625 -5.125 C 4.492188 -4.988281 4.832031 -4.726562 5.03125 -4.34375 C 5.238281 -3.96875 5.34375 -3.492188 5.34375 -2.921875 L 5.34375 -1.265625 C 5.34375 -1.035156 5.351562 -0.8125 5.375 -0.59375 C 5.394531 -0.375 5.457031 -0.175781 5.5625 0 L 4.359375 0 C 4.285156 -0.15625 4.234375 -0.316406 4.203125 -0.484375 C 4.171875 -0.660156 4.15625 -0.925781 4.15625 -1.28125 L 4.15625 -2.953125 C 4.15625 -3.546875 4.019531 -3.957031 3.75 -4.1875 C 3.488281 -4.414062 3.113281 -4.53125 2.625 -4.53125 L 1.78125 -4.53125 L 1.78125 0 L 0.609375 0 L 0.609375 -10.59375 Z M 2.671875 -5.609375 C 3.140625 -5.609375 3.503906 -5.703125 3.765625 -5.890625 C 4.023438 -6.085938 4.15625 -6.476562 4.15625 -7.0625 L 4.15625 -8.0625 C 4.15625 -8.550781 4.0625 -8.914062 3.875 -9.15625 C 3.695312 -9.394531 3.382812 -9.515625 2.9375 -9.515625 L 1.78125 -9.515625 L 1.78125 -5.609375 Z M 2.671875 -5.609375 "/></g></g></g><g fill="#1c191a" fill-opacity="1"><g transform="translate(238.475552, 368.772809)"><g/></g></g><g fill="#1c191a" fill-opacity="1"><g transform="translate(243.851025, 368.772809)"><g><path d="M 0.609375 0 L 0.609375 -10.59375 L 1.78125 -10.59375 L 1.78125 -1.078125 L 4.8125 -1.078125 L 4.8125 0 Z M 0.609375 0 "/></g></g></g><g fill="#1c191a" fill-opacity="1"><g transform="translate(251.982108, 368.772809)"><g><path d="M 1.78125 -10.59375 L 1.78125 0 L 0.609375 0 L 0.609375 -10.59375 Z M 1.78125 -10.59375 "/></g></g></g><g fill="#1c191a" fill-opacity="1"><g transform="translate(257.403003, 368.772809)"><g><path d="M 4.21875 -5.65625 L 4.21875 -4.59375 L 1.78125 -4.59375 L 1.78125 0 L 0.609375 0 L 0.609375 -10.59375 L 4.8125 -10.59375 L 4.8125 -9.515625 L 1.78125 -9.515625 L 1.78125 -5.65625 Z M 4.21875 -5.65625 "/></g></g></g><g fill="#1c191a" fill-opacity="1"><g transform="translate(265.579508, 368.772809)"><g><path d="M 4.375 -5.90625 L 4.375 -4.84375 L 1.78125 -4.84375 L 1.78125 -1.078125 L 4.96875 -1.078125 L 4.96875 0 L 0.609375 0 L 0.609375 -10.59375 L 4.96875 -10.59375 L 4.96875 -9.515625 L 1.78125 -9.515625 L 1.78125 -5.90625 Z M 4.375 -5.90625 "/></g></g></g><g fill="#1c191a" fill-opacity="1"><g transform="translate(274.058836, 368.772809)"><g/></g></g><g fill="#1c191a" fill-opacity="1"><g transform="translate(279.434309, 368.772809)"><g><path d="M 2.984375 -10.59375 C 3.804688 -10.59375 4.394531 -10.398438 4.75 -10.015625 C 5.101562 -9.628906 5.28125 -9.039062 5.28125 -8.25 L 5.28125 -7.75 C 5.28125 -7.1875 5.1875 -6.726562 5 -6.375 C 4.820312 -6.03125 4.503906 -5.785156 4.046875 -5.640625 C 4.554688 -5.503906 4.921875 -5.238281 5.140625 -4.84375 C 5.359375 -4.445312 5.46875 -3.957031 5.46875 -3.375 L 5.46875 -2.484375 C 5.46875 -1.679688 5.269531 -1.066406 4.875 -0.640625 C 4.476562 -0.210938 3.867188 0 3.046875 0 L 0.609375 0 L 0.609375 -10.59375 Z M 2.6875 -6.109375 C 3.164062 -6.109375 3.523438 -6.203125 3.765625 -6.390625 C 4.003906 -6.578125 4.125 -6.953125 4.125 -7.515625 L 4.125 -8.125 C 4.125 -8.601562 4.035156 -8.953125 3.859375 -9.171875 C 3.679688 -9.398438 3.378906 -9.515625 2.953125 -9.515625 L 1.78125 -9.515625 L 1.78125 -6.109375 Z M 3.046875 -1.078125 C 3.878906 -1.078125 4.296875 -1.554688 4.296875 -2.515625 L 4.296875 -3.453125 C 4.296875 -4.046875 4.175781 -4.457031 3.9375 -4.6875 C 3.707031 -4.914062 3.332031 -5.03125 2.8125 -5.03125 L 1.78125 -5.03125 L 1.78125 -1.078125 Z M 3.046875 -1.078125 "/></g></g></g><g fill="#1c191a" fill-opacity="1"><g transform="translate(288.398133, 368.772809)"><g><path d="M 4.375 -5.90625 L 4.375 -4.84375 L 1.78125 -4.84375 L 1.78125 -1.078125 L 4.96875 -1.078125 L 4.96875 0 L 0.609375 0 L 0.609375 -10.59375 L 4.96875 -10.59375 L 4.96875 -9.515625 L 1.78125 -9.515625 L 1.78125 -5.90625 Z M 4.375 -5.90625 "/></g></g></g><g fill="#1c191a" fill-opacity="1"><g transform="translate(296.877461, 368.772809)"><g><path d="M 2.140625 0 L 2.140625 -9.515625 L 0.1875 -9.515625 L 0.1875 -10.59375 L 5.25 -10.59375 L 5.25 -9.515625 L 3.296875 -9.515625 L 3.296875 0 Z M 2.140625 0 "/></g></g></g><g fill="#1c191a" fill-opacity="1"><g transform="translate(305.356788, 368.772809)"><g><path d="M 2.140625 0 L 2.140625 -9.515625 L 0.1875 -9.515625 L 0.1875 -10.59375 L 5.25 -10.59375 L 5.25 -9.515625 L 3.296875 -9.515625 L 3.296875 0 Z M 2.140625 0 "/></g></g></g><g fill="#1c191a" fill-opacity="1"><g transform="translate(313.836116, 368.772809)"><g><path d="M 4.375 -5.90625 L 4.375 -4.84375 L 1.78125 -4.84375 L 1.78125 -1.078125 L 4.96875 -1.078125 L 4.96875 0 L 0.609375 0 L 0.609375 -10.59375 L 4.96875 -10.59375 L 4.96875 -9.515625 L 1.78125 -9.515625 L 1.78125 -5.90625 Z M 4.375 -5.90625 "/></g></g></g><g fill="#1c191a" fill-opacity="1"><g transform="translate(322.315444, 368.772809)"><g><path d="M 2.96875 -10.59375 C 3.800781 -10.59375 4.398438 -10.382812 4.765625 -9.96875 C 5.140625 -9.5625 5.328125 -8.960938 5.328125 -8.171875 L 5.328125 -7.3125 C 5.328125 -6.726562 5.21875 -6.253906 5 -5.890625 C 4.789062 -5.523438 4.460938 -5.269531 4.015625 -5.125 C 4.492188 -4.988281 4.832031 -4.726562 5.03125 -4.34375 C 5.238281 -3.96875 5.34375 -3.492188 5.34375 -2.921875 L 5.34375 -1.265625 C 5.34375 -1.035156 5.351562 -0.8125 5.375 -0.59375 C 5.394531 -0.375 5.457031 -0.175781 5.5625 0 L 4.359375 0 C 4.285156 -0.15625 4.234375 -0.316406 4.203125 -0.484375 C 4.171875 -0.660156 4.15625 -0.925781 4.15625 -1.28125 L 4.15625 -2.953125 C 4.15625 -3.546875 4.019531 -3.957031 3.75 -4.1875 C 3.488281 -4.414062 3.113281 -4.53125 2.625 -4.53125 L 1.78125 -4.53125 L 1.78125 0 L 0.609375 0 L 0.609375 -10.59375 Z M 2.671875 -5.609375 C 3.140625 -5.609375 3.503906 -5.703125 3.765625 -5.890625 C 4.023438 -6.085938 4.15625 -6.476562 4.15625 -7.0625 L 4.15625 -8.0625 C 4.15625 -8.550781 4.0625 -8.914062 3.875 -9.15625 C 3.695312 -9.394531 3.382812 -9.515625 2.9375 -9.515625 L 1.78125 -9.515625 L 1.78125 -5.609375 Z M 2.671875 -5.609375 "/></g></g></g><g fill="#1c191a" fill-opacity="1"><g transform="translate(331.309549, 368.772809)"><g/></g></g><g fill="#1c191a" fill-opacity="1"><g transform="translate(336.685022, 368.772809)"><g><path d="M 0.5625 -5.828125 L 3.453125 -5.828125 L 3.453125 -4.765625 L 0.5625 -4.765625 Z M 0.5625 -5.828125 "/></g></g></g></svg>