<svg xmlns="http://www.w3.org/2000/svg" xmlns:xlink="http://www.w3.org/1999/xlink" width="1920" zoomAndPan="magnify" viewBox="0 0 1440 1439.999935" height="1920" preserveAspectRatio="xMidYMid meet" version="1.0"><defs><clipPath id="444a18e83e"><path d="M 192 629.558594 L 282 629.558594 L 282 753 L 192 753 Z M 192 629.558594 " clip-rule="nonzero"/></clipPath><clipPath id="7edbdd3619"><path d="M 326 703 L 415.5 703 L 415.5 827 L 326 827 Z M 326 703 " clip-rule="nonzero"/></clipPath><clipPath id="22445d2df0"><path d="M 440.863281 292 L 1295.863281 292 L 1295.863281 1296 L 440.863281 1296 Z M 440.863281 292 " clip-rule="nonzero"/></clipPath><clipPath id="9d568e256b"><path d="M 798 234.269531 L 938 234.269531 L 938 315 L 798 315 Z M 798 234.269531 " clip-rule="nonzero"/></clipPath><clipPath id="587862533b"><path d="M 151 234.269531 L 401.25 234.269531 L 401.25 499 L 151 499 Z M 151 234.269531 " clip-rule="nonzero"/></clipPath><clipPath id="42c7c50d8d"><path d="M 144 1173 L 383.25 1173 L 383.25 1258 L 144 1258 Z M 144 1173 " clip-rule="nonzero"/></clipPath></defs><path fill="#ff0000" d="M 260.507812 837.160156 L 213.90625 837.160156 C 211.566406 837.160156 209.667969 839.054688 209.667969 841.394531 C 209.667969 843.734375 211.566406 845.632812 213.90625 845.632812 L 260.507812 845.632812 C 262.847656 845.632812 264.746094 843.734375 264.746094 841.394531 C 264.746094 839.054688 262.847656 837.160156 260.507812 837.160156 Z M 260.507812 837.160156 " fill-opacity="1" fill-rule="nonzero"/><path fill="#ff0000" d="M 260.507812 854.105469 L 213.90625 854.105469 C 211.566406 854.105469 209.667969 856.003906 209.667969 858.34375 C 209.667969 860.679688 211.566406 862.578125 213.90625 862.578125 L 260.507812 862.578125 C 262.847656 862.578125 264.746094 860.679688 264.746094 858.34375 C 264.746094 856.003906 262.847656 854.105469 260.507812 854.105469 Z M 260.507812 854.105469 " fill-opacity="1" fill-rule="nonzero"/><path fill="#ff0000" d="M 213.90625 680.402344 L 260.507812 680.402344 C 262.847656 680.402344 264.746094 678.503906 264.746094 676.164062 C 264.746094 673.824219 262.847656 671.925781 260.507812 671.925781 L 213.90625 671.925781 C 211.566406 671.925781 209.667969 673.824219 209.667969 676.164062 C 209.667969 678.503906 211.566406 680.402344 213.90625 680.402344 Z M 213.90625 680.402344 " fill-opacity="1" fill-rule="nonzero"/><path fill="#ff0000" d="M 260.507812 820.210938 L 227.644531 820.210938 L 219.167969 828.683594 L 260.507812 828.683594 C 262.847656 828.683594 264.746094 826.789062 264.746094 824.449219 C 264.746094 822.109375 262.847656 820.210938 260.507812 820.210938 Z M 260.507812 820.210938 " fill-opacity="1" fill-rule="nonzero"/><path fill="#ff0000" d="M 268.984375 777.84375 L 241.445312 777.84375 L 241.445312 786.316406 L 268.984375 786.316406 C 271.320312 786.316406 273.21875 788.21875 273.21875 790.554688 L 273.21875 803.265625 L 240.984375 803.265625 C 240.273438 806.3125 238.746094 809.109375 236.480469 811.375 L 236.117188 811.738281 L 273.21875 811.738281 L 273.21875 871.050781 L 260.507812 871.050781 C 255.835938 871.050781 252.035156 874.851562 252.035156 879.523438 L 252.035156 892.234375 L 205.433594 892.234375 C 203.09375 892.234375 201.195312 890.335938 201.195312 888 L 201.195312 835.039062 L 192.722656 835.039062 L 192.722656 888 C 192.722656 895.007812 198.421875 900.707031 205.433594 900.707031 L 254.515625 900.707031 C 256.78125 900.707031 258.910156 899.828125 260.507812 898.226562 L 279.210938 879.523438 C 280.8125 877.925781 281.691406 875.796875 281.691406 873.535156 L 281.691406 790.554688 C 281.691406 783.546875 275.992188 777.84375 268.984375 777.84375 Z M 260.507812 886.242188 L 260.507812 879.523438 L 267.226562 879.523438 Z M 260.507812 886.242188 " fill-opacity="1" fill-rule="nonzero"/><g clip-path="url(#444a18e83e)"><path fill="#ff0000" d="M 201.195312 663.453125 L 273.21875 663.453125 L 273.21875 722.769531 L 260.507812 722.769531 C 255.835938 722.769531 252.035156 726.566406 252.035156 731.242188 L 252.035156 743.949219 L 241.445312 743.949219 L 241.445312 752.425781 L 254.515625 752.425781 C 256.78125 752.425781 258.910156 751.542969 260.507812 749.941406 L 279.210938 731.242188 C 280.8125 729.640625 281.691406 727.511719 281.691406 725.25 L 281.691406 642.269531 C 281.691406 635.261719 275.992188 629.558594 268.984375 629.558594 L 205.433594 629.558594 C 198.421875 629.558594 192.722656 635.261719 192.722656 642.269531 L 192.722656 695.230469 L 201.195312 695.230469 Z M 260.507812 737.960938 L 260.507812 731.242188 L 267.226562 731.242188 Z M 201.195312 642.269531 C 201.195312 639.933594 203.09375 638.035156 205.433594 638.035156 L 268.984375 638.035156 C 271.320312 638.035156 273.21875 639.933594 273.21875 642.269531 L 273.21875 654.980469 L 201.195312 654.980469 Z M 201.195312 642.269531 " fill-opacity="1" fill-rule="nonzero"/></g><path fill="#ff0000" d="M 210.257812 695.230469 L 220.261719 695.230469 C 223.550781 695.230469 226.652344 696.003906 229.433594 697.347656 L 260.507812 697.347656 C 262.847656 697.347656 264.746094 695.449219 264.746094 693.109375 C 264.746094 690.769531 262.847656 688.875 260.507812 688.875 L 213.90625 688.875 C 211.566406 688.875 209.667969 690.769531 209.667969 693.109375 C 209.667969 693.886719 209.894531 694.605469 210.257812 695.230469 Z M 210.257812 695.230469 " fill-opacity="1" fill-rule="nonzero"/><path fill="#ff0000" d="M 260.507812 714.292969 C 262.847656 714.292969 264.746094 712.398438 264.746094 710.058594 C 264.746094 707.71875 262.847656 705.820312 260.507812 705.820312 L 238.578125 705.820312 C 240.054688 708.363281 241.03125 711.226562 241.335938 714.292969 Z M 260.507812 714.292969 " fill-opacity="1" fill-rule="nonzero"/><path fill="#ff0000" d="M 211.789062 824.085938 L 230.488281 805.382812 C 232.089844 803.78125 232.96875 801.65625 232.96875 799.390625 L 232.96875 716.414062 C 232.96875 709.402344 227.269531 703.703125 220.261719 703.703125 L 156.710938 703.703125 C 149.703125 703.703125 144 709.402344 144 716.414062 L 144 813.855469 C 144 820.867188 149.703125 826.566406 156.710938 826.566406 L 205.796875 826.566406 C 208.058594 826.566406 210.1875 825.683594 211.789062 824.085938 Z M 211.789062 812.101562 L 211.789062 805.382812 L 218.507812 805.382812 Z M 152.472656 716.414062 C 152.472656 714.078125 154.375 712.175781 156.710938 712.175781 L 220.261719 712.175781 C 222.597656 712.175781 224.496094 714.078125 224.496094 716.414062 L 224.496094 729.121094 L 152.472656 729.121094 Z M 203.3125 818.09375 L 156.710938 818.09375 C 154.375 818.09375 152.472656 816.191406 152.472656 813.855469 L 152.472656 737.597656 L 224.496094 737.597656 L 224.496094 796.910156 L 211.789062 796.910156 C 207.113281 796.910156 203.3125 800.710938 203.3125 805.382812 Z M 203.3125 818.09375 " fill-opacity="1" fill-rule="nonzero"/><path fill="#ff0000" d="M 165.183594 754.542969 L 211.789062 754.542969 C 214.125 754.542969 216.023438 752.644531 216.023438 750.304688 C 216.023438 747.964844 214.125 746.070312 211.789062 746.070312 L 165.183594 746.070312 C 162.84375 746.070312 160.945312 747.964844 160.945312 750.304688 C 160.945312 752.644531 162.84375 754.542969 165.183594 754.542969 Z M 165.183594 754.542969 " fill-opacity="1" fill-rule="nonzero"/><path fill="#ff0000" d="M 165.183594 771.488281 L 211.789062 771.488281 C 214.125 771.488281 216.023438 769.59375 216.023438 767.253906 C 216.023438 764.914062 214.125 763.015625 211.789062 763.015625 L 165.183594 763.015625 C 162.84375 763.015625 160.945312 764.914062 160.945312 767.253906 C 160.945312 769.59375 162.84375 771.488281 165.183594 771.488281 Z M 165.183594 771.488281 " fill-opacity="1" fill-rule="nonzero"/><path fill="#ff0000" d="M 216.023438 784.199219 C 216.023438 781.859375 214.125 779.964844 211.789062 779.964844 L 165.183594 779.964844 C 162.84375 779.964844 160.945312 781.859375 160.945312 784.199219 C 160.945312 786.539062 162.84375 788.4375 165.183594 788.4375 L 211.789062 788.4375 C 214.125 788.4375 216.023438 786.539062 216.023438 784.199219 Z M 216.023438 784.199219 " fill-opacity="1" fill-rule="nonzero"/><g clip-path="url(#7edbdd3619)"><path fill="#ff0000" d="M 402.4375 703.703125 L 338.886719 703.703125 C 331.878906 703.703125 326.179688 709.402344 326.179688 716.414062 L 326.179688 813.855469 C 326.179688 820.867188 331.878906 826.566406 338.886719 826.566406 L 387.972656 826.566406 C 390.234375 826.566406 392.363281 825.683594 393.964844 824.085938 L 412.664062 805.382812 C 414.265625 803.78125 415.148438 801.65625 415.148438 799.390625 L 415.148438 716.414062 C 415.148438 709.402344 409.445312 703.703125 402.4375 703.703125 Z M 393.964844 812.101562 L 393.964844 805.382812 L 400.683594 805.382812 Z M 406.675781 796.910156 L 393.964844 796.910156 C 389.292969 796.910156 385.492188 800.710938 385.492188 805.382812 L 385.492188 818.09375 L 338.886719 818.09375 C 336.550781 818.09375 334.652344 816.191406 334.652344 813.855469 L 334.652344 737.597656 L 406.675781 737.597656 Z M 406.675781 729.121094 L 334.652344 729.121094 L 334.652344 716.414062 C 334.652344 714.078125 336.550781 712.175781 338.886719 712.175781 L 402.4375 712.175781 C 404.773438 712.175781 406.675781 714.078125 406.675781 716.414062 Z M 406.675781 729.121094 " fill-opacity="1" fill-rule="nonzero"/></g><path fill="#ff0000" d="M 347.363281 754.542969 L 393.964844 754.542969 C 396.304688 754.542969 398.203125 752.644531 398.203125 750.304688 C 398.203125 747.964844 396.304688 746.070312 393.964844 746.070312 L 347.363281 746.070312 C 345.023438 746.070312 343.125 747.964844 343.125 750.304688 C 343.125 752.644531 345.023438 754.542969 347.363281 754.542969 Z M 347.363281 754.542969 " fill-opacity="1" fill-rule="nonzero"/><path fill="#ff0000" d="M 347.363281 771.488281 L 393.964844 771.488281 C 396.304688 771.488281 398.203125 769.59375 398.203125 767.253906 C 398.203125 764.914062 396.304688 763.015625 393.964844 763.015625 L 347.363281 763.015625 C 345.023438 763.015625 343.125 764.914062 343.125 767.253906 C 343.125 769.59375 345.023438 771.488281 347.363281 771.488281 Z M 347.363281 771.488281 " fill-opacity="1" fill-rule="nonzero"/><path fill="#ff0000" d="M 347.363281 788.4375 L 393.964844 788.4375 C 396.304688 788.4375 398.203125 786.539062 398.203125 784.199219 C 398.203125 781.859375 396.304688 779.964844 393.964844 779.964844 L 347.363281 779.964844 C 345.023438 779.964844 343.125 781.859375 343.125 784.199219 C 343.125 786.539062 345.023438 788.4375 347.363281 788.4375 Z M 347.363281 788.4375 " fill-opacity="1" fill-rule="nonzero"/><path fill="#ff0000" d="M 307.988281 751.910156 C 306.335938 750.257812 303.652344 750.257812 301.996094 751.910156 C 300.710938 753.199219 300.4375 755.097656 301.152344 756.660156 L 285.929688 756.660156 C 283.589844 756.660156 281.691406 758.558594 281.691406 760.898438 C 281.691406 763.238281 283.589844 765.132812 285.929688 765.132812 L 301.152344 765.132812 C 300.4375 766.695312 300.710938 768.597656 301.996094 769.882812 C 302.824219 770.710938 303.910156 771.125 304.996094 771.125 C 306.078125 771.125 307.164062 770.710938 307.988281 769.882812 L 313.980469 763.894531 C 314.777344 763.097656 315.222656 762.019531 315.222656 760.898438 C 315.222656 759.773438 314.777344 758.695312 313.980469 757.902344 Z M 307.988281 751.910156 " fill-opacity="1" fill-rule="nonzero"/><g clip-path="url(#22445d2df0)"><path fill="#ff0000" d="M 1232.855469 1295.917969 L 504.003906 1295.917969 C 469.238281 1295.917969 440.957031 1267.636719 440.957031 1232.875 L 440.957031 355.894531 C 440.957031 321.132812 469.238281 292.851562 504.003906 292.851562 L 1232.855469 292.851562 C 1267.617188 292.851562 1295.898438 321.132812 1295.898438 355.894531 L 1295.898438 1232.875 C 1295.898438 1267.636719 1267.617188 1295.917969 1232.855469 1295.917969 Z M 504.003906 314.570312 C 481.214844 314.570312 462.679688 333.109375 462.679688 355.894531 L 462.679688 1232.875 C 462.679688 1255.660156 481.21875 1274.199219 504.003906 1274.199219 L 1232.855469 1274.199219 C 1255.640625 1274.199219 1274.179688 1255.660156 1274.179688 1232.875 L 1274.179688 355.894531 C 1274.179688 333.105469 1255.640625 314.570312 1232.855469 314.570312 Z M 504.003906 314.570312 " fill-opacity="1" fill-rule="nonzero"/></g><path fill="#ff0000" d="M 1027.578125 444.332031 L 709.277344 444.332031 C 674.515625 444.332031 646.234375 416.050781 646.234375 381.285156 L 646.234375 303.710938 C 646.234375 297.710938 651.09375 292.851562 657.09375 292.851562 L 1079.765625 292.851562 C 1085.761719 292.851562 1090.625 297.710938 1090.625 303.710938 L 1090.625 381.285156 C 1090.625 416.050781 1062.34375 444.332031 1027.578125 444.332031 Z M 667.953125 314.570312 L 667.953125 381.285156 C 667.953125 404.074219 686.492188 422.609375 709.277344 422.609375 L 1027.578125 422.609375 C 1050.367188 422.609375 1068.902344 404.074219 1068.902344 381.285156 L 1068.902344 314.570312 Z M 667.953125 314.570312 " fill-opacity="1" fill-rule="nonzero"/><g clip-path="url(#9d568e256b)"><path fill="#ff0000" d="M 927.074219 314.570312 L 809.78125 314.570312 C 803.785156 314.570312 798.921875 309.707031 798.921875 303.710938 L 798.921875 297.246094 C 798.921875 262.484375 827.203125 234.203125 861.96875 234.203125 L 874.890625 234.203125 C 909.652344 234.203125 937.9375 262.484375 937.9375 297.246094 L 937.9375 303.710938 C 937.9375 309.707031 933.074219 314.570312 927.074219 314.570312 Z M 820.875 292.851562 L 915.984375 292.851562 C 913.78125 272.121094 896.191406 255.921875 874.890625 255.921875 L 861.964844 255.921875 C 840.664062 255.921875 823.078125 272.121094 820.875 292.851562 Z M 820.875 292.851562 " fill-opacity="1" fill-rule="nonzero"/></g><path fill="#ff0000" d="M 1224.015625 1234.894531 L 512.84375 1234.894531 C 506.84375 1234.894531 501.980469 1230.035156 501.980469 1224.035156 L 501.980469 364.734375 C 501.980469 358.734375 506.84375 353.871094 512.84375 353.871094 L 657.09375 353.871094 C 663.089844 353.871094 667.953125 358.734375 667.953125 364.734375 L 667.953125 374.824219 C 667.953125 401.175781 689.390625 422.609375 715.738281 422.609375 L 1021.121094 422.609375 C 1047.46875 422.609375 1068.90625 401.175781 1068.90625 374.824219 L 1068.90625 364.734375 C 1068.90625 358.734375 1073.769531 353.871094 1079.765625 353.871094 L 1224.015625 353.871094 C 1230.011719 353.871094 1234.875 358.734375 1234.875 364.734375 L 1234.875 1224.035156 C 1234.875 1230.03125 1230.011719 1234.894531 1224.015625 1234.894531 Z M 523.703125 1213.175781 L 1213.15625 1213.175781 L 1213.15625 375.59375 L 1090.621094 375.59375 C 1090.207031 413.566406 1059.1875 444.332031 1021.121094 444.332031 L 715.738281 444.332031 C 677.671875 444.332031 646.652344 413.566406 646.238281 375.59375 L 523.703125 375.59375 Z M 523.703125 1213.175781 " fill-opacity="1" fill-rule="nonzero"/><path fill="#ff0000" d="M 957.75 590.734375 C 956.472656 590.734375 955.171875 590.507812 953.910156 590.027344 C 948.296875 587.90625 945.472656 581.636719 947.59375 576.027344 L 970.765625 514.785156 C 972.890625 509.175781 979.164062 506.351562 984.765625 508.472656 C 990.378906 510.59375 993.203125 516.863281 991.082031 522.472656 L 967.910156 583.714844 C 966.265625 588.058594 962.132812 590.734375 957.75 590.734375 Z M 957.75 590.734375 " fill-opacity="1" fill-rule="nonzero"/><path fill="#ff0000" d="M 1004.097656 590.734375 C 999.714844 590.734375 995.585938 588.0625 993.941406 583.714844 L 970.765625 522.472656 C 968.644531 516.863281 971.472656 510.59375 977.082031 508.472656 C 982.683594 506.351562 988.957031 509.175781 991.082031 514.785156 L 1014.253906 576.027344 C 1016.375 581.636719 1013.550781 587.90625 1007.941406 590.027344 C 1006.675781 590.507812 1005.375 590.734375 1004.097656 590.734375 Z M 1004.097656 590.734375 " fill-opacity="1" fill-rule="nonzero"/><path fill="#ff0000" d="M 995.210938 567.246094 L 966.640625 567.246094 C 960.640625 567.246094 955.777344 562.382812 955.777344 556.382812 C 955.777344 550.386719 960.640625 545.523438 966.640625 545.523438 L 995.210938 545.523438 C 1001.207031 545.523438 1006.070312 550.386719 1006.070312 556.382812 C 1006.070312 562.382812 1001.207031 567.246094 995.210938 567.246094 Z M 995.210938 567.246094 " fill-opacity="1" fill-rule="nonzero"/><path fill="#ff0000" d="M 696.988281 590.730469 C 678.695312 590.730469 663.816406 575.851562 663.816406 557.5625 L 663.816406 518.628906 C 663.816406 512.632812 668.679688 507.769531 674.675781 507.769531 C 680.675781 507.769531 685.535156 512.632812 685.535156 518.628906 L 685.535156 557.5625 C 685.535156 563.875 690.675781 569.011719 696.988281 569.011719 C 703.300781 569.011719 708.4375 563.875 708.4375 557.5625 L 708.4375 518.628906 C 708.4375 512.632812 713.300781 507.769531 719.296875 507.769531 C 725.296875 507.769531 730.160156 512.632812 730.160156 518.628906 L 730.160156 557.5625 C 730.160156 575.851562 715.277344 590.730469 696.988281 590.730469 Z M 696.988281 590.730469 " fill-opacity="1" fill-rule="nonzero"/><path fill="#ff0000" d="M 1122.953125 590.730469 C 1116.957031 590.730469 1112.09375 585.871094 1112.09375 579.871094 L 1112.09375 551.078125 C 1112.09375 545.082031 1116.957031 540.21875 1122.953125 540.21875 C 1128.953125 540.21875 1133.8125 545.082031 1133.8125 551.078125 L 1133.8125 579.871094 C 1133.8125 585.871094 1128.953125 590.730469 1122.953125 590.730469 Z M 1122.953125 590.730469 " fill-opacity="1" fill-rule="nonzero"/><path fill="#ff0000" d="M 1122.964844 561.941406 C 1119.457031 561.941406 1116.015625 560.246094 1113.921875 557.109375 L 1092.25 524.660156 C 1088.917969 519.675781 1090.261719 512.929688 1095.25 509.597656 C 1100.238281 506.265625 1106.980469 507.609375 1110.3125 512.597656 L 1131.984375 545.046875 C 1135.316406 550.035156 1133.972656 556.777344 1128.988281 560.109375 C 1127.132812 561.347656 1125.039062 561.941406 1122.964844 561.941406 Z M 1122.964844 561.941406 " fill-opacity="1" fill-rule="nonzero"/><path fill="#ff0000" d="M 1122.941406 561.941406 C 1120.871094 561.941406 1118.777344 561.347656 1116.921875 560.109375 C 1111.933594 556.777344 1110.589844 550.035156 1113.921875 545.046875 L 1135.597656 512.597656 C 1138.925781 507.609375 1145.667969 506.265625 1150.660156 509.597656 C 1155.648438 512.929688 1156.988281 519.675781 1153.660156 524.660156 L 1131.984375 557.109375 C 1129.890625 560.246094 1126.449219 561.941406 1122.941406 561.941406 Z M 1122.941406 561.941406 " fill-opacity="1" fill-rule="nonzero"/><path fill="#ff0000" d="M 1038.636719 590.730469 C 1032.636719 590.730469 1027.773438 585.871094 1027.773438 579.871094 L 1027.773438 518.628906 C 1027.773438 512.632812 1032.636719 507.769531 1038.636719 507.769531 L 1056.96875 507.769531 C 1071.890625 507.769531 1084.035156 519.910156 1084.035156 534.832031 C 1084.035156 549.753906 1071.894531 561.894531 1056.96875 561.894531 L 1049.496094 561.894531 L 1049.496094 579.875 C 1049.496094 585.871094 1044.632812 590.734375 1038.636719 590.734375 Z M 1049.496094 540.175781 L 1056.96875 540.175781 C 1059.914062 540.175781 1062.3125 537.777344 1062.3125 534.832031 C 1062.3125 531.886719 1059.914062 529.488281 1056.96875 529.488281 L 1049.496094 529.488281 Z M 1049.496094 540.175781 " fill-opacity="1" fill-rule="nonzero"/><path fill="#ff0000" d="M 1074.882812 590.730469 C 1072.121094 590.730469 1069.359375 589.6875 1067.242188 587.589844 L 1038.117188 558.75 C 1033.851562 554.53125 1033.820312 547.65625 1038.039062 543.394531 C 1042.257812 539.132812 1049.136719 539.097656 1053.398438 543.316406 L 1082.523438 572.15625 C 1086.785156 576.375 1086.820312 583.25 1082.597656 587.511719 C 1080.476562 589.65625 1077.679688 590.730469 1074.882812 590.730469 Z M 1074.882812 590.730469 " fill-opacity="1" fill-rule="nonzero"/><path fill="#ff0000" d="M 753.847656 590.734375 C 753.097656 590.734375 752.335938 590.65625 751.570312 590.492188 C 745.707031 589.242188 741.964844 583.472656 743.214844 577.605469 L 756.285156 516.363281 C 757.535156 510.496094 763.304688 506.753906 769.171875 508.007812 C 775.039062 509.261719 778.777344 515.03125 777.527344 520.894531 L 764.457031 582.140625 C 763.371094 587.242188 758.863281 590.734375 753.847656 590.734375 Z M 753.847656 590.734375 " fill-opacity="1" fill-rule="nonzero"/><path fill="#ff0000" d="M 787.546875 590.734375 C 783.011719 590.734375 778.785156 587.875 777.253906 583.339844 L 756.613281 522.097656 C 754.699219 516.414062 757.75 510.253906 763.4375 508.335938 C 769.121094 506.421875 775.28125 509.476562 777.195312 515.160156 L 797.839844 576.402344 C 799.753906 582.085938 796.699219 588.246094 791.015625 590.164062 C 789.867188 590.550781 788.695312 590.734375 787.546875 590.734375 Z M 787.546875 590.734375 " fill-opacity="1" fill-rule="nonzero"/><path fill="#ff0000" d="M 821.246094 590.734375 C 816.230469 590.734375 811.722656 587.242188 810.636719 582.140625 L 797.566406 520.894531 C 796.316406 515.03125 800.054688 509.261719 805.921875 508.007812 C 811.792969 506.753906 817.558594 510.5 818.808594 516.363281 L 831.875 577.605469 C 833.128906 583.472656 829.386719 589.242188 823.523438 590.492188 C 822.757812 590.65625 821.996094 590.734375 821.246094 590.734375 Z M 821.246094 590.734375 " fill-opacity="1" fill-rule="nonzero"/><path fill="#ff0000" d="M 787.546875 590.734375 C 786.398438 590.734375 785.226562 590.550781 784.078125 590.164062 C 778.394531 588.246094 775.339844 582.085938 777.253906 576.402344 L 797.898438 515.160156 C 799.816406 509.476562 805.976562 506.421875 811.65625 508.335938 C 817.339844 510.253906 820.394531 516.414062 818.480469 522.097656 L 797.839844 583.339844 C 796.3125 587.875 792.082031 590.734375 787.546875 590.734375 Z M 787.546875 590.734375 " fill-opacity="1" fill-rule="nonzero"/><path fill="#ff0000" d="M 855.804688 590.734375 C 855.054688 590.734375 854.292969 590.65625 853.527344 590.492188 C 847.660156 589.242188 843.921875 583.472656 845.171875 577.605469 L 858.242188 516.363281 C 859.492188 510.496094 865.261719 506.753906 871.128906 508.007812 C 876.992188 509.261719 880.734375 515.03125 879.484375 520.894531 L 866.417969 582.140625 C 865.328125 587.242188 860.820312 590.734375 855.804688 590.734375 Z M 855.804688 590.734375 " fill-opacity="1" fill-rule="nonzero"/><path fill="#ff0000" d="M 889.503906 590.734375 C 884.96875 590.734375 880.742188 587.875 879.210938 583.339844 L 858.570312 522.097656 C 856.652344 516.414062 859.707031 510.253906 865.390625 508.335938 C 871.078125 506.421875 877.238281 509.476562 879.152344 515.160156 L 899.792969 576.402344 C 901.710938 582.085938 898.65625 588.246094 892.972656 590.164062 C 891.820312 590.550781 890.652344 590.734375 889.503906 590.734375 Z M 889.503906 590.734375 " fill-opacity="1" fill-rule="nonzero"/><path fill="#ff0000" d="M 923.207031 590.734375 C 918.191406 590.734375 913.683594 587.242188 912.59375 582.140625 L 899.527344 520.894531 C 898.277344 515.03125 902.015625 509.261719 907.882812 508.007812 C 913.753906 506.753906 919.519531 510.5 920.769531 516.363281 L 933.835938 577.605469 C 935.089844 583.472656 931.347656 589.242188 925.480469 590.492188 C 924.71875 590.65625 923.957031 590.734375 923.207031 590.734375 Z M 923.207031 590.734375 " fill-opacity="1" fill-rule="nonzero"/><path fill="#ff0000" d="M 889.503906 590.734375 C 888.355469 590.734375 887.183594 590.550781 886.035156 590.164062 C 880.351562 588.246094 877.296875 582.085938 879.210938 576.402344 L 899.855469 515.160156 C 901.773438 509.476562 907.933594 506.421875 913.617188 508.335938 C 919.300781 510.253906 922.355469 516.414062 920.4375 522.097656 L 899.796875 583.339844 C 898.265625 587.875 894.039062 590.734375 889.503906 590.734375 Z M 889.503906 590.734375 " fill-opacity="1" fill-rule="nonzero"/><path fill="#ff0000" d="M 615.203125 592.96875 C 601.339844 592.96875 589.03125 587.191406 583.082031 577.894531 C 579.847656 572.839844 581.324219 566.125 586.375 562.894531 C 591.429688 559.660156 598.144531 561.136719 601.378906 566.191406 C 602.628906 568.144531 607.488281 571.25 615.203125 571.25 C 622.425781 571.25 625.882812 570.175781 627.515625 569.273438 C 628.289062 568.84375 628.976562 568.464844 629.203125 566.691406 C 627.597656 565.226562 623.03125 562.84375 617.652344 561.488281 C 594.96875 555.785156 583.464844 546.160156 583.464844 532.875 C 583.464844 517.542969 599.1875 505.53125 619.261719 505.53125 C 628.027344 505.53125 636.414062 507.882812 642.878906 512.160156 C 647.882812 515.46875 649.257812 522.203125 645.953125 527.207031 C 642.644531 532.210938 635.90625 533.585938 630.902344 530.277344 C 627.992188 528.355469 623.75 527.25 619.261719 527.25 C 610.820312 527.25 605.757812 531.066406 605.230469 532.625 C 605.902344 533.46875 609.414062 537.019531 622.945312 540.421875 C 629.527344 542.078125 651 548.785156 651 565.625 C 651 565.671875 651 565.71875 651 565.769531 C 650.867188 575.925781 646.035156 592.96875 615.203125 592.96875 Z M 615.203125 592.96875 " fill-opacity="1" fill-rule="nonzero"/><path fill="#ff0000" d="M 1038.636719 1179.21875 C 960.242188 1179.21875 896.464844 1115.441406 896.464844 1037.046875 C 896.464844 958.652344 960.242188 894.875 1038.636719 894.875 C 1117.03125 894.875 1180.808594 958.652344 1180.808594 1037.046875 C 1180.808594 1115.441406 1117.03125 1179.21875 1038.636719 1179.21875 Z M 1038.636719 916.59375 C 972.21875 916.59375 918.183594 970.628906 918.183594 1037.046875 C 918.183594 1103.464844 972.21875 1157.5 1038.636719 1157.5 C 1105.050781 1157.5 1159.085938 1103.464844 1159.085938 1037.046875 C 1159.085938 970.628906 1105.050781 916.59375 1038.636719 916.59375 Z M 1038.636719 916.59375 " fill-opacity="1" fill-rule="nonzero"/><path fill="#ff0000" d="M 1022.390625 1090.859375 C 1019.609375 1090.859375 1016.832031 1089.800781 1014.710938 1087.679688 L 961.292969 1034.261719 C 957.054688 1030.023438 957.054688 1023.148438 961.292969 1018.90625 C 965.535156 1014.664062 972.410156 1014.664062 976.652344 1018.90625 L 1022.390625 1064.640625 L 1100.613281 986.417969 C 1104.859375 982.175781 1111.734375 982.175781 1115.972656 986.417969 C 1120.214844 990.65625 1120.214844 997.53125 1115.972656 1001.773438 L 1030.066406 1087.679688 C 1027.949219 1089.796875 1025.167969 1090.859375 1022.390625 1090.859375 Z M 1022.390625 1090.859375 " fill-opacity="1" fill-rule="nonzero"/><path fill="#ff0000" d="M 1144.628906 687.449219 L 592.230469 687.449219 C 586.234375 687.449219 581.371094 682.585938 581.371094 676.589844 C 581.371094 670.59375 586.234375 665.730469 592.230469 665.730469 L 1144.628906 665.730469 C 1150.625 665.730469 1155.488281 670.59375 1155.488281 676.589844 C 1155.488281 682.585938 1150.625 687.449219 1144.628906 687.449219 Z M 1144.628906 687.449219 " fill-opacity="1" fill-rule="nonzero"/><path fill="#ff0000" d="M 1144.628906 751.878906 L 592.230469 751.878906 C 586.234375 751.878906 581.371094 747.015625 581.371094 741.019531 C 581.371094 735.019531 586.234375 730.15625 592.230469 730.15625 L 1144.628906 730.15625 C 1150.625 730.15625 1155.488281 735.019531 1155.488281 741.019531 C 1155.488281 747.015625 1150.625 751.878906 1144.628906 751.878906 Z M 1144.628906 751.878906 " fill-opacity="1" fill-rule="nonzero"/><path fill="#ff0000" d="M 889.503906 816.304688 L 592.230469 816.304688 C 586.234375 816.304688 581.371094 811.445312 581.371094 805.445312 C 581.371094 799.449219 586.234375 794.585938 592.230469 794.585938 L 889.503906 794.585938 C 895.5 794.585938 900.363281 799.449219 900.363281 805.445312 C 900.363281 811.445312 895.5 816.304688 889.503906 816.304688 Z M 889.503906 816.304688 " fill-opacity="1" fill-rule="nonzero"/><path fill="#ff0000" d="M 868.859375 940.527344 L 592.230469 940.527344 C 586.234375 940.527344 581.371094 935.664062 581.371094 929.667969 C 581.371094 923.667969 586.234375 918.804688 592.230469 918.804688 L 868.859375 918.804688 C 874.859375 918.804688 879.722656 923.667969 879.722656 929.667969 C 879.722656 935.664062 874.859375 940.527344 868.859375 940.527344 Z M 868.859375 940.527344 " fill-opacity="1" fill-rule="nonzero"/><path fill="#ff0000" d="M 830.867188 1004.953125 L 592.230469 1004.953125 C 586.234375 1004.953125 581.371094 1000.09375 581.371094 994.09375 C 581.371094 988.097656 586.234375 983.234375 592.230469 983.234375 L 830.867188 983.234375 C 836.863281 983.234375 841.726562 988.097656 841.726562 994.09375 C 841.726562 1000.09375 836.863281 1004.953125 830.867188 1004.953125 Z M 830.867188 1004.953125 " fill-opacity="1" fill-rule="nonzero"/><path fill="#ff0000" d="M 753.835938 1069.382812 L 592.230469 1069.382812 C 586.234375 1069.382812 581.371094 1064.519531 581.371094 1058.523438 C 581.371094 1052.523438 586.234375 1047.664062 592.230469 1047.664062 L 753.835938 1047.664062 C 759.835938 1047.664062 764.695312 1052.523438 764.695312 1058.523438 C 764.695312 1064.519531 759.835938 1069.382812 753.835938 1069.382812 Z M 753.835938 1069.382812 " fill-opacity="1" fill-rule="nonzero"/><g clip-path="url(#587862533b)"><path fill="#ff0000" d="M 401.226562 389.59375 C 401.226562 389.59375 401.226562 272.066406 401.226562 272.066406 C 401.226562 263.625 394.390625 256.792969 385.953125 256.792969 L 379.996094 256.792969 L 380.773438 249.234375 C 381.1875 245.816406 378.496094 242.503906 375.078125 242.242188 L 301.25 234.683594 C 297.832031 234.269531 294.519531 236.960938 294.257812 240.378906 L 293.484375 247.9375 C 293.222656 248.042969 293.070312 248.25 292.808594 248.402344 L 284.472656 256.792969 L 187.242188 256.792969 C 178.800781 256.792969 171.96875 263.625 171.96875 272.066406 L 171.96875 299.558594 C 144.011719 322.183594 144.632812 367.019531 171.96875 389.28125 L 171.96875 406.625 C 171.96875 412.113281 174.972656 417.136719 179.632812 419.828125 L 179.007812 422.3125 C 174.972656 421.898438 170.933594 424.746094 170 428.734375 L 166.066406 443.851562 C 166.066406 443.851562 163.0625 455.347656 163.0625 455.398438 L 157.523438 476.9375 C 154.988281 485.945312 160.890625 495.988281 170 498.113281 C 178.957031 500.648438 189.054688 494.746094 191.175781 485.632812 C 191.175781 485.632812 196.769531 464.097656 196.769531 464.097656 C 196.769531 464.097656 199.769531 452.601562 199.769531 452.550781 L 203.707031 437.433594 C 204.792969 433.34375 202.671875 429.148438 198.941406 427.441406 L 200.390625 421.847656 L 268.21875 421.847656 L 268.21875 440.796875 L 244.96875 440.796875 C 241.191406 440.796875 238.085938 443.851562 238.085938 447.683594 L 238.085938 458.089844 C 238.085938 461.871094 241.140625 464.976562 244.96875 464.976562 L 328.480469 464.976562 C 332.261719 464.976562 335.367188 461.921875 335.367188 458.089844 L 335.367188 447.683594 C 335.367188 443.902344 332.3125 440.796875 328.480469 440.796875 L 305.234375 440.796875 L 305.234375 421.847656 L 386.105469 421.847656 C 394.546875 421.847656 401.378906 415.015625 401.378906 406.574219 C 401.226562 406.574219 401.277344 389.644531 401.226562 389.59375 Z M 379.429688 262.226562 L 385.953125 262.226562 C 391.335938 262.226562 395.738281 266.628906 395.738281 272.011719 L 395.738281 386.902344 L 387.558594 386.902344 L 387.558594 273.152344 C 387.558594 271.652344 386.3125 270.410156 384.8125 270.410156 L 378.546875 270.410156 Z M 382.121094 275.894531 C 382.121094 312.914062 382.121094 349.882812 382.121094 386.902344 C 338.164062 386.902344 294.207031 386.902344 250.25 386.953125 C 294.828125 342.683594 251.027344 270.097656 191.125 288.789062 C 191.125 286.097656 189.984375 280.140625 191.125 277.761719 C 192.574219 274.808594 196.148438 275.894531 199.769531 275.894531 C 224.363281 275.894531 248.957031 275.894531 273.550781 275.894531 C 273.550781 303.492188 273.550781 331.035156 273.550781 358.632812 C 273.1875 364.480469 275.929688 367.070312 281.78125 366.761719 C 304.664062 366.761719 327.550781 366.8125 350.433594 366.8125 C 354.628906 367.175781 361.152344 365.621094 360.53125 360.339844 C 362.964844 362.050781 366.535156 360.652344 368.296875 358.269531 C 370.003906 355.835938 370.367188 352.730469 370.679688 349.777344 C 373.164062 325.132812 375.597656 300.539062 378.082031 275.894531 C 379.375 275.894531 380.722656 275.894531 382.121094 275.894531 Z M 299.695312 240.949219 C 299.851562 240.328125 300.058594 240.171875 300.679688 240.121094 C 300.679688 240.121094 374.457031 247.679688 374.457031 247.679688 C 375.078125 247.835938 375.234375 248.042969 375.285156 248.714844 C 375.285156 248.765625 374.25 259.226562 374.199219 259.277344 C 374.199219 259.277344 364.464844 354.59375 364.464844 354.59375 C 364.363281 355.265625 363.792969 355.421875 363.171875 355.371094 L 360.425781 355.058594 L 360.425781 253.996094 C 360.425781 250.476562 357.578125 247.628906 354.058594 247.628906 L 299.023438 247.628906 Z M 297.519531 265.230469 L 297.519531 253.0625 L 354.058594 253.0625 C 354.316406 253.0625 354.523438 253.167969 354.679688 253.324219 C 355.507812 253.632812 354.679688 356.921875 354.9375 357.492188 C 354.9375 357.492188 354.9375 360.390625 354.9375 360.390625 C 354.9375 360.859375 354.523438 361.273438 354.007812 361.324219 L 279.867188 361.324219 C 279.398438 361.324219 278.933594 360.910156 278.933594 360.390625 L 278.933594 271.597656 L 291.101562 271.597656 C 294.621094 271.597656 297.519531 268.75 297.519531 265.230469 Z M 285.714844 263.210938 L 292.03125 256.894531 L 292.03125 265.230469 C 292.03125 265.75 291.617188 266.164062 291.101562 266.164062 L 282.765625 266.164062 Z M 177.457031 272.011719 C 177.457031 266.628906 181.855469 262.226562 187.242188 262.226562 L 278.984375 262.226562 C 278.933594 262.332031 274.273438 266.941406 274.222656 267.042969 C 273.34375 267.871094 273.445312 269.371094 273.445312 270.460938 L 188.378906 270.460938 C 186.878906 270.460938 185.636719 271.703125 185.636719 273.203125 L 185.636719 290.960938 C 182.894531 292.207031 179.890625 293.808594 177.457031 295.414062 Z M 177.457031 406.625 L 177.457031 393.425781 C 178.128906 393.890625 185.222656 397.824219 185.378906 397.773438 L 181.132812 414.238281 C 178.855469 412.375 177.457031 409.628906 177.457031 406.625 Z M 185.894531 484.234375 C 181.597656 499.355469 159.230469 493.554688 162.804688 478.28125 C 162.804688 478.28125 167.671875 459.382812 167.671875 459.382812 L 190.761719 465.339844 Z M 192.160156 460.058594 L 169.070312 454.105469 L 170.675781 447.890625 L 193.765625 453.84375 Z M 198.375 436.035156 L 195.164062 448.511719 L 172.070312 442.558594 L 175.28125 430.082031 C 175.695312 428.421875 177.507812 427.335938 179.113281 427.800781 L 196.09375 432.203125 C 197.804688 432.667969 198.789062 434.378906 198.375 436.035156 Z M 199.410156 403.625 L 193.609375 425.9375 C 191.382812 425.367188 186.515625 424.125 184.34375 423.558594 C 185.066406 420.710938 189.625 403.105469 190.503906 399.84375 C 193.558594 400.878906 196.613281 401.65625 199.769531 402.226562 Z M 158.507812 331.140625 C 163.21875 312.136719 179.785156 296.242188 199.046875 292.257812 C 249.941406 283.300781 282.816406 341.082031 249.113281 380.273438 C 210.023438 420.242188 146.132812 385.089844 158.507812 331.140625 Z M 328.378906 446.285156 C 329.15625 446.285156 329.777344 446.90625 329.777344 447.683594 L 329.777344 458.089844 C 329.777344 458.867188 329.15625 459.488281 328.378906 459.488281 L 244.867188 459.488281 C 244.089844 459.488281 243.46875 458.867188 243.46875 458.089844 L 243.46875 447.683594 C 243.46875 446.90625 244.089844 446.285156 244.867188 446.285156 Z M 273.601562 440.796875 L 273.601562 421.898438 L 299.644531 421.898438 L 299.644531 440.796875 Z M 395.789062 406.625 C 395.789062 412.011719 391.386719 416.410156 386.003906 416.410156 L 201.738281 416.410156 L 205.207031 402.949219 C 218.773438 404.089844 232.441406 400.101562 243.625 392.386719 L 395.789062 392.386719 Z M 248.023438 321.871094 C 228.144531 287.960938 176.578125 295.207031 166.789062 333.261719 C 160.320312 356.25 175.4375 381.878906 198.632812 387.367188 C 236.6875 397.308594 268.0625 355.734375 248.023438 321.871094 Z M 172.070312 334.660156 C 176.886719 314.3125 199.355469 301.058594 219.496094 306.703125 C 239.84375 311.515625 253.097656 333.988281 247.457031 354.128906 C 242.070312 374.890625 220.792969 387.46875 200.03125 382.085938 C 179.632812 377.269531 166.429688 354.800781 172.070312 334.660156 Z M 293.691406 283.714844 L 309.066406 283.714844 C 312.640625 283.714844 312.640625 289.152344 309.066406 289.152344 L 293.691406 289.152344 C 292.757812 289.152344 291.980469 289.925781 291.980469 290.859375 L 291.980469 306.234375 C 291.980469 307.167969 292.757812 307.945312 293.691406 307.945312 L 309.066406 307.945312 C 310 307.945312 310.773438 307.167969 310.773438 306.234375 C 310.773438 302.664062 316.210938 302.664062 316.210938 306.234375 C 316.210938 310.222656 313 313.433594 309.015625 313.433594 L 293.636719 313.433594 C 289.652344 313.433594 286.441406 310.222656 286.441406 306.234375 L 286.441406 290.859375 C 286.546875 286.976562 289.753906 283.714844 293.691406 283.714844 Z M 318.59375 284.542969 C 321.128906 282.003906 324.960938 285.890625 322.476562 288.425781 L 306.425781 304.476562 C 305.390625 305.511719 303.578125 305.511719 302.542969 304.476562 L 294.15625 296.089844 C 291.617188 293.550781 295.5 289.71875 298.039062 292.207031 L 304.511719 298.675781 C 304.511719 298.625 318.59375 284.542969 318.59375 284.542969 Z M 316.316406 344.550781 C 316.316406 348.535156 313.105469 351.746094 309.117188 351.746094 L 293.742188 351.746094 C 289.753906 351.746094 286.546875 348.535156 286.546875 344.550781 L 286.546875 329.171875 C 286.546875 325.1875 289.753906 321.976562 293.742188 321.976562 L 309.117188 321.976562 C 312.691406 321.976562 312.691406 327.410156 309.117188 327.410156 L 293.742188 327.410156 C 292.808594 327.410156 292.03125 328.1875 292.03125 329.121094 L 292.03125 344.496094 C 292.03125 345.429688 292.808594 346.207031 293.742188 346.207031 L 309.117188 346.207031 C 310.050781 346.207031 310.828125 345.429688 310.828125 344.496094 C 310.828125 342.996094 312.070312 341.753906 313.570312 341.753906 C 315.074219 341.804688 316.316406 343.046875 316.316406 344.550781 Z M 322.425781 326.636719 L 306.375 342.683594 C 305.339844 343.722656 303.527344 343.722656 302.492188 342.683594 L 294.105469 334.296875 C 291.566406 331.761719 295.449219 327.929688 297.988281 330.414062 L 304.457031 336.886719 L 318.542969 322.804688 C 321.128906 320.214844 324.960938 324.097656 322.425781 326.636719 Z M 329.15625 290.445312 L 339.25 290.445312 C 342.824219 290.445312 342.824219 295.882812 339.25 295.882812 L 329.15625 295.882812 C 325.582031 295.882812 325.582031 290.445312 329.15625 290.445312 Z M 329.15625 301.316406 L 346.035156 301.316406 C 349.605469 301.316406 349.605469 306.753906 346.035156 306.753906 L 329.15625 306.753906 C 325.582031 306.753906 325.582031 301.371094 329.15625 301.316406 Z M 329.15625 328.65625 L 339.25 328.65625 C 342.824219 328.65625 342.824219 334.089844 339.25 334.089844 L 329.15625 334.089844 C 325.582031 334.089844 325.582031 328.707031 329.15625 328.65625 Z M 329.15625 339.578125 L 346.035156 339.578125 C 349.605469 339.578125 349.605469 345.015625 346.035156 345.015625 L 329.15625 345.015625 C 325.582031 345.015625 325.582031 339.578125 329.15625 339.578125 Z M 329.15625 339.578125 " fill-opacity="1" fill-rule="nonzero"/></g><path fill="#ff0000" d="M 201.222656 1189.386719 C 192.972656 1192.082031 186.390625 1198.605469 183.636719 1206.835938 C 182.703125 1209.636719 184.21875 1212.667969 187.019531 1213.609375 C 187.578125 1213.792969 188.152344 1213.882812 188.714844 1213.882812 C 190.960938 1213.882812 193.046875 1212.472656 193.792969 1210.230469 C 195.480469 1205.199219 199.5 1201.210938 204.554688 1199.558594 C 207.363281 1198.648438 208.894531 1195.625 207.984375 1192.816406 C 207.054688 1190.007812 204.054688 1188.453125 201.222656 1189.386719 Z M 201.222656 1189.386719 " fill-opacity="1" fill-rule="nonzero"/><path fill="#ff0000" d="M 308.703125 1189.386719 C 300.433594 1192.082031 293.871094 1198.605469 291.113281 1206.835938 C 290.171875 1209.636719 291.683594 1212.667969 294.492188 1213.609375 C 295.050781 1213.792969 295.617188 1213.882812 296.191406 1213.882812 C 298.425781 1213.882812 300.511719 1212.472656 301.273438 1210.230469 C 302.953125 1205.199219 306.96875 1201.210938 312.019531 1199.558594 C 314.835938 1198.648438 316.367188 1195.625 315.445312 1192.816406 C 314.527344 1190.007812 311.519531 1188.453125 308.703125 1189.386719 Z M 308.703125 1189.386719 " fill-opacity="1" fill-rule="nonzero"/><g clip-path="url(#42c7c50d8d)"><path fill="#ff0000" d="M 377.636719 1210.230469 L 359.257812 1210.230469 C 356.613281 1189.371094 338.792969 1173.1875 317.230469 1173.1875 C 299.082031 1173.1875 283.609375 1184.667969 277.558594 1200.726562 C 268.582031 1197.339844 258.417969 1197.339844 249.417969 1200.726562 C 243.367188 1184.667969 227.894531 1173.1875 209.753906 1173.1875 C 188.183594 1173.1875 170.363281 1189.371094 167.71875 1210.230469 L 149.355469 1210.230469 C 146.390625 1210.230469 144 1212.636719 144 1215.585938 C 144 1218.539062 146.390625 1220.941406 149.355469 1220.941406 L 167.734375 1220.941406 C 170.378906 1241.800781 188.199219 1258 209.769531 1258 C 233.144531 1258 252.175781 1238.972656 252.175781 1215.585938 C 252.175781 1214.101562 252.089844 1212.636719 251.949219 1211.1875 C 259.230469 1208.015625 267.789062 1208.015625 275.058594 1211.179688 C 274.90625 1212.628906 274.832031 1214.101562 274.832031 1215.585938 C 274.832031 1238.972656 293.863281 1258 317.246094 1258 C 338.808594 1258 356.628906 1241.800781 359.273438 1220.941406 L 377.652344 1220.941406 C 380.609375 1220.941406 383.007812 1218.542969 383.007812 1215.585938 C 383.007812 1212.628906 380.601562 1210.230469 377.636719 1210.230469 Z M 209.769531 1247.289062 C 192.285156 1247.289062 178.0625 1233.070312 178.0625 1215.585938 C 178.0625 1198.109375 192.285156 1183.890625 209.769531 1183.890625 C 227.25 1183.890625 241.472656 1198.109375 241.472656 1215.585938 C 241.472656 1233.070312 227.242188 1247.289062 209.769531 1247.289062 Z M 317.230469 1247.289062 C 299.742188 1247.289062 285.519531 1233.070312 285.519531 1215.585938 C 285.519531 1198.109375 299.742188 1183.890625 317.230469 1183.890625 C 334.707031 1183.890625 348.929688 1198.109375 348.929688 1215.585938 C 348.929688 1233.070312 334.707031 1247.289062 317.230469 1247.289062 Z M 317.230469 1247.289062 " fill-opacity="1" fill-rule="nonzero"/></g><path fill="#ff0000" d="M 342.804688 1258.097656 C 339.847656 1258.097656 337.449219 1260.496094 337.449219 1263.445312 L 337.449219 1275.433594 C 337.449219 1280.496094 333.328125 1284.617188 328.269531 1284.617188 L 198.722656 1284.617188 C 193.65625 1284.617188 189.542969 1280.488281 189.542969 1275.433594 L 189.542969 1263.445312 C 189.542969 1260.496094 187.152344 1258.097656 184.1875 1258.097656 C 181.238281 1258.097656 178.839844 1260.496094 178.839844 1263.445312 L 178.839844 1275.433594 C 178.839844 1286.402344 187.757812 1295.3125 198.722656 1295.3125 L 328.269531 1295.3125 C 339.234375 1295.3125 348.152344 1286.402344 348.152344 1275.433594 L 348.152344 1263.445312 C 348.152344 1260.496094 345.753906 1258.097656 342.804688 1258.097656 Z M 342.804688 1258.097656 " fill-opacity="1" fill-rule="nonzero"/><path fill="#ff0000" d="M 184.1875 1173.089844 C 187.144531 1173.089844 189.542969 1170.695312 189.542969 1167.742188 L 189.542969 1140.394531 L 226.125 1140.394531 C 237.09375 1140.394531 246.003906 1131.476562 246.003906 1120.503906 L 246.003906 1083.386719 L 328.269531 1083.386719 C 333.335938 1083.386719 337.449219 1087.503906 337.449219 1092.566406 L 337.449219 1167.738281 C 337.449219 1170.695312 339.839844 1173.082031 342.804688 1173.082031 C 345.753906 1173.082031 348.152344 1170.6875 348.152344 1167.738281 L 348.152344 1092.558594 C 348.152344 1081.601562 339.234375 1072.683594 328.269531 1072.683594 L 240.664062 1072.683594 C 239.1875 1072.683594 237.839844 1073.289062 236.871094 1074.261719 C 236.871094 1074.261719 236.863281 1074.261719 236.863281 1074.269531 L 180.394531 1131.28125 C 179.429688 1132.246094 178.839844 1133.574219 178.839844 1135.046875 L 178.839844 1167.742188 C 178.839844 1170.695312 181.238281 1173.089844 184.1875 1173.089844 Z M 235.308594 1091.042969 L 235.308594 1120.503906 C 235.308594 1125.578125 231.1875 1129.691406 226.132812 1129.691406 L 197.027344 1129.691406 Z M 235.308594 1091.042969 " fill-opacity="1" fill-rule="nonzero"/><path fill="#ff0000" d="M 316.796875 1119.578125 L 261.269531 1119.578125 C 258.3125 1119.578125 255.914062 1121.976562 255.914062 1124.925781 C 255.914062 1127.878906 258.3125 1130.273438 261.269531 1130.273438 L 316.796875 1130.273438 C 319.75 1130.273438 322.144531 1127.878906 322.144531 1124.925781 C 322.144531 1121.976562 319.742188 1119.578125 316.796875 1119.578125 Z M 316.796875 1119.578125 " fill-opacity="1" fill-rule="nonzero"/><path fill="#ff0000" d="M 316.796875 1152.21875 L 210.195312 1152.21875 C 207.242188 1152.21875 204.847656 1154.613281 204.847656 1157.570312 C 204.847656 1160.53125 207.242188 1162.917969 210.195312 1162.917969 L 316.792969 1162.917969 C 319.742188 1162.917969 322.140625 1160.523438 322.140625 1157.570312 C 322.140625 1154.621094 319.742188 1152.21875 316.796875 1152.21875 Z M 316.796875 1152.21875 " fill-opacity="1" fill-rule="nonzero"/></svg>