<svg xmlns="http://www.w3.org/2000/svg" xmlns:xlink="http://www.w3.org/1999/xlink" width="1920" zoomAndPan="magnify" viewBox="0 0 1440 1439.999935" height="1920" preserveAspectRatio="xMidYMid meet" version="1.0"><defs><clipPath id="096b4f6c63"><path d="M 41.457031 461 L 819 461 L 819 1256 L 41.457031 1256 Z M 41.457031 461 " clip-rule="nonzero"/></clipPath><clipPath id="d1f2114f88"><path d="M 844.578125 801.472656 L 1398.78125 801.472656 L 1398.78125 1349.148438 L 844.578125 1349.148438 Z M 844.578125 801.472656 " clip-rule="nonzero"/></clipPath><clipPath id="36bc15dac6"><path d="M 907.335938 703 L 1028 703 L 1028 806.21875 L 907.335938 806.21875 Z M 907.335938 703 " clip-rule="nonzero"/></clipPath><clipPath id="30b436a7ba"><path d="M 1061 703 L 1182 703 L 1182 806.21875 L 1061 806.21875 Z M 1061 703 " clip-rule="nonzero"/></clipPath><clipPath id="560eda6ede"><path d="M 1215 703 L 1335.839844 703 L 1335.839844 806.21875 L 1215 806.21875 Z M 1215 703 " clip-rule="nonzero"/></clipPath><clipPath id="ad94e7cd94"><path d="M 1030 377.710938 L 1213 377.710938 L 1213 532 L 1030 532 Z M 1030 377.710938 " clip-rule="nonzero"/></clipPath></defs><path fill="#ff0000" d="M 607.203125 580.132812 L 448.148438 633.152344 L 456.535156 658.300781 L 615.589844 605.28125 L 607.203125 580.132812 " fill-opacity="1" fill-rule="nonzero"/><path fill="#ff0000" d="M 94.472656 990.339844 L 531.867188 990.339844 L 531.867188 963.832031 L 94.472656 963.832031 L 94.472656 990.339844 " fill-opacity="1" fill-rule="nonzero"/><path fill="#ff0000" d="M 94.472656 1043.359375 L 531.867188 1043.359375 L 531.867188 1016.847656 L 94.472656 1016.847656 L 94.472656 1043.359375 " fill-opacity="1" fill-rule="nonzero"/><g clip-path="url(#096b4f6c63)"><path fill="#ff0000" d="M 602.152344 1064.980469 C 578.425781 1025.507812 579.417969 976.042969 605.164062 937.425781 L 607.511719 933.898438 L 769.308594 836.820312 C 759.023438 868.933594 763.554688 904.484375 782.925781 933.542969 L 791.609375 946.570312 Z M 790.5625 1106.285156 L 601.972656 1224.148438 C 578.175781 1184.660156 579.144531 1135.136719 604.921875 1096.480469 L 607.550781 1092.53125 C 608.941406 1091.871094 610.300781 1091.152344 611.617188 1090.332031 L 760.96875 996.988281 C 755.21875 1035.625 765.613281 1075.101562 790.5625 1106.285156 Z M 574.550781 1069.867188 L 81.21875 1069.867188 C 73.914062 1069.867188 67.964844 1063.917969 67.964844 1056.613281 L 67.964844 938.539062 C 67.964844 938.132812 68.003906 937.722656 68.042969 937.324219 L 574.550781 937.324219 C 553.21875 978.988281 553.21875 1028.199219 574.550781 1069.867188 Z M 574.304688 1228.917969 L 147.492188 1228.917969 C 140.183594 1228.917969 134.238281 1222.972656 134.238281 1215.664062 L 134.238281 1096.375 L 574.304688 1096.375 C 552.972656 1138.042969 552.972656 1187.253906 574.304688 1228.917969 Z M 238.109375 821.929688 C 239.269531 822.414062 240.445312 822.859375 241.667969 823.242188 L 427.230469 881.230469 C 431.109375 882.441406 435.101562 883.050781 439.089844 883.050781 C 443.074219 883.050781 447.066406 882.441406 450.945312 881.230469 L 636.507812 823.242188 C 646.484375 820.125 654.484375 813.40625 659.320312 804.777344 L 771.191406 804.777344 L 594.472656 910.8125 L 99.839844 910.8125 Z M 240.273438 664.175781 L 425.832031 721.765625 L 425.832031 853.019531 L 249.570312 797.9375 C 244.011719 796.203125 240.273438 791.117188 240.273438 785.292969 Z M 452.34375 721.765625 L 637.902344 664.175781 L 637.902344 785.292969 C 637.902344 791.117188 634.164062 796.203125 628.605469 797.9375 L 452.34375 853.019531 Z M 793.378906 976.730469 L 805.660156 969.054688 C 811.789062 965.222656 816.003906 959.21875 817.523438 952.15625 C 819.046875 945.089844 817.679688 937.886719 813.667969 931.867188 L 804.980469 918.839844 C 785.632812 889.804688 785.632812 852.296875 804.988281 823.257812 L 807.5 819.484375 C 812.9375 811.335938 813.441406 800.910156 808.820312 792.269531 C 804.199219 783.636719 795.242188 778.269531 785.445312 778.269531 L 664.414062 778.269531 L 664.414062 655.953125 L 786.609375 618.027344 C 797.757812 614.5625 805.261719 604.390625 805.261719 592.707031 C 805.261719 581.027344 797.757812 570.851562 786.609375 567.390625 L 451.164062 463.289062 C 443.164062 460.804688 434.746094 460.894531 426.804688 463.542969 L 355.375 487.351562 L 363.753906 512.503906 L 435.183594 488.691406 C 437.832031 487.804688 440.640625 487.78125 443.308594 488.601562 L 778.75 592.707031 L 443.015625 696.898438 C 440.445312 697.695312 437.730469 697.695312 435.160156 696.898438 L 100.117188 592.921875 L 191.066406 565.636719 L 183.441406 540.246094 L 92.5 567.53125 C 81.257812 570.90625 73.667969 581.058594 73.613281 592.800781 C 73.554688 604.539062 81.050781 614.765625 92.261719 618.238281 L 94.472656 618.925781 L 94.472656 721.582031 L 56.601562 784.703125 L 79.328125 798.347656 L 94.472656 773.105469 L 94.472656 818.03125 L 120.980469 818.03125 L 120.980469 773.105469 L 136.125 798.347656 L 158.855469 784.703125 L 120.980469 721.582031 L 120.980469 627.152344 L 213.761719 655.945312 L 213.761719 785.292969 C 213.761719 791.730469 215.296875 797.859375 218.054688 803.304688 L 59.71875 905.09375 C 48.285156 912.445312 41.457031 924.949219 41.457031 938.539062 L 41.457031 1056.613281 C 41.457031 1078.539062 59.292969 1096.375 81.21875 1096.375 L 107.726562 1096.375 L 107.726562 1215.664062 C 107.726562 1237.59375 125.5625 1255.429688 147.492188 1255.429688 L 590.535156 1255.429688 C 598 1255.429688 605.285156 1253.339844 611.617188 1249.382812 L 804.605469 1128.761719 C 811.019531 1124.753906 815.421875 1118.1875 816.691406 1110.738281 C 817.964844 1103.28125 815.976562 1095.625 811.261719 1089.722656 C 786.707031 1059.03125 779.46875 1018.449219 791.894531 981.164062 L 793.378906 976.730469 " fill-opacity="1" fill-rule="nonzero"/></g><path fill="#ff0000" d="M 160.746094 1149.394531 L 531.867188 1149.394531 L 531.867188 1122.882812 L 160.746094 1122.882812 L 160.746094 1149.394531 " fill-opacity="1" fill-rule="nonzero"/><path fill="#ff0000" d="M 160.746094 1202.410156 L 531.867188 1202.410156 L 531.867188 1175.902344 L 160.746094 1175.902344 L 160.746094 1202.410156 " fill-opacity="1" fill-rule="nonzero"/><path fill="#ff0000" d="M 280.035156 519.640625 C 285.414062 527.503906 292.222656 534.3125 300.085938 539.691406 C 292.222656 545.070312 285.414062 551.878906 280.035156 559.742188 C 274.65625 551.878906 267.847656 545.070312 259.984375 539.691406 C 267.847656 534.3125 274.65625 527.503906 280.035156 519.640625 Z M 266.78125 602.648438 L 266.78125 605.960938 L 293.289062 605.960938 L 293.289062 602.648438 C 293.289062 575.242188 315.585938 552.945312 342.992188 552.945312 L 346.308594 552.945312 L 346.308594 526.4375 L 342.992188 526.4375 C 315.585938 526.4375 293.289062 504.140625 293.289062 476.730469 L 293.289062 473.417969 L 266.78125 473.417969 L 266.78125 476.730469 C 266.78125 504.140625 244.484375 526.4375 217.078125 526.4375 L 213.761719 526.4375 L 213.761719 552.945312 L 217.078125 552.945312 C 244.484375 552.945312 266.78125 575.242188 266.78125 602.648438 " fill-opacity="1" fill-rule="nonzero"/><g clip-path="url(#d1f2114f88)"><path fill="#ff0000" d="M 1165.683594 1099.558594 L 1157.625 1091.679688 C 1150.175781 1084.375 1141.152344 1082.976562 1130.285156 1083.011719 L 1054.273438 1083.046875 C 1049.664062 1083.046875 1045.949219 1079.324219 1045.949219 1074.726562 L 1045.914062 1074.726562 L 1045.914062 911.1875 C 1038.941406 911.1875 1033.261719 910.339844 1027.875 915.761719 C 1025.070312 918.53125 1023.304688 922.425781 1023.304688 926.664062 L 1023.304688 1088.863281 C 1023.304688 1097.351562 1030.273438 1104.324219 1038.765625 1104.324219 L 1226.5 1104.324219 C 1225.929688 1102.867188 1225.785156 1101.316406 1226.023438 1099.824219 L 1228.9375 1083 L 1213.644531 1083 C 1202.777344 1082.964844 1193.742188 1084.351562 1186.304688 1091.667969 L 1178.246094 1099.582031 C 1174.542969 1103.476562 1168.933594 1103.273438 1165.683594 1099.558594 Z M 1045.914062 894.476562 C 1045.914062 884.960938 1045.605469 878.058594 1051.5625 869.5 C 1055.285156 864.1875 1060.875 859.984375 1067.261719 858.265625 C 1076.539062 855.554688 1087.773438 854.097656 1099.449219 854.097656 C 1123.984375 854.097656 1156.574219 860.699219 1171.976562 880.625 C 1192.617188 853.859375 1246.628906 849.285156 1277.0625 858.359375 C 1289.921875 862.179688 1298.015625 874.40625 1298.015625 887.800781 L 1298.015625 894.464844 L 1305.152344 894.464844 C 1322.859375 894.464844 1337.339844 908.945312 1337.339844 926.648438 L 1337.339844 1015.007812 L 1359.070312 1022.996094 C 1365.5625 1025.394531 1366.855469 1034.636719 1359.808594 1038.363281 L 1337.339844 1051.328125 L 1337.339844 1071.191406 L 1366.28125 1121.3125 C 1368.585938 1125.300781 1367.199219 1130.386719 1363.199219 1132.679688 L 1318.929688 1158.226562 C 1314.96875 1160.53125 1309.894531 1159.144531 1307.589844 1155.183594 L 1287.832031 1121 L 1038.789062 1121 C 1021.082031 1121 1006.601562 1106.554688 1006.601562 1088.851562 L 1006.601562 926.648438 C 1006.601562 908.945312 1021.082031 894.464844 1038.789062 894.464844 L 1045.914062 894.464844 Z M 1180.296875 905.066406 L 1180.296875 1074.988281 C 1190.015625 1068.125 1201.011719 1066.320312 1213.632812 1066.359375 L 1231.800781 1066.359375 L 1244.769531 991.5 C 1245.6875 986.261719 1251.167969 983.277344 1256.074219 985.136719 L 1281.289062 994.449219 L 1281.289062 887.800781 C 1281.289062 881.402344 1278.078125 876.125 1271.953125 874.261719 C 1252.324219 868.375 1222.441406 870.203125 1203.316406 878.15625 C 1190.050781 883.648438 1180.296875 892.136719 1180.296875 905.066406 Z M 1163.621094 904.957031 C 1163.546875 892.0625 1153.839844 883.632812 1140.601562 878.15625 C 1121.511719 870.238281 1091.128906 868.304688 1071.632812 874.371094 C 1065.78125 876.160156 1062.628906 881.640625 1062.628906 887.800781 L 1062.628906 1066.382812 L 1130.273438 1066.347656 C 1142.894531 1066.308594 1153.902344 1068.101562 1163.609375 1074.976562 L 1163.609375 904.957031 Z M 1298.003906 1000.5625 L 1320.613281 1008.847656 L 1320.613281 926.648438 C 1320.613281 918.160156 1313.644531 911.1875 1305.152344 911.1875 L 1298.015625 911.1875 L 1298.015625 1000.5625 Z M 1278.171875 1104.324219 L 1270.054688 1090.210938 L 1245.617188 1104.324219 Z M 1336.625 1032.546875 L 1259.535156 1004.191406 L 1245.519531 1085.113281 L 1268.90625 1071.609375 C 1272.894531 1069.308594 1278.015625 1070.667969 1280.308594 1074.65625 L 1317.832031 1139.664062 L 1347.679688 1122.433594 L 1310.144531 1057.390625 C 1307.839844 1053.429688 1309.226562 1048.320312 1313.1875 1046.050781 Z M 895.785156 833.21875 L 969.902344 833.21875 C 974.496094 833.21875 978.257812 836.976562 978.257812 841.574219 L 978.257812 890.785156 C 978.257812 895.417969 974.496094 899.144531 969.902344 899.144531 L 895.785156 899.144531 C 891.152344 899.144531 887.425781 895.417969 887.425781 890.785156 L 887.425781 841.574219 C 887.425781 836.976562 891.152344 833.21875 895.785156 833.21875 Z M 961.542969 849.929688 L 904.152344 849.929688 L 904.152344 882.417969 L 961.554688 882.417969 L 961.554688 849.929688 Z M 895.785156 1082.296875 L 969.902344 1082.296875 C 974.496094 1082.296875 978.257812 1086.019531 978.257812 1090.652344 L 978.257812 1139.863281 C 978.257812 1144.472656 974.496094 1148.222656 969.902344 1148.222656 L 895.785156 1148.222656 C 891.152344 1148.222656 887.425781 1144.460938 887.425781 1139.863281 L 887.425781 1090.652344 C 887.425781 1086.019531 891.152344 1082.296875 895.785156 1082.296875 Z M 961.542969 1099.011719 L 904.152344 1099.011719 L 904.152344 1131.496094 L 961.554688 1131.496094 L 961.554688 1099.011719 Z M 895.785156 999.25 L 969.902344 999.25 C 974.496094 999.25 978.257812 1003.011719 978.257812 1007.605469 L 978.257812 1056.84375 C 978.257812 1061.4375 974.496094 1065.199219 969.902344 1065.199219 L 895.785156 1065.199219 C 891.152344 1065.199219 887.425781 1061.4375 887.425781 1056.84375 L 887.425781 1007.605469 C 887.425781 1003 891.152344 999.25 895.785156 999.25 Z M 961.542969 1015.964844 L 904.152344 1015.964844 L 904.152344 1048.484375 L 961.554688 1048.484375 L 961.554688 1015.964844 Z M 895.785156 916.226562 L 969.902344 916.226562 C 974.496094 916.226562 978.257812 919.988281 978.257812 924.585938 L 978.257812 973.796875 C 978.257812 978.429688 974.496094 982.152344 969.902344 982.152344 L 895.785156 982.152344 C 891.152344 982.152344 887.425781 978.429688 887.425781 973.796875 L 887.425781 924.585938 C 887.425781 919.988281 891.152344 916.226562 895.785156 916.226562 Z M 961.542969 932.953125 L 904.152344 932.953125 L 904.152344 965.4375 L 961.554688 965.4375 L 961.554688 932.953125 Z M 997.753906 1278.140625 L 1066.1875 1278.140625 L 1066.1875 1243.039062 L 902.695312 1243.039062 C 870.105469 1243.039062 844.625 1214.984375 844.625 1182.296875 L 844.625 862.359375 C 844.625 829.636719 870.105469 801.613281 902.695312 801.613281 L 1340.515625 801.613281 C 1373.109375 801.613281 1398.585938 829.636719 1398.585938 862.359375 L 1398.585938 1182.308594 C 1398.585938 1214.996094 1373.109375 1243.050781 1340.515625 1243.050781 L 1201.859375 1243.050781 L 1201.859375 1278.152344 L 1270.292969 1278.152344 C 1287.246094 1278.152344 1301.117188 1292.023438 1301.117188 1308.976562 L 1301.117188 1318.183594 C 1301.117188 1335.136719 1287.246094 1349.007812 1270.292969 1349.007812 L 997.753906 1349.007812 C 980.765625 1349.007812 966.929688 1335.136719 966.929688 1318.183594 L 966.929688 1308.976562 C 966.929688 1292.011719 980.765625 1278.140625 997.753906 1278.140625 Z M 1082.902344 1278.140625 L 1185.132812 1278.140625 L 1185.132812 1243.039062 L 1082.902344 1243.039062 Z M 1270.292969 1294.855469 C 1179.460938 1294.855469 1088.597656 1294.855469 997.765625 1294.855469 C 990.015625 1294.855469 983.652344 1301.21875 983.652344 1308.964844 L 983.652344 1318.171875 C 983.652344 1325.917969 990.015625 1332.28125 997.765625 1332.28125 L 1270.292969 1332.28125 C 1278.042969 1332.28125 1284.40625 1325.917969 1284.40625 1318.171875 L 1284.40625 1308.964844 C 1284.40625 1301.21875 1278.042969 1294.855469 1270.292969 1294.855469 Z M 861.339844 1163.109375 L 1381.871094 1163.109375 L 1381.871094 862.359375 C 1381.871094 838.734375 1363.867188 818.328125 1340.515625 818.328125 L 902.695312 818.328125 C 879.34375 818.328125 861.339844 838.734375 861.339844 862.359375 Z M 1381.859375 1182.296875 L 1381.859375 1179.824219 L 861.328125 1179.824219 L 861.328125 1182.296875 C 861.328125 1205.886719 879.332031 1226.324219 902.683594 1226.324219 C 1048.613281 1226.324219 1194.578125 1226.324219 1340.503906 1226.324219 C 1363.855469 1226.324219 1381.859375 1205.886719 1381.859375 1182.296875 Z M 1381.859375 1182.296875 " fill-opacity="1" fill-rule="nonzero"/></g><g clip-path="url(#36bc15dac6)"><path fill="#ff0000" d="M 1018.730469 720.464844 L 970.863281 720.464844 L 956.246094 705.828125 C 955.441406 705.027344 954.511719 704.40625 953.460938 703.972656 C 952.410156 703.542969 951.316406 703.324219 950.179688 703.328125 L 915.902344 703.328125 C 915.339844 703.328125 914.78125 703.382812 914.230469 703.492188 C 913.679688 703.601562 913.144531 703.765625 912.625 703.980469 C 912.105469 704.195312 911.609375 704.457031 911.140625 704.769531 C 910.675781 705.085938 910.242188 705.4375 909.84375 705.835938 C 909.445312 706.234375 909.089844 706.667969 908.777344 707.136719 C 908.464844 707.601562 908.203125 708.097656 907.984375 708.617188 C 907.769531 709.136719 907.609375 709.671875 907.5 710.222656 C 907.390625 710.777344 907.335938 711.332031 907.335938 711.894531 L 907.335938 797.585938 C 907.335938 798.148438 907.390625 798.703125 907.5 799.257812 C 907.609375 799.808594 907.769531 800.34375 907.984375 800.863281 C 908.203125 801.382812 908.464844 801.878906 908.777344 802.34375 C 909.089844 802.8125 909.445312 803.246094 909.84375 803.644531 C 910.242188 804.042969 910.675781 804.398438 911.140625 804.710938 C 911.609375 805.023438 912.105469 805.285156 912.625 805.5 C 913.144531 805.714844 913.679688 805.878906 914.230469 805.988281 C 914.78125 806.097656 915.339844 806.152344 915.902344 806.152344 L 1018.730469 806.152344 C 1019.292969 806.152344 1019.847656 806.097656 1020.402344 805.988281 C 1020.953125 805.878906 1021.488281 805.714844 1022.007812 805.5 C 1022.527344 805.285156 1023.023438 805.023438 1023.488281 804.710938 C 1023.957031 804.398438 1024.390625 804.042969 1024.789062 803.644531 C 1025.1875 803.246094 1025.542969 802.8125 1025.855469 802.34375 C 1026.167969 801.878906 1026.429688 801.382812 1026.644531 800.863281 C 1026.859375 800.34375 1027.023438 799.808594 1027.132812 799.257812 C 1027.242188 798.703125 1027.296875 798.148438 1027.296875 797.585938 L 1027.296875 729.035156 C 1027.296875 728.472656 1027.242188 727.914062 1027.132812 727.363281 C 1027.023438 726.808594 1026.859375 726.273438 1026.644531 725.753906 C 1026.429688 725.234375 1026.167969 724.742188 1025.855469 724.273438 C 1025.542969 723.804688 1025.1875 723.371094 1024.789062 722.976562 C 1024.390625 722.578125 1023.957031 722.222656 1023.488281 721.910156 C 1023.023438 721.597656 1022.527344 721.332031 1022.007812 721.117188 C 1021.488281 720.902344 1020.953125 720.738281 1020.402344 720.628906 C 1019.847656 720.519531 1019.292969 720.464844 1018.730469 720.464844 Z M 1010.160156 789.015625 L 924.472656 789.015625 L 924.472656 720.464844 L 946.628906 720.464844 L 961.25 735.101562 C 962.054688 735.902344 962.984375 736.523438 964.035156 736.957031 C 965.085938 737.390625 966.179688 737.605469 967.316406 737.601562 L 1010.160156 737.601562 Z M 1010.160156 789.015625 " fill-opacity="1" fill-rule="nonzero"/></g><g clip-path="url(#30b436a7ba)"><path fill="#ff0000" d="M 1172.96875 720.464844 L 1125.101562 720.464844 L 1110.484375 705.828125 C 1109.679688 705.027344 1108.75 704.40625 1107.699219 703.972656 C 1106.648438 703.542969 1105.554688 703.324219 1104.417969 703.328125 L 1070.140625 703.328125 C 1069.578125 703.328125 1069.023438 703.382812 1068.472656 703.492188 C 1067.917969 703.601562 1067.382812 703.765625 1066.863281 703.980469 C 1066.34375 704.195312 1065.851562 704.457031 1065.382812 704.769531 C 1064.914062 705.085938 1064.480469 705.4375 1064.082031 705.835938 C 1063.6875 706.234375 1063.332031 706.667969 1063.019531 707.136719 C 1062.707031 707.601562 1062.441406 708.097656 1062.226562 708.617188 C 1062.011719 709.136719 1061.847656 709.671875 1061.738281 710.222656 C 1061.628906 710.777344 1061.574219 711.332031 1061.574219 711.894531 L 1061.574219 797.585938 C 1061.574219 798.148438 1061.628906 798.703125 1061.738281 799.257812 C 1061.847656 799.808594 1062.011719 800.34375 1062.226562 800.863281 C 1062.441406 801.382812 1062.707031 801.878906 1063.019531 802.34375 C 1063.332031 802.8125 1063.683594 803.246094 1064.082031 803.644531 C 1064.480469 804.042969 1064.914062 804.398438 1065.382812 804.710938 C 1065.851562 805.023438 1066.34375 805.285156 1066.863281 805.5 C 1067.382812 805.714844 1067.917969 805.878906 1068.472656 805.988281 C 1069.023438 806.097656 1069.578125 806.152344 1070.140625 806.152344 L 1172.96875 806.152344 C 1173.53125 806.152344 1174.089844 806.097656 1174.640625 805.988281 C 1175.191406 805.878906 1175.726562 805.714844 1176.246094 805.5 C 1176.769531 805.285156 1177.261719 805.023438 1177.730469 804.710938 C 1178.199219 804.398438 1178.628906 804.042969 1179.027344 803.644531 C 1179.425781 803.246094 1179.78125 802.8125 1180.09375 802.34375 C 1180.40625 801.878906 1180.671875 801.382812 1180.886719 800.863281 C 1181.101562 800.34375 1181.261719 799.808594 1181.375 799.257812 C 1181.484375 798.703125 1181.539062 798.148438 1181.539062 797.585938 L 1181.539062 729.035156 C 1181.539062 728.472656 1181.484375 727.914062 1181.375 727.363281 C 1181.261719 726.808594 1181.101562 726.273438 1180.886719 725.753906 C 1180.671875 725.234375 1180.40625 724.742188 1180.09375 724.273438 C 1179.78125 723.804688 1179.425781 723.371094 1179.027344 722.976562 C 1178.628906 722.578125 1178.199219 722.222656 1177.730469 721.910156 C 1177.261719 721.597656 1176.769531 721.332031 1176.246094 721.117188 C 1175.726562 720.902344 1175.191406 720.738281 1174.640625 720.628906 C 1174.089844 720.519531 1173.53125 720.464844 1172.96875 720.464844 Z M 1164.398438 789.015625 L 1078.710938 789.015625 L 1078.710938 720.464844 L 1100.871094 720.464844 L 1115.488281 735.101562 C 1116.292969 735.902344 1117.222656 736.523438 1118.273438 736.957031 C 1119.324219 737.390625 1120.417969 737.605469 1121.554688 737.601562 L 1164.398438 737.601562 Z M 1164.398438 789.015625 " fill-opacity="1" fill-rule="nonzero"/></g><g clip-path="url(#560eda6ede)"><path fill="#ff0000" d="M 1327.207031 720.464844 L 1279.34375 720.464844 L 1264.722656 705.828125 C 1263.917969 705.027344 1262.992188 704.40625 1261.941406 703.972656 C 1260.890625 703.542969 1259.792969 703.324219 1258.65625 703.328125 L 1224.382812 703.328125 C 1223.820312 703.328125 1223.261719 703.382812 1222.710938 703.492188 C 1222.160156 703.601562 1221.621094 703.765625 1221.101562 703.980469 C 1220.582031 704.195312 1220.089844 704.457031 1219.621094 704.769531 C 1219.152344 705.085938 1218.722656 705.4375 1218.324219 705.835938 C 1217.925781 706.234375 1217.570312 706.667969 1217.257812 707.136719 C 1216.945312 707.601562 1216.679688 708.097656 1216.464844 708.617188 C 1216.25 709.136719 1216.085938 709.671875 1215.976562 710.222656 C 1215.867188 710.777344 1215.8125 711.332031 1215.8125 711.894531 L 1215.8125 797.585938 C 1215.8125 798.148438 1215.867188 798.703125 1215.976562 799.257812 C 1216.085938 799.808594 1216.25 800.34375 1216.464844 800.863281 C 1216.679688 801.382812 1216.945312 801.878906 1217.257812 802.34375 C 1217.570312 802.8125 1217.925781 803.246094 1218.324219 803.644531 C 1218.722656 804.042969 1219.152344 804.398438 1219.621094 804.710938 C 1220.089844 805.023438 1220.582031 805.285156 1221.101562 805.5 C 1221.621094 805.714844 1222.160156 805.878906 1222.710938 805.988281 C 1223.261719 806.097656 1223.820312 806.152344 1224.382812 806.152344 L 1327.207031 806.152344 C 1327.769531 806.152344 1328.328125 806.097656 1328.878906 805.988281 C 1329.433594 805.878906 1329.96875 805.714844 1330.488281 805.5 C 1331.007812 805.285156 1331.5 805.023438 1331.96875 804.710938 C 1332.4375 804.398438 1332.871094 804.042969 1333.265625 803.644531 C 1333.664062 803.246094 1334.019531 802.8125 1334.332031 802.34375 C 1334.644531 801.878906 1334.910156 801.382812 1335.125 800.863281 C 1335.339844 800.34375 1335.503906 799.808594 1335.613281 799.257812 C 1335.722656 798.703125 1335.777344 798.148438 1335.777344 797.585938 L 1335.777344 729.035156 C 1335.777344 728.472656 1335.722656 727.914062 1335.613281 727.363281 C 1335.503906 726.808594 1335.339844 726.273438 1335.125 725.753906 C 1334.910156 725.234375 1334.644531 724.742188 1334.332031 724.273438 C 1334.019531 723.804688 1333.664062 723.371094 1333.265625 722.976562 C 1332.871094 722.578125 1332.4375 722.222656 1331.96875 721.910156 C 1331.5 721.597656 1331.007812 721.332031 1330.488281 721.117188 C 1329.96875 720.902344 1329.433594 720.738281 1328.878906 720.628906 C 1328.328125 720.519531 1327.769531 720.464844 1327.207031 720.464844 Z M 1318.640625 789.015625 L 1232.949219 789.015625 L 1232.949219 720.464844 L 1255.109375 720.464844 L 1269.730469 735.101562 C 1270.535156 735.902344 1271.460938 736.523438 1272.511719 736.957031 C 1273.5625 737.390625 1274.660156 737.605469 1275.796875 737.601562 L 1318.640625 737.601562 Z M 1318.640625 789.015625 " fill-opacity="1" fill-rule="nonzero"/></g><g clip-path="url(#ad94e7cd94)"><path fill="#ff0000" d="M 1039.292969 531.949219 L 1203.816406 531.949219 C 1204.378906 531.949219 1204.9375 531.894531 1205.488281 531.785156 C 1206.039062 531.675781 1206.574219 531.511719 1207.097656 531.296875 C 1207.617188 531.082031 1208.109375 530.820312 1208.578125 530.503906 C 1209.046875 530.191406 1209.476562 529.839844 1209.875 529.441406 C 1210.273438 529.042969 1210.628906 528.609375 1210.941406 528.140625 C 1211.253906 527.675781 1211.519531 527.179688 1211.734375 526.660156 C 1211.949219 526.140625 1212.109375 525.605469 1212.222656 525.054688 C 1212.332031 524.5 1212.386719 523.945312 1212.386719 523.382812 L 1212.386719 413.699219 C 1212.386719 413.136719 1212.332031 412.578125 1212.222656 412.027344 C 1212.109375 411.476562 1211.949219 410.941406 1211.734375 410.421875 C 1211.519531 409.902344 1211.253906 409.40625 1210.941406 408.9375 C 1210.628906 408.472656 1210.273438 408.039062 1209.875 407.640625 C 1209.476562 407.242188 1209.046875 406.886719 1208.578125 406.574219 C 1208.109375 406.261719 1207.617188 406 1207.097656 405.78125 C 1206.574219 405.566406 1206.039062 405.40625 1205.488281 405.296875 C 1204.9375 405.1875 1204.378906 405.128906 1203.816406 405.128906 L 1125.101562 405.128906 L 1100.183594 380.210938 C 1099.382812 379.410156 1098.457031 378.792969 1097.410156 378.359375 C 1096.359375 377.925781 1095.269531 377.710938 1094.136719 377.710938 L 1039.292969 377.710938 C 1038.730469 377.710938 1038.175781 377.765625 1037.621094 377.875 C 1037.070312 377.984375 1036.535156 378.148438 1036.015625 378.363281 C 1035.496094 378.578125 1035 378.84375 1034.535156 379.15625 C 1034.066406 379.46875 1033.632812 379.824219 1033.234375 380.21875 C 1032.835938 380.617188 1032.480469 381.050781 1032.167969 381.519531 C 1031.855469 381.988281 1031.59375 382.480469 1031.378906 383 C 1031.164062 383.519531 1031 384.054688 1030.890625 384.609375 C 1030.78125 385.160156 1030.726562 385.714844 1030.726562 386.277344 L 1030.726562 523.382812 C 1030.726562 523.945312 1030.78125 524.5 1030.890625 525.054688 C 1031 525.605469 1031.164062 526.140625 1031.378906 526.660156 C 1031.59375 527.179688 1031.855469 527.675781 1032.167969 528.140625 C 1032.480469 528.609375 1032.835938 529.042969 1033.234375 529.441406 C 1033.632812 529.839844 1034.066406 530.191406 1034.535156 530.503906 C 1035 530.820312 1035.496094 531.082031 1036.015625 531.296875 C 1036.535156 531.511719 1037.070312 531.675781 1037.621094 531.785156 C 1038.175781 531.894531 1038.730469 531.949219 1039.292969 531.949219 Z M 1047.863281 514.8125 L 1047.863281 497.675781 L 1195.246094 497.675781 L 1195.246094 514.8125 Z M 1090.585938 394.847656 L 1115.488281 419.75 C 1116.292969 420.554688 1117.21875 421.175781 1118.269531 421.613281 C 1119.324219 422.050781 1120.417969 422.269531 1121.554688 422.269531 L 1195.246094 422.269531 L 1195.246094 480.535156 L 1047.863281 480.535156 L 1047.863281 394.847656 Z M 1090.585938 394.847656 " fill-opacity="1" fill-rule="nonzero"/></g><path fill="#ff0000" d="M 967.316406 686.191406 C 967.878906 686.191406 968.4375 686.132812 968.988281 686.023438 C 969.539062 685.914062 970.074219 685.753906 970.59375 685.539062 C 971.113281 685.320312 971.609375 685.058594 972.078125 684.746094 C 972.542969 684.433594 972.976562 684.078125 973.375 683.679688 C 973.773438 683.28125 974.128906 682.847656 974.441406 682.382812 C 974.753906 681.914062 975.015625 681.417969 975.234375 680.898438 C 975.449219 680.378906 975.609375 679.84375 975.71875 679.292969 C 975.832031 678.742188 975.886719 678.183594 975.886719 677.621094 L 975.886719 632.035156 C 975.886719 631.089844 975.980469 630.152344 976.164062 629.226562 C 976.347656 628.300781 976.625 627.402344 976.984375 626.527344 C 977.347656 625.65625 977.792969 624.824219 978.316406 624.039062 C 978.839844 623.253906 979.4375 622.527344 980.105469 621.859375 C 980.773438 621.191406 981.5 620.59375 982.285156 620.070312 C 983.074219 619.542969 983.902344 619.101562 984.773438 618.738281 C 985.648438 618.375 986.546875 618.101562 987.472656 617.917969 C 988.398438 617.734375 989.335938 617.640625 990.28125 617.636719 L 1112.988281 617.636719 L 1112.988281 677.621094 C 1112.988281 678.183594 1113.042969 678.742188 1113.152344 679.292969 C 1113.261719 679.84375 1113.421875 680.378906 1113.640625 680.898438 C 1113.855469 681.417969 1114.117188 681.914062 1114.429688 682.382812 C 1114.742188 682.847656 1115.097656 683.28125 1115.496094 683.679688 C 1115.894531 684.078125 1116.328125 684.433594 1116.796875 684.746094 C 1117.261719 685.058594 1117.757812 685.320312 1118.277344 685.539062 C 1118.796875 685.753906 1119.332031 685.914062 1119.882812 686.023438 C 1120.4375 686.132812 1120.992188 686.191406 1121.554688 686.191406 C 1122.117188 686.191406 1122.675781 686.132812 1123.226562 686.023438 C 1123.777344 685.914062 1124.316406 685.753906 1124.835938 685.539062 C 1125.355469 685.320312 1125.847656 685.058594 1126.316406 684.746094 C 1126.785156 684.433594 1127.21875 684.078125 1127.613281 683.679688 C 1128.011719 683.28125 1128.367188 682.847656 1128.679688 682.382812 C 1128.992188 681.914062 1129.257812 681.417969 1129.472656 680.898438 C 1129.6875 680.378906 1129.851562 679.84375 1129.960938 679.292969 C 1130.070312 678.742188 1130.125 678.183594 1130.125 677.621094 L 1130.125 617.636719 L 1252.832031 617.636719 C 1253.777344 617.640625 1254.710938 617.734375 1255.636719 617.917969 C 1256.566406 618.101562 1257.464844 618.375 1258.335938 618.738281 C 1259.210938 619.101562 1260.039062 619.542969 1260.824219 620.070312 C 1261.609375 620.59375 1262.335938 621.191406 1263.003906 621.859375 C 1263.671875 622.527344 1264.269531 623.253906 1264.796875 624.039062 C 1265.320312 624.824219 1265.765625 625.65625 1266.125 626.527344 C 1266.488281 627.402344 1266.761719 628.300781 1266.945312 629.226562 C 1267.132812 630.152344 1267.226562 631.089844 1267.226562 632.035156 L 1267.226562 677.621094 C 1267.226562 678.183594 1267.28125 678.742188 1267.390625 679.292969 C 1267.5 679.84375 1267.664062 680.378906 1267.878906 680.898438 C 1268.09375 681.417969 1268.359375 681.914062 1268.671875 682.382812 C 1268.984375 682.847656 1269.339844 683.28125 1269.734375 683.679688 C 1270.132812 684.078125 1270.566406 684.433594 1271.035156 684.746094 C 1271.503906 685.058594 1271.996094 685.320312 1272.515625 685.539062 C 1273.035156 685.753906 1273.570312 685.914062 1274.125 686.023438 C 1274.675781 686.132812 1275.234375 686.191406 1275.796875 686.191406 C 1276.359375 686.191406 1276.914062 686.132812 1277.46875 686.023438 C 1278.019531 685.914062 1278.554688 685.753906 1279.074219 685.539062 C 1279.59375 685.320312 1280.089844 685.058594 1280.554688 684.746094 C 1281.023438 684.433594 1281.457031 684.078125 1281.855469 683.679688 C 1282.253906 683.28125 1282.609375 682.847656 1282.921875 682.382812 C 1283.234375 681.914062 1283.496094 681.417969 1283.710938 680.898438 C 1283.925781 680.378906 1284.089844 679.84375 1284.199219 679.292969 C 1284.308594 678.742188 1284.363281 678.183594 1284.363281 677.621094 L 1284.363281 632.035156 C 1284.363281 631 1284.3125 629.972656 1284.210938 628.945312 C 1284.105469 627.917969 1283.953125 626.898438 1283.753906 625.886719 C 1283.550781 624.871094 1283.300781 623.871094 1283 622.882812 C 1282.699219 621.898438 1282.351562 620.925781 1281.953125 619.972656 C 1281.558594 619.019531 1281.117188 618.085938 1280.628906 617.175781 C 1280.144531 616.265625 1279.613281 615.382812 1279.039062 614.523438 C 1278.464844 613.664062 1277.851562 612.835938 1277.195312 612.039062 C 1276.539062 611.242188 1275.847656 610.476562 1275.117188 609.746094 C 1274.386719 609.015625 1273.625 608.324219 1272.828125 607.667969 C 1272.027344 607.015625 1271.199219 606.398438 1270.339844 605.824219 C 1269.484375 605.25 1268.597656 604.722656 1267.6875 604.234375 C 1266.777344 603.746094 1265.847656 603.304688 1264.894531 602.910156 C 1263.9375 602.515625 1262.96875 602.167969 1261.980469 601.867188 C 1260.992188 601.566406 1259.992188 601.316406 1258.980469 601.113281 C 1257.96875 600.910156 1256.949219 600.757812 1255.921875 600.65625 C 1254.894531 600.554688 1253.863281 600.503906 1252.832031 600.5 L 1130.125 600.5 L 1130.125 557.65625 C 1130.125 557.09375 1130.070312 556.535156 1129.960938 555.984375 C 1129.851562 555.433594 1129.6875 554.898438 1129.472656 554.378906 C 1129.257812 553.859375 1128.992188 553.363281 1128.679688 552.894531 C 1128.367188 552.429688 1128.011719 551.996094 1127.613281 551.597656 C 1127.21875 551.199219 1126.785156 550.84375 1126.316406 550.53125 C 1125.847656 550.21875 1125.355469 549.957031 1124.835938 549.738281 C 1124.316406 549.523438 1123.777344 549.363281 1123.226562 549.253906 C 1122.675781 549.144531 1122.117188 549.085938 1121.554688 549.085938 C 1120.992188 549.085938 1120.4375 549.144531 1119.882812 549.253906 C 1119.332031 549.363281 1118.796875 549.523438 1118.277344 549.738281 C 1117.757812 549.957031 1117.261719 550.21875 1116.796875 550.53125 C 1116.328125 550.84375 1115.894531 551.199219 1115.496094 551.597656 C 1115.097656 551.996094 1114.742188 552.429688 1114.429688 552.894531 C 1114.117188 553.363281 1113.855469 553.859375 1113.640625 554.378906 C 1113.421875 554.898438 1113.261719 555.433594 1113.152344 555.984375 C 1113.042969 556.535156 1112.988281 557.09375 1112.988281 557.65625 L 1112.988281 600.5 L 990.28125 600.5 C 989.25 600.503906 988.21875 600.554688 987.191406 600.65625 C 986.164062 600.757812 985.144531 600.910156 984.132812 601.113281 C 983.117188 601.316406 982.117188 601.566406 981.128906 601.867188 C 980.144531 602.167969 979.171875 602.515625 978.21875 602.910156 C 977.265625 603.304688 976.332031 603.746094 975.421875 604.234375 C 974.511719 604.722656 973.628906 605.25 972.769531 605.824219 C 971.910156 606.398438 971.082031 607.015625 970.285156 607.667969 C 969.488281 608.324219 968.722656 609.015625 967.992188 609.746094 C 967.261719 610.476562 966.570312 611.242188 965.914062 612.039062 C 965.261719 612.835938 964.644531 613.664062 964.070312 614.523438 C 963.5 615.382812 962.96875 616.265625 962.480469 617.175781 C 961.992188 618.085938 961.550781 619.019531 961.15625 619.972656 C 960.761719 620.925781 960.414062 621.898438 960.113281 622.882812 C 959.8125 623.871094 959.5625 624.871094 959.359375 625.886719 C 959.15625 626.898438 959.003906 627.917969 958.902344 628.945312 C 958.800781 629.972656 958.75 631 958.746094 632.035156 L 958.746094 677.621094 C 958.746094 678.183594 958.800781 678.742188 958.910156 679.292969 C 959.023438 679.84375 959.183594 680.378906 959.398438 680.898438 C 959.613281 681.417969 959.878906 681.914062 960.191406 682.382812 C 960.503906 682.847656 960.859375 683.28125 961.257812 683.679688 C 961.65625 684.078125 962.085938 684.433594 962.554688 684.746094 C 963.023438 685.058594 963.515625 685.320312 964.035156 685.539062 C 964.558594 685.753906 965.09375 685.914062 965.644531 686.023438 C 966.195312 686.132812 966.753906 686.191406 967.316406 686.191406 Z M 967.316406 686.191406 " fill-opacity="1" fill-rule="nonzero"/></svg>