<svg xmlns="http://www.w3.org/2000/svg" xmlns:xlink="http://www.w3.org/1999/xlink" width="1920" zoomAndPan="magnify" viewBox="0 0 1440 1439.999935" height="1920" preserveAspectRatio="xMidYMid meet" version="1.0"><defs><clipPath id="838ce70195"><path d="M 774 199.148438 L 897.796875 199.148438 L 897.796875 326 L 774 326 Z M 774 199.148438 " clip-rule="nonzero"/></clipPath><clipPath id="3758a2036b"><path d="M 542.296875 428 L 666 428 L 666 554.648438 L 542.296875 554.648438 Z M 542.296875 428 " clip-rule="nonzero"/></clipPath><clipPath id="dcb62c8ea1"><path d="M 960.269531 983 L 1126 983 L 1126 1149 L 960.269531 1149 Z M 960.269531 983 " clip-rule="nonzero"/></clipPath><clipPath id="9fe5bfa9a8"><path d="M 1043 924.6875 L 1209 924.6875 L 1209 1040 L 1043 1040 Z M 1043 924.6875 " clip-rule="nonzero"/></clipPath><clipPath id="983f879d26"><path d="M 989 1012 L 1248.269531 1012 L 1248.269531 1241 L 989 1241 Z M 989 1012 " clip-rule="nonzero"/></clipPath></defs><path fill="#ff0000" d="M 534.855469 144 C 478.179688 144 432 190.179688 432 246.855469 L 432 555.429688 L 223.179688 555.429688 C 179.570312 555.429688 144 591.320312 144 635.035156 L 144 969.535156 C 144 1013.25 179.570312 1049.144531 223.179688 1049.144531 L 432 1049.144531 L 432 1193.144531 C 432 1249.820312 478.179688 1296 534.855469 1296 L 1193.144531 1296 C 1249.820312 1296 1296 1249.820312 1296 1193.144531 L 1296 473.144531 C 1296 454.394531 1288.394531 436.714844 1275.535156 423.644531 L 1022.679688 164.679688 C 1009.5 151.179688 991.394531 144 972.855469 144 Z M 534.855469 185.144531 L 966.855469 185.144531 L 966.855469 390.855469 C 966.855469 436.070312 1003.929688 473.144531 1049.144531 473.144531 L 1254.855469 473.144531 L 1254.855469 1193.144531 C 1254.855469 1227.644531 1227.644531 1254.855469 1193.144531 1254.855469 L 534.855469 1254.855469 C 500.355469 1254.855469 473.144531 1227.644531 473.144531 1193.144531 L 473.144531 1049.144531 L 887.679688 1049.144531 C 931.285156 1049.144531 966.855469 1013.25 966.855469 969.535156 L 966.855469 635.035156 C 966.855469 591.320312 931.285156 555.429688 887.679688 555.429688 L 473.144531 555.429688 L 473.144531 246.855469 C 473.144531 212.355469 500.355469 185.144531 534.855469 185.144531 Z M 1008 208.605469 L 1226.25 432 L 1049.144531 432 C 1026 432 1008 414 1008 390.855469 Z M 223.179688 596.570312 L 887.679688 596.570312 C 909 596.570312 925.714844 613.285156 925.714844 635.035156 L 925.714844 969.535156 C 925.714844 991.285156 909 1008 887.679688 1008 L 223.179688 1008 C 201.855469 1008 185.144531 991.285156 185.144531 969.535156 L 185.144531 635.035156 C 185.144531 613.285156 201.855469 596.570312 223.179688 596.570312 Z M 223.179688 596.570312 " fill-opacity="1" fill-rule="nonzero"/><path fill="#ff0000" d="M 288 678.855469 C 276.644531 678.855469 267.429688 688.070312 267.429688 699.429688 C 267.429688 768 267.429688 836.570312 267.429688 905.144531 C 267.429688 916.5 276.644531 925.714844 288 925.714844 C 299.355469 925.714844 308.570312 916.5 308.570312 905.144531 L 308.570312 843.429688 L 349.714844 843.429688 C 394.929688 843.429688 432 806.355469 432 761.144531 C 432 715.929688 394.929688 678.855469 349.714844 678.855469 Z M 308.570312 720 L 349.714844 720 C 372.855469 720 390.855469 738 390.855469 761.144531 C 390.855469 784.285156 372.855469 802.285156 349.714844 802.285156 L 308.570312 802.285156 Z M 308.570312 720 " fill-opacity="1" fill-rule="nonzero"/><path fill="#ff0000" d="M 493.714844 678.855469 C 482.355469 678.855469 473.144531 688.070312 473.144531 699.429688 L 473.144531 905.144531 C 473.144531 916.5 482.355469 925.714844 493.714844 925.714844 L 511.394531 925.714844 C 580.714844 925.714844 637.714844 870.644531 637.714844 802.285156 C 637.714844 733.929688 580.714844 678.855469 511.394531 678.855469 Z M 514.285156 720.535156 C 560.679688 722.144531 596.570312 757.605469 596.570312 802.285156 C 596.570312 846.964844 560.679688 882.429688 514.285156 884.035156 Z M 514.285156 720.535156 " fill-opacity="1" fill-rule="nonzero"/><path fill="#ff0000" d="M 699.429688 678.855469 C 688.070312 678.855469 678.855469 688.070312 678.855469 699.429688 C 678.855469 768 678.855469 836.570312 678.855469 905.144531 C 678.855469 916.5 688.070312 925.714844 699.429688 925.714844 C 710.785156 925.714844 720 916.5 720 905.144531 L 720 820.179688 L 822.855469 820.179688 C 834.214844 820.179688 843.429688 810.964844 843.429688 799.605469 C 843.429688 788.25 834.214844 779.035156 822.855469 779.035156 L 720 779.035156 L 720 720 L 822.855469 720 C 834.214844 720 843.429688 710.785156 843.429688 699.429688 C 843.429688 688.070312 834.214844 678.855469 822.855469 678.855469 Z M 699.429688 678.855469 " fill-opacity="1" fill-rule="nonzero"/><path fill="#ff0000" d="M 644.28125 330.644531 C 647.207031 327.835938 649.863281 324.792969 652.246094 321.511719 C 654.628906 318.226562 656.703125 314.757812 658.464844 311.105469 C 660.226562 307.453125 661.648438 303.671875 662.734375 299.765625 C 663.820312 295.855469 664.550781 291.882812 664.925781 287.84375 L 623.835938 287.84375 C 624.246094 291.863281 624.996094 295.820312 626.089844 299.710938 C 627.179688 303.605469 628.597656 307.375 630.339844 311.019531 C 632.082031 314.667969 634.121094 318.140625 636.464844 321.433594 C 638.804688 324.730469 641.410156 327.800781 644.28125 330.644531 Z M 644.28125 330.644531 " fill-opacity="1" fill-rule="nonzero"/><path fill="#ff0000" d="M 731.738281 370.125 L 731.738281 232.710938 C 731.742188 232.097656 731.714844 231.488281 731.65625 230.878906 C 731.597656 230.269531 731.511719 229.667969 731.398438 229.066406 C 731.28125 228.464844 731.136719 227.871094 730.960938 227.285156 C 730.785156 226.699219 730.585938 226.125 730.355469 225.558594 C 730.125 224.992188 729.867188 224.4375 729.582031 223.898438 C 729.296875 223.355469 728.984375 222.828125 728.648438 222.320312 C 728.3125 221.808594 727.953125 221.316406 727.566406 220.839844 C 727.183594 220.363281 726.777344 219.90625 726.347656 219.472656 C 725.917969 219.035156 725.46875 218.621094 725 218.230469 C 724.53125 217.839844 724.042969 217.472656 723.539062 217.125 C 723.03125 216.78125 722.511719 216.464844 721.976562 216.171875 C 721.4375 215.878906 720.890625 215.609375 720.328125 215.371094 C 719.761719 215.132812 719.191406 214.921875 718.605469 214.738281 C 718.023438 214.554688 717.433594 214.398438 716.835938 214.273438 C 716.234375 214.148438 715.632812 214.050781 715.023438 213.984375 C 714.417969 213.917969 713.808594 213.882812 713.195312 213.875 L 575.796875 213.875 C 575.179688 213.875 574.566406 213.902344 573.953125 213.964844 C 573.335938 214.023438 572.726562 214.113281 572.121094 214.234375 C 571.519531 214.355469 570.921875 214.503906 570.328125 214.683594 C 569.738281 214.859375 569.160156 215.070312 568.589844 215.304688 C 568.019531 215.539062 567.460938 215.804688 566.917969 216.09375 C 566.375 216.386719 565.847656 216.703125 565.332031 217.042969 C 564.820312 217.386719 564.324219 217.753906 563.847656 218.144531 C 563.371094 218.539062 562.914062 218.953125 562.480469 219.386719 C 562.042969 219.824219 561.628906 220.28125 561.238281 220.757812 C 560.847656 221.234375 560.480469 221.730469 560.140625 222.242188 C 559.796875 222.757812 559.480469 223.285156 559.191406 223.828125 C 558.898438 224.375 558.636719 224.929688 558.402344 225.5 C 558.164062 226.070312 557.957031 226.652344 557.78125 227.242188 C 557.601562 227.832031 557.453125 228.429688 557.332031 229.035156 C 557.214844 229.640625 557.125 230.25 557.066406 230.863281 C 557.003906 231.476562 556.976562 232.09375 556.976562 232.710938 L 556.976562 370.125 C 556.984375 370.734375 557.019531 371.347656 557.082031 371.953125 C 557.148438 372.5625 557.242188 373.164062 557.367188 373.765625 C 557.492188 374.363281 557.644531 374.953125 557.828125 375.539062 C 558.011719 376.121094 558.222656 376.695312 558.460938 377.257812 C 558.699219 377.820312 558.964844 378.371094 559.257812 378.910156 C 559.550781 379.445312 559.867188 379.96875 560.210938 380.472656 C 560.554688 380.976562 560.921875 381.464844 561.316406 381.9375 C 561.707031 382.40625 562.121094 382.855469 562.554688 383.285156 C 562.992188 383.714844 563.445312 384.121094 563.921875 384.503906 C 564.398438 384.890625 564.890625 385.25 565.402344 385.585938 C 565.914062 385.921875 566.441406 386.234375 566.980469 386.515625 C 567.523438 386.800781 568.074219 387.058594 568.644531 387.289062 C 569.210938 387.519531 569.785156 387.722656 570.371094 387.894531 C 570.957031 388.070312 571.550781 388.214844 572.152344 388.328125 C 572.753906 388.445312 573.359375 388.53125 573.964844 388.585938 C 574.574219 388.644531 575.1875 388.671875 575.796875 388.667969 L 713.164062 388.667969 C 713.773438 388.664062 714.378906 388.632812 714.980469 388.570312 C 715.585938 388.507812 716.183594 388.414062 716.777344 388.296875 C 717.375 388.175781 717.960938 388.027344 718.542969 387.847656 C 719.121094 387.671875 719.691406 387.464844 720.25 387.230469 C 720.8125 387 721.359375 386.738281 721.894531 386.453125 C 722.429688 386.164062 722.949219 385.851562 723.453125 385.515625 C 723.957031 385.175781 724.445312 384.816406 724.914062 384.429688 C 725.382812 384.046875 725.832031 383.640625 726.261719 383.210938 C 726.691406 382.78125 727.097656 382.332031 727.484375 381.863281 C 727.871094 381.398438 728.230469 380.910156 728.570312 380.40625 C 728.90625 379.902344 729.222656 379.382812 729.507812 378.847656 C 729.796875 378.316406 730.058594 377.769531 730.292969 377.207031 C 730.527344 376.648438 730.730469 376.078125 730.910156 375.5 C 731.089844 374.917969 731.238281 374.332031 731.359375 373.738281 C 731.484375 373.144531 731.574219 372.542969 731.636719 371.941406 C 731.699219 371.335938 731.734375 370.730469 731.738281 370.125 Z M 693.570312 350.65625 C 694.058594 350.664062 694.539062 350.71875 695.011719 350.820312 C 695.488281 350.921875 695.949219 351.070312 696.398438 351.257812 C 696.84375 351.449219 697.269531 351.679688 697.671875 351.953125 C 698.074219 352.226562 698.445312 352.535156 698.789062 352.878906 C 699.128906 353.222656 699.4375 353.597656 699.707031 354 C 699.980469 354.402344 700.207031 354.828125 700.398438 355.277344 C 700.585938 355.722656 700.730469 356.183594 700.828125 356.660156 C 700.929688 357.136719 700.980469 357.617188 700.988281 358.101562 C 700.992188 358.589844 700.949219 359.074219 700.855469 359.554688 C 700.761719 360.035156 700.621094 360.5 700.4375 360.949219 C 700.253906 361.402344 700.023438 361.832031 699.753906 362.238281 C 699.484375 362.644531 699.175781 363.019531 698.832031 363.367188 C 698.488281 363.710938 698.109375 364.019531 697.703125 364.292969 C 697.300781 364.5625 696.871094 364.792969 696.417969 364.976562 C 695.96875 365.164062 695.503906 365.304688 695.023438 365.398438 C 694.542969 365.492188 694.058594 365.539062 693.574219 365.535156 C 689.183594 365.550781 684.820312 365.222656 680.480469 364.558594 C 676.140625 363.890625 671.882812 362.894531 667.699219 361.566406 C 663.515625 360.234375 659.460938 358.589844 655.535156 356.628906 C 651.605469 354.667969 647.855469 352.414062 644.28125 349.867188 C 640.738281 352.414062 637.019531 354.667969 633.125 356.628906 C 629.230469 358.589844 625.203125 360.238281 621.050781 361.566406 C 616.894531 362.894531 612.664062 363.894531 608.351562 364.558594 C 604.042969 365.226562 599.707031 365.550781 595.34375 365.535156 C 594.855469 365.539062 594.371094 365.492188 593.890625 365.398438 C 593.414062 365.304688 592.945312 365.164062 592.496094 364.976562 C 592.042969 364.792969 591.613281 364.5625 591.207031 364.292969 C 590.800781 364.019531 590.425781 363.714844 590.078125 363.367188 C 589.734375 363.023438 589.425781 362.644531 589.15625 362.238281 C 588.882812 361.832031 588.65625 361.402344 588.46875 360.953125 C 588.285156 360.5 588.144531 360.035156 588.050781 359.554688 C 587.957031 359.074219 587.910156 358.589844 587.910156 358.101562 C 587.921875 357.617188 587.976562 357.136719 588.078125 356.660156 C 588.179688 356.1875 588.324219 355.726562 588.511719 355.277344 C 588.703125 354.828125 588.933594 354.40625 589.207031 354 C 589.476562 353.597656 589.785156 353.226562 590.128906 352.882812 C 590.46875 352.539062 590.84375 352.230469 591.246094 351.957031 C 591.648438 351.683594 592.074219 351.453125 592.519531 351.261719 C 592.96875 351.070312 593.429688 350.925781 593.902344 350.824219 C 594.378906 350.722656 594.859375 350.664062 595.34375 350.65625 C 601.921875 350.644531 608.367188 349.730469 614.6875 347.90625 C 621.003906 346.082031 626.949219 343.425781 632.523438 339.929688 C 629.113281 336.433594 626.027344 332.671875 623.265625 328.644531 C 620.5 324.617188 618.101562 320.386719 616.058594 315.949219 C 614.019531 311.511719 612.371094 306.9375 611.113281 302.214844 C 609.855469 297.496094 609.007812 292.707031 608.570312 287.84375 L 595.40625 287.84375 C 594.933594 287.820312 594.464844 287.753906 594.003906 287.644531 C 593.539062 287.53125 593.09375 287.378906 592.660156 287.183594 C 592.230469 286.984375 591.820312 286.75 591.433594 286.476562 C 591.046875 286.199219 590.6875 285.890625 590.359375 285.546875 C 590.03125 285.203125 589.738281 284.832031 589.484375 284.433594 C 589.226562 284.035156 589.007812 283.613281 588.832031 283.175781 C 588.65625 282.734375 588.523438 282.28125 588.433594 281.8125 C 588.34375 281.347656 588.296875 280.878906 588.296875 280.402344 C 588.296875 279.929688 588.34375 279.457031 588.433594 278.992188 C 588.523438 278.523438 588.65625 278.070312 588.832031 277.632812 C 589.007812 277.191406 589.226562 276.769531 589.484375 276.371094 C 589.738281 275.972656 590.03125 275.601562 590.359375 275.257812 C 590.6875 274.914062 591.046875 274.605469 591.433594 274.332031 C 591.820312 274.054688 592.230469 273.820312 592.660156 273.625 C 593.09375 273.425781 593.539062 273.273438 594.003906 273.160156 C 594.464844 273.050781 594.933594 272.984375 595.40625 272.960938 L 636.878906 272.960938 L 636.878906 244.421875 C 636.890625 243.9375 636.945312 243.460938 637.046875 242.984375 C 637.148438 242.511719 637.296875 242.050781 637.484375 241.605469 C 637.671875 241.160156 637.902344 240.734375 638.171875 240.332031 C 638.445312 239.933594 638.75 239.558594 639.089844 239.214844 C 639.433594 238.871094 639.800781 238.5625 640.203125 238.289062 C 640.601562 238.015625 641.023438 237.78125 641.46875 237.589844 C 641.914062 237.394531 642.371094 237.246094 642.84375 237.140625 C 643.316406 237.035156 643.796875 236.972656 644.28125 236.960938 C 644.769531 236.957031 645.257812 237.003906 645.738281 237.101562 C 646.21875 237.195312 646.6875 237.335938 647.140625 237.523438 C 647.59375 237.710938 648.023438 237.941406 648.429688 238.210938 C 648.839844 238.484375 649.214844 238.792969 649.5625 239.140625 C 649.910156 239.488281 650.21875 239.863281 650.492188 240.273438 C 650.761719 240.679688 650.992188 241.113281 651.179688 241.566406 C 651.367188 242.019531 651.507812 242.484375 651.601562 242.964844 C 651.699219 243.445312 651.746094 243.933594 651.742188 244.421875 L 651.742188 272.960938 L 693.464844 272.960938 C 693.9375 272.984375 694.40625 273.050781 694.867188 273.160156 C 695.328125 273.273438 695.777344 273.425781 696.207031 273.625 C 696.640625 273.820312 697.050781 274.054688 697.4375 274.332031 C 697.824219 274.605469 698.183594 274.914062 698.511719 275.257812 C 698.839844 275.601562 699.128906 275.972656 699.386719 276.371094 C 699.644531 276.769531 699.859375 277.191406 700.039062 277.632812 C 700.214844 278.070312 700.347656 278.523438 700.4375 278.992188 C 700.527344 279.457031 700.574219 279.929688 700.574219 280.402344 C 700.574219 280.878906 700.527344 281.347656 700.4375 281.8125 C 700.347656 282.28125 700.214844 282.734375 700.039062 283.175781 C 699.859375 283.613281 699.644531 284.035156 699.386719 284.433594 C 699.128906 284.832031 698.839844 285.203125 698.511719 285.546875 C 698.183594 285.890625 697.824219 286.199219 697.4375 286.476562 C 697.050781 286.75 696.640625 286.984375 696.207031 287.183594 C 695.777344 287.378906 695.328125 287.53125 694.867188 287.644531 C 694.40625 287.753906 693.9375 287.820312 693.464844 287.84375 L 680.113281 287.84375 C 679.726562 292.707031 678.917969 297.5 677.695312 302.222656 C 676.472656 306.945312 674.851562 311.527344 672.828125 315.96875 C 670.804688 320.410156 668.414062 324.640625 665.65625 328.667969 C 662.894531 332.691406 659.808594 336.445312 656.394531 339.929688 C 661.949219 343.460938 667.890625 346.136719 674.214844 347.960938 C 680.539062 349.785156 686.992188 350.683594 693.570312 350.65625 Z M 693.570312 350.65625 " fill-opacity="1" fill-rule="nonzero"/><path fill="#ff0000" d="M 864.332031 365.039062 L 746.632812 365.039062 L 746.632812 370.125 C 746.628906 371.21875 746.570312 372.308594 746.457031 373.398438 C 746.34375 374.484375 746.179688 375.566406 745.960938 376.636719 C 745.746094 377.710938 745.476562 378.769531 745.15625 379.8125 C 744.832031 380.859375 744.460938 381.886719 744.039062 382.898438 C 743.617188 383.90625 743.148438 384.894531 742.628906 385.855469 C 742.113281 386.820312 741.546875 387.753906 740.9375 388.664062 C 740.328125 389.570312 739.675781 390.449219 738.980469 391.292969 C 738.285156 392.136719 737.550781 392.945312 736.777344 393.71875 C 736.003906 394.492188 735.195312 395.226562 734.347656 395.917969 C 733.503906 396.613281 732.625 397.261719 731.714844 397.871094 C 730.804688 398.480469 729.867188 399.039062 728.902344 399.558594 C 727.941406 400.074219 726.953125 400.542969 725.941406 400.960938 C 724.933594 401.382812 723.902344 401.75 722.859375 402.070312 C 721.8125 402.390625 720.753906 402.65625 719.679688 402.871094 C 718.605469 403.089844 717.527344 403.25 716.4375 403.359375 C 715.351562 403.472656 714.257812 403.527344 713.164062 403.53125 L 708.328125 403.53125 L 708.328125 521.261719 C 708.328125 521.867188 708.359375 522.476562 708.417969 523.082031 C 708.480469 523.6875 708.566406 524.292969 708.6875 524.890625 C 708.804688 525.484375 708.953125 526.078125 709.132812 526.660156 C 709.308594 527.242188 709.515625 527.816406 709.75 528.378906 C 709.984375 528.941406 710.242188 529.488281 710.53125 530.027344 C 710.820312 530.5625 711.132812 531.085938 711.472656 531.589844 C 711.8125 532.097656 712.175781 532.585938 712.5625 533.054688 C 712.949219 533.523438 713.359375 533.972656 713.792969 534.402344 C 714.222656 534.832031 714.675781 535.242188 715.148438 535.625 C 715.621094 536.011719 716.109375 536.371094 716.617188 536.710938 C 717.125 537.046875 717.648438 537.359375 718.1875 537.644531 C 718.726562 537.929688 719.277344 538.1875 719.839844 538.417969 C 720.402344 538.648438 720.976562 538.851562 721.5625 539.027344 C 722.144531 539.199219 722.734375 539.34375 723.332031 539.460938 C 723.929688 539.578125 724.535156 539.664062 725.140625 539.722656 C 725.746094 539.777344 726.355469 539.804688 726.964844 539.800781 L 864.332031 539.800781 C 864.9375 539.800781 865.542969 539.773438 866.148438 539.714844 C 866.753906 539.652344 867.351562 539.5625 867.949219 539.445312 C 868.542969 539.328125 869.132812 539.179688 869.714844 539.003906 C 870.296875 538.828125 870.867188 538.625 871.425781 538.390625 C 871.988281 538.160156 872.535156 537.898438 873.074219 537.613281 C 873.609375 537.328125 874.128906 537.015625 874.632812 536.675781 C 875.136719 536.339844 875.625 535.980469 876.09375 535.59375 C 876.5625 535.207031 877.011719 534.800781 877.441406 534.371094 C 877.871094 533.941406 878.28125 533.492188 878.664062 533.023438 C 879.050781 532.554688 879.410156 532.066406 879.75 531.5625 C 880.085938 531.054688 880.398438 530.535156 880.683594 530 C 880.972656 529.464844 881.230469 528.917969 881.460938 528.355469 C 881.695312 527.792969 881.898438 527.222656 882.074219 526.640625 C 882.25 526.0625 882.398438 525.472656 882.519531 524.878906 C 882.636719 524.28125 882.726562 523.683594 882.785156 523.078125 C 882.84375 522.472656 882.875 521.867188 882.875 521.261719 L 882.875 383.847656 C 882.882812 383.234375 882.859375 382.621094 882.808594 382.011719 C 882.757812 381.398438 882.675781 380.792969 882.5625 380.191406 C 882.449219 379.589844 882.308594 378.992188 882.136719 378.40625 C 881.96875 377.816406 881.765625 377.238281 881.539062 376.667969 C 881.308594 376.101562 881.054688 375.542969 880.769531 375 C 880.488281 374.457031 880.175781 373.929688 879.839844 373.417969 C 879.503906 372.90625 879.144531 372.410156 878.757812 371.933594 C 878.375 371.457031 877.96875 371 877.535156 370.5625 C 877.105469 370.128906 876.65625 369.714844 876.183594 369.324219 C 875.714844 368.929688 875.222656 368.5625 874.714844 368.21875 C 874.207031 367.878906 873.683594 367.558594 873.144531 367.269531 C 872.605469 366.976562 872.054688 366.714844 871.488281 366.476562 C 870.921875 366.242188 870.347656 366.03125 869.761719 365.851562 C 869.175781 365.675781 868.582031 365.523438 867.980469 365.402344 C 867.378906 365.28125 866.773438 365.191406 866.164062 365.132812 C 865.554688 365.070312 864.945312 365.039062 864.332031 365.039062 Z M 835.960938 510.289062 C 835.503906 510.457031 835.03125 510.582031 834.550781 510.660156 C 834.066406 510.734375 833.582031 510.765625 833.09375 510.75 C 832.605469 510.734375 832.121094 510.671875 831.644531 510.5625 C 831.171875 510.453125 830.707031 510.296875 830.261719 510.101562 C 829.816406 509.902344 829.390625 509.660156 828.992188 509.382812 C 828.589844 509.101562 828.222656 508.785156 827.882812 508.433594 C 827.542969 508.082031 827.242188 507.699219 826.976562 507.289062 C 826.710938 506.878906 826.488281 506.445312 826.304688 505.992188 L 817.375 481.269531 L 774.078125 481.269531 L 765.023438 505.992188 C 764.746094 506.691406 764.375 507.335938 763.910156 507.925781 C 763.441406 508.515625 762.898438 509.019531 762.277344 509.445312 C 761.65625 509.871094 760.988281 510.199219 760.273438 510.421875 C 759.554688 510.648438 758.820312 510.761719 758.070312 510.769531 C 757.144531 510.765625 756.246094 510.605469 755.378906 510.289062 C 754.929688 510.121094 754.5 509.914062 754.09375 509.660156 C 753.683594 509.410156 753.304688 509.121094 752.953125 508.792969 C 752.601562 508.46875 752.285156 508.109375 752.007812 507.71875 C 751.726562 507.332031 751.488281 506.917969 751.289062 506.480469 C 751.089844 506.042969 750.9375 505.59375 750.828125 505.125 C 750.71875 504.65625 750.660156 504.183594 750.644531 503.703125 C 750.628906 503.226562 750.660156 502.75 750.738281 502.277344 C 750.820312 501.804688 750.945312 501.34375 751.117188 500.894531 L 788.695312 399.019531 C 788.941406 398.296875 789.292969 397.625 789.75 397.011719 C 790.203125 396.394531 790.738281 395.863281 791.355469 395.410156 C 791.972656 394.957031 792.644531 394.609375 793.367188 394.363281 C 794.09375 394.117188 794.835938 393.984375 795.601562 393.96875 C 796.386719 393.972656 797.15625 394.09375 797.902344 394.332031 C 798.652344 394.570312 799.347656 394.917969 799.992188 395.367188 C 800.632812 395.820312 801.195312 396.355469 801.675781 396.980469 C 802.15625 397.601562 802.53125 398.28125 802.800781 399.019531 L 840.304688 500.894531 C 840.476562 501.347656 840.601562 501.8125 840.679688 502.289062 C 840.761719 502.765625 840.792969 503.246094 840.777344 503.730469 C 840.761719 504.214844 840.695312 504.691406 840.585938 505.160156 C 840.472656 505.632812 840.316406 506.085938 840.113281 506.527344 C 839.914062 506.964844 839.667969 507.382812 839.382812 507.773438 C 839.097656 508.164062 838.777344 508.523438 838.421875 508.847656 C 838.066406 509.175781 837.679688 509.464844 837.265625 509.714844 C 836.851562 509.964844 836.417969 510.171875 835.960938 510.335938 Z M 835.960938 510.289062 " fill-opacity="1" fill-rule="nonzero"/><path fill="#ff0000" d="M 779.5625 466.484375 L 811.703125 466.484375 L 795.523438 422.863281 Z M 779.5625 466.484375 " fill-opacity="1" fill-rule="nonzero"/><g clip-path="url(#838ce70195)"><path fill="#ff0000" d="M 897.769531 315.191406 C 897.769531 313.292969 897.722656 311.390625 897.628906 309.492188 C 897.535156 307.59375 897.394531 305.699219 897.207031 303.804688 C 897.019531 301.914062 896.789062 300.027344 896.507812 298.144531 C 896.230469 296.265625 895.902344 294.390625 895.53125 292.527344 C 895.160156 290.664062 894.742188 288.808594 894.28125 286.964844 C 893.820312 285.121094 893.3125 283.289062 892.761719 281.46875 C 892.207031 279.648438 891.613281 277.84375 890.96875 276.054688 C 890.328125 274.265625 889.644531 272.492188 888.917969 270.734375 C 888.191406 268.976562 887.417969 267.238281 886.605469 265.519531 C 885.792969 263.800781 884.9375 262.105469 884.042969 260.425781 C 883.144531 258.75 882.207031 257.097656 881.230469 255.464844 C 880.253906 253.835938 879.238281 252.230469 878.179688 250.648438 C 877.125 249.066406 876.03125 247.511719 874.898438 245.988281 C 873.765625 244.460938 872.59375 242.960938 871.386719 241.492188 C 870.183594 240.019531 868.941406 238.582031 867.664062 237.171875 C 866.386719 235.765625 865.078125 234.386719 863.730469 233.042969 C 862.386719 231.699219 861.011719 230.386719 859.601562 229.109375 C 858.195312 227.832031 856.753906 226.589844 855.285156 225.386719 C 853.816406 224.179688 852.316406 223.007812 850.789062 221.875 C 849.261719 220.742188 847.710938 219.648438 846.128906 218.59375 C 844.546875 217.535156 842.941406 216.519531 841.3125 215.539062 C 839.679688 214.5625 838.027344 213.625 836.351562 212.730469 C 834.671875 211.832031 832.976562 210.976562 831.257812 210.164062 C 829.539062 209.351562 827.800781 208.582031 826.042969 207.851562 C 824.289062 207.125 822.515625 206.441406 820.722656 205.796875 C 818.933594 205.15625 817.128906 204.5625 815.308594 204.007812 C 813.492188 203.457031 811.660156 202.949219 809.816406 202.484375 C 807.96875 202.023438 806.117188 201.605469 804.25 201.234375 C 802.386719 200.863281 800.515625 200.539062 798.632812 200.257812 C 796.753906 199.976562 794.867188 199.746094 792.972656 199.558594 C 791.082031 199.371094 789.1875 199.230469 787.289062 199.136719 C 785.386719 199.042969 783.488281 198.996094 781.585938 198.996094 C 781.101562 199.003906 780.621094 199.058594 780.144531 199.164062 C 779.667969 199.265625 779.207031 199.414062 778.761719 199.605469 C 778.3125 199.792969 777.890625 200.027344 777.488281 200.300781 C 777.085938 200.574219 776.710938 200.882812 776.371094 201.226562 C 776.027344 201.570312 775.71875 201.945312 775.449219 202.351562 C 775.179688 202.753906 774.949219 203.179688 774.761719 203.628906 C 774.574219 204.078125 774.429688 204.539062 774.328125 205.015625 C 774.230469 205.492188 774.175781 205.972656 774.167969 206.457031 C 774.167969 206.945312 774.214844 207.429688 774.308594 207.90625 C 774.402344 208.386719 774.539062 208.851562 774.726562 209.300781 C 774.910156 209.75 775.140625 210.179688 775.410156 210.585938 C 775.679688 210.992188 775.988281 211.367188 776.332031 211.710938 C 776.675781 212.054688 777.054688 212.363281 777.457031 212.632812 C 777.863281 212.90625 778.292969 213.132812 778.742188 213.316406 C 779.195312 213.503906 779.660156 213.644531 780.136719 213.738281 C 780.617188 213.832031 781.097656 213.875 781.585938 213.875 C 783.195312 213.875 784.800781 213.910156 786.410156 213.988281 C 788.015625 214.0625 789.617188 214.179688 791.21875 214.332031 C 792.820312 214.484375 794.417969 214.675781 796.007812 214.902344 C 797.601562 215.132812 799.1875 215.398438 800.765625 215.703125 C 802.347656 216.007812 803.917969 216.351562 805.480469 216.730469 C 807.042969 217.109375 808.59375 217.527344 810.136719 217.980469 C 811.679688 218.433594 813.214844 218.925781 814.734375 219.449219 C 816.253906 219.976562 817.757812 220.539062 819.25 221.140625 C 820.742188 221.738281 822.222656 222.371094 823.683594 223.039062 C 825.144531 223.710938 826.59375 224.414062 828.019531 225.152344 C 829.449219 225.890625 830.859375 226.664062 832.253906 227.46875 C 833.644531 228.273438 835.015625 229.113281 836.367188 229.984375 C 837.71875 230.855469 839.050781 231.757812 840.359375 232.691406 C 841.667969 233.625 842.953125 234.589844 844.21875 235.585938 C 845.480469 236.582031 846.71875 237.609375 847.933594 238.664062 C 849.148438 239.71875 850.335938 240.800781 851.496094 241.914062 C 852.660156 243.023438 853.792969 244.164062 854.902344 245.328125 C 856.011719 246.496094 857.089844 247.6875 858.140625 248.90625 C 859.191406 250.121094 860.214844 251.363281 861.203125 252.628906 C 862.195312 253.894531 863.15625 255.183594 864.085938 256.496094 C 865.019531 257.808594 865.917969 259.144531 866.78125 260.5 C 867.648438 261.851562 868.484375 263.226562 869.285156 264.621094 C 870.085938 266.015625 870.851562 267.429688 871.585938 268.863281 C 872.320312 270.292969 873.019531 271.742188 873.683594 273.207031 C 874.347656 274.671875 874.976562 276.148438 875.570312 277.644531 C 876.164062 279.140625 876.722656 280.648438 877.242188 282.167969 C 877.765625 283.691406 878.25 285.222656 878.699219 286.769531 C 879.148438 288.3125 879.558594 289.867188 879.933594 291.429688 C 880.308594 292.996094 880.644531 294.566406 880.941406 296.148438 C 881.242188 297.726562 881.503906 299.3125 881.726562 300.90625 C 881.949219 302.5 882.136719 304.097656 882.285156 305.699219 C 882.429688 307.300781 882.539062 308.902344 882.609375 310.511719 L 857.191406 310.511719 C 856.703125 310.503906 856.214844 310.550781 855.730469 310.640625 C 855.25 310.734375 854.78125 310.871094 854.324219 311.058594 C 853.871094 311.242188 853.4375 311.472656 853.027344 311.746094 C 852.617188 312.015625 852.238281 312.328125 851.890625 312.675781 C 851.542969 313.019531 851.234375 313.398438 850.964844 313.808594 C 850.691406 314.21875 850.460938 314.652344 850.277344 315.105469 C 850.089844 315.5625 849.953125 316.03125 849.859375 316.511719 C 849.769531 316.996094 849.722656 317.484375 849.730469 317.972656 C 849.738281 318.460938 849.792969 318.941406 849.894531 319.417969 C 849.996094 319.894531 850.144531 320.355469 850.335938 320.800781 C 850.527344 321.25 850.757812 321.675781 851.03125 322.078125 C 851.304688 322.480469 851.613281 322.851562 851.957031 323.195312 C 852.304688 323.539062 852.675781 323.84375 853.082031 324.117188 C 853.484375 324.386719 853.914062 324.617188 854.359375 324.804688 C 854.808594 324.992188 855.273438 325.136719 855.75 325.234375 C 856.226562 325.332031 856.707031 325.386719 857.191406 325.390625 L 890.304688 325.390625 C 890.796875 325.394531 891.28125 325.347656 891.757812 325.257812 C 892.238281 325.164062 892.707031 325.023438 893.160156 324.839844 C 893.613281 324.65625 894.042969 324.425781 894.449219 324.15625 C 894.855469 323.886719 895.234375 323.578125 895.582031 323.234375 C 895.925781 322.890625 896.238281 322.515625 896.511719 322.109375 C 896.78125 321.703125 897.011719 321.273438 897.199219 320.824219 C 897.386719 320.371094 897.53125 319.90625 897.625 319.425781 C 897.722656 318.949219 897.769531 318.464844 897.769531 317.972656 C 897.722656 317.5 897.621094 317.035156 897.476562 316.582031 C 897.617188 316.128906 897.714844 315.664062 897.769531 315.191406 Z M 897.769531 315.191406 " fill-opacity="1" fill-rule="nonzero"/></g><g clip-path="url(#3758a2036b)"><path fill="#ff0000" d="M 658.3125 539.816406 C 656.707031 539.8125 655.101562 539.773438 653.5 539.691406 C 651.898438 539.613281 650.296875 539.492188 648.699219 539.339844 C 647.101562 539.183594 645.511719 538.988281 643.921875 538.757812 C 642.332031 538.527344 640.753906 538.257812 639.175781 537.949219 C 637.601562 537.644531 636.035156 537.300781 634.476562 536.917969 C 632.917969 536.539062 631.367188 536.121094 629.828125 535.664062 C 628.289062 535.210938 626.761719 534.71875 625.246094 534.195312 C 623.730469 533.667969 622.226562 533.105469 620.738281 532.503906 C 619.25 531.90625 617.777344 531.273438 616.316406 530.605469 C 614.859375 529.9375 613.414062 529.234375 611.988281 528.5 C 610.5625 527.761719 609.15625 526.992188 607.765625 526.1875 C 606.378906 525.386719 605.007812 524.550781 603.660156 523.679688 C 602.308594 522.8125 600.980469 521.914062 599.675781 520.980469 C 598.367188 520.050781 597.085938 519.085938 595.824219 518.09375 C 594.5625 517.101562 593.324219 516.082031 592.113281 515.03125 C 590.898438 513.980469 589.710938 512.898438 588.550781 511.792969 C 587.390625 510.683594 586.253906 509.550781 585.148438 508.390625 C 584.039062 507.226562 582.960938 506.039062 581.910156 504.828125 C 580.859375 503.617188 579.835938 502.378906 578.84375 501.117188 C 577.851562 499.855469 576.890625 498.574219 575.957031 497.265625 C 575.027344 495.960938 574.125 494.632812 573.257812 493.28125 C 572.386719 491.933594 571.550781 490.5625 570.75 489.175781 C 569.945312 487.785156 569.175781 486.378906 568.4375 484.953125 C 567.703125 483.527344 567 482.085938 566.332031 480.625 C 565.660156 479.167969 565.027344 477.691406 564.429688 476.203125 C 563.832031 474.714844 563.269531 473.210938 562.742188 471.695312 C 562.214844 470.179688 561.722656 468.652344 561.269531 467.113281 C 560.8125 465.574219 560.398438 464.027344 560.015625 462.46875 C 559.632812 460.910156 559.289062 459.339844 558.984375 457.765625 C 558.675781 456.191406 558.40625 454.609375 558.175781 453.023438 C 557.945312 451.433594 557.75 449.839844 557.59375 448.242188 C 557.4375 446.648438 557.320312 445.046875 557.238281 443.445312 L 582.9375 443.445312 C 583.421875 443.4375 583.902344 443.382812 584.378906 443.28125 C 584.851562 443.183594 585.3125 443.035156 585.761719 442.847656 C 586.207031 442.660156 586.632812 442.429688 587.035156 442.160156 C 587.4375 441.886719 587.8125 441.582031 588.15625 441.238281 C 588.5 440.894531 588.808594 440.523438 589.082031 440.121094 C 589.355469 439.71875 589.585938 439.296875 589.777344 438.847656 C 589.96875 438.402344 590.113281 437.941406 590.214844 437.46875 C 590.320312 436.992188 590.375 436.511719 590.382812 436.027344 C 590.386719 435.539062 590.339844 435.050781 590.246094 434.570312 C 590.152344 434.089844 590.011719 433.625 589.824219 433.171875 C 589.640625 432.71875 589.410156 432.289062 589.136719 431.882812 C 588.867188 431.472656 588.558594 431.097656 588.210938 430.75 C 587.867188 430.40625 587.488281 430.097656 587.082031 429.824219 C 586.675781 429.554688 586.246094 429.324219 585.792969 429.136719 C 585.339844 428.953125 584.871094 428.8125 584.390625 428.71875 C 583.910156 428.625 583.425781 428.578125 582.9375 428.578125 L 549.53125 428.578125 C 549.046875 428.585938 548.570312 428.636719 548.097656 428.734375 C 547.625 428.835938 547.167969 428.980469 546.722656 429.171875 C 546.28125 429.359375 545.859375 429.59375 545.460938 429.867188 C 545.066406 430.140625 544.699219 430.449219 544.363281 430.796875 C 544.027344 431.140625 543.726562 431.519531 543.464844 431.921875 C 543.203125 432.328125 542.984375 432.757812 542.804688 433.207031 C 542.628906 433.652344 542.5 434.117188 542.414062 434.589844 C 542.328125 435.066406 542.289062 435.542969 542.296875 436.027344 C 542.332031 436.394531 542.398438 436.753906 542.5 437.109375 C 542.402344 437.566406 542.335938 438.03125 542.296875 438.5 C 542.300781 440.398438 542.347656 442.296875 542.441406 444.195312 C 542.535156 446.09375 542.675781 447.988281 542.863281 449.878906 C 543.050781 451.769531 543.285156 453.65625 543.5625 455.535156 C 543.84375 457.414062 544.167969 459.285156 544.539062 461.148438 C 544.910156 463.011719 545.328125 464.867188 545.792969 466.710938 C 546.253906 468.554688 546.761719 470.382812 547.3125 472.203125 C 547.863281 474.019531 548.460938 475.824219 549.101562 477.613281 C 549.742188 479.402344 550.425781 481.175781 551.152344 482.929688 C 551.878906 484.683594 552.652344 486.421875 553.464844 488.140625 C 554.277344 489.855469 555.128906 491.554688 556.023438 493.230469 C 556.921875 494.90625 557.855469 496.558594 558.832031 498.1875 C 559.808594 499.820312 560.828125 501.421875 561.882812 503.003906 C 562.9375 504.585938 564.03125 506.136719 565.164062 507.664062 C 566.292969 509.191406 567.460938 510.6875 568.667969 512.15625 C 569.871094 513.628906 571.113281 515.066406 572.386719 516.472656 C 573.664062 517.882812 574.972656 519.257812 576.316406 520.601562 C 577.660156 521.949219 579.035156 523.257812 580.441406 524.535156 C 581.847656 525.8125 583.285156 527.054688 584.753906 528.261719 C 586.222656 529.464844 587.71875 530.636719 589.246094 531.769531 C 590.769531 532.902344 592.324219 533.996094 593.902344 535.054688 C 595.480469 536.109375 597.085938 537.128906 598.714844 538.105469 C 600.34375 539.085938 601.996094 540.023438 603.671875 540.917969 C 605.34375 541.816406 607.042969 542.671875 608.757812 543.488281 C 610.476562 544.300781 612.210938 545.070312 613.964844 545.800781 C 615.722656 546.53125 617.492188 547.214844 619.28125 547.859375 C 621.070312 548.5 622.871094 549.097656 624.691406 549.652344 C 626.507812 550.207031 628.339844 550.714844 630.179688 551.179688 C 632.023438 551.640625 633.875 552.0625 635.738281 552.433594 C 637.601562 552.808594 639.472656 553.132812 641.351562 553.414062 C 643.234375 553.699219 645.117188 553.933594 647.007812 554.121094 C 648.898438 554.308594 650.792969 554.453125 652.691406 554.550781 C 654.589844 554.644531 656.488281 554.695312 658.386719 554.699219 C 658.878906 554.707031 659.367188 554.667969 659.851562 554.582031 C 660.335938 554.492188 660.804688 554.355469 661.261719 554.171875 C 661.714844 553.988281 662.148438 553.761719 662.558594 553.488281 C 662.96875 553.214844 663.34375 552.90625 663.691406 552.554688 C 664.039062 552.207031 664.34375 551.828125 664.613281 551.414062 C 664.882812 551.003906 665.109375 550.566406 665.289062 550.109375 C 665.46875 549.652344 665.601562 549.183594 665.683594 548.699219 C 665.769531 548.214844 665.804688 547.726562 665.789062 547.234375 C 665.789062 546.746094 665.742188 546.257812 665.648438 545.777344 C 665.554688 545.296875 665.410156 544.832031 665.222656 544.378906 C 665.035156 543.925781 664.804688 543.496094 664.53125 543.089844 C 664.257812 542.683594 663.949219 542.308594 663.601562 541.964844 C 663.253906 541.617188 662.875 541.3125 662.464844 541.042969 C 662.054688 540.769531 661.625 540.542969 661.171875 540.359375 C 660.714844 540.175781 660.25 540.039062 659.769531 539.945312 C 659.285156 539.855469 658.800781 539.8125 658.3125 539.816406 Z M 658.3125 539.816406 " fill-opacity="1" fill-rule="nonzero"/></g><g clip-path="url(#dcb62c8ea1)"><path fill="#ff0000" d="M 1069.683594 1138.308594 L 986.566406 1138.308594 C 977.5 1138.308594 970.125 1130.933594 970.125 1121.867188 L 970.125 1009.515625 C 970.125 1000.449219 977.5 993.074219 986.566406 993.074219 L 1098.917969 993.074219 C 1107.984375 993.074219 1115.359375 1000.449219 1115.359375 1009.515625 L 1115.359375 1034.328125 C 1115.359375 1037.050781 1117.566406 1039.257812 1120.285156 1039.257812 C 1123.007812 1039.257812 1125.214844 1037.050781 1125.214844 1034.328125 L 1125.214844 1009.515625 C 1125.214844 995.015625 1113.417969 983.21875 1098.917969 983.21875 L 986.566406 983.21875 C 972.066406 983.21875 960.269531 995.015625 960.269531 1009.515625 L 960.269531 1121.867188 C 960.269531 1136.367188 972.066406 1148.164062 986.566406 1148.164062 L 1069.683594 1148.164062 C 1072.40625 1148.164062 1074.613281 1145.957031 1074.613281 1143.234375 C 1074.613281 1140.511719 1072.40625 1138.308594 1069.683594 1138.308594 Z M 1069.683594 1138.308594 " fill-opacity="1" fill-rule="nonzero"/></g><g clip-path="url(#9fe5bfa9a8)"><path fill="#ff0000" d="M 1048 974.8125 C 1050.722656 974.8125 1052.925781 972.605469 1052.925781 969.882812 L 1052.925781 951.027344 C 1052.925781 941.960938 1060.304688 934.585938 1069.367188 934.585938 L 1181.71875 934.585938 C 1190.785156 934.585938 1198.160156 941.960938 1198.160156 951.027344 L 1198.160156 1034.328125 C 1198.160156 1037.050781 1200.367188 1039.257812 1203.089844 1039.257812 C 1205.8125 1039.257812 1208.015625 1037.050781 1208.015625 1034.328125 L 1208.015625 951.027344 C 1208.015625 936.527344 1196.21875 924.730469 1181.71875 924.730469 L 1069.367188 924.730469 C 1054.867188 924.730469 1043.070312 936.527344 1043.070312 951.027344 L 1043.070312 969.882812 C 1043.070312 972.605469 1045.277344 974.8125 1048 974.8125 Z M 1048 974.8125 " fill-opacity="1" fill-rule="nonzero"/></g><g clip-path="url(#983f879d26)"><path fill="#ff0000" d="M 1221.804688 1047.617188 L 1109.457031 1047.617188 C 1094.953125 1047.617188 1083.15625 1059.414062 1083.15625 1073.917969 L 1083.15625 1107.253906 C 1069.015625 1101.375 1057.765625 1093.75 1049.078125 1086.28125 C 1054.890625 1080.121094 1059.292969 1074.078125 1062.578125 1068.742188 C 1070.378906 1056.070312 1073.382812 1045.21875 1074.398438 1040.574219 L 1090.113281 1040.574219 C 1092.835938 1040.574219 1095.042969 1038.367188 1095.042969 1035.644531 C 1095.042969 1032.925781 1092.835938 1030.71875 1090.113281 1030.71875 L 1047.441406 1030.71875 L 1047.441406 1017.339844 C 1047.441406 1014.617188 1045.238281 1012.410156 1042.515625 1012.410156 C 1039.792969 1012.410156 1037.585938 1014.617188 1037.585938 1017.339844 L 1037.585938 1030.71875 L 994.914062 1030.71875 C 992.191406 1030.71875 989.984375 1032.925781 989.984375 1035.644531 C 989.984375 1038.367188 992.191406 1040.574219 994.914062 1040.574219 L 1064.253906 1040.574219 C 1062.378906 1047.675781 1056.785156 1063.695312 1041.851562 1079.554688 C 1033.667969 1071.308594 1028.71875 1064.011719 1026.574219 1060.527344 C 1025.144531 1058.207031 1022.109375 1057.484375 1019.792969 1058.910156 C 1017.476562 1060.339844 1016.75 1063.375 1018.179688 1065.691406 C 1020.511719 1069.484375 1025.898438 1077.429688 1034.78125 1086.394531 C 1025.421875 1094.632812 1013.246094 1102.460938 997.417969 1108.550781 C 994.875 1109.527344 993.609375 1112.378906 994.585938 1114.917969 C 995.339844 1116.878906 997.207031 1118.082031 999.1875 1118.082031 C 999.773438 1118.082031 1000.375 1117.976562 1000.953125 1117.75 C 1018.535156 1110.988281 1031.894531 1102.183594 1041.996094 1093.164062 C 1052.164062 1102.03125 1065.640625 1111.128906 1082.851562 1117.75 C 1082.953125 1117.789062 1083.054688 1117.820312 1083.15625 1117.851562 L 1083.15625 1186.269531 C 1083.15625 1200.769531 1094.953125 1212.566406 1109.457031 1212.566406 L 1118.644531 1212.566406 L 1118.644531 1235.898438 C 1118.644531 1237.832031 1119.777344 1239.589844 1121.539062 1240.386719 C 1122.191406 1240.679688 1122.882812 1240.824219 1123.570312 1240.824219 C 1124.746094 1240.824219 1125.90625 1240.40625 1126.824219 1239.601562 L 1157.628906 1212.566406 L 1221.804688 1212.566406 C 1236.304688 1212.566406 1248.105469 1200.769531 1248.105469 1186.269531 L 1248.105469 1073.917969 C 1248.105469 1059.417969 1236.308594 1047.617188 1221.804688 1047.617188 Z M 1238.246094 1186.269531 C 1238.246094 1195.332031 1230.871094 1202.707031 1221.804688 1202.707031 L 1155.773438 1202.707031 C 1154.578125 1202.707031 1153.421875 1203.144531 1152.523438 1203.933594 L 1128.5 1225.011719 L 1128.5 1207.636719 C 1128.5 1204.914062 1126.292969 1202.707031 1123.570312 1202.707031 L 1109.457031 1202.707031 C 1100.390625 1202.707031 1093.015625 1195.332031 1093.015625 1186.269531 L 1093.015625 1073.917969 C 1093.015625 1064.851562 1100.390625 1057.476562 1109.457031 1057.476562 L 1221.804688 1057.476562 C 1230.871094 1057.476562 1238.246094 1064.851562 1238.246094 1073.917969 Z M 1238.246094 1186.269531 " fill-opacity="1" fill-rule="nonzero"/></g><path fill="#ff0000" d="M 1170.132812 1086.695312 C 1169.378906 1084.835938 1167.574219 1083.621094 1165.566406 1083.621094 C 1163.5625 1083.621094 1161.753906 1084.835938 1161 1086.695312 L 1138.273438 1142.632812 C 1138.269531 1142.644531 1138.265625 1142.65625 1138.261719 1142.667969 L 1127.296875 1169.652344 C 1126.273438 1172.175781 1127.488281 1175.050781 1130.007812 1176.074219 C 1130.617188 1176.320312 1131.246094 1176.4375 1131.863281 1176.4375 C 1133.808594 1176.4375 1135.652344 1175.277344 1136.429688 1173.363281 L 1146.128906 1149.492188 L 1185.003906 1149.492188 L 1194.703125 1173.363281 C 1195.726562 1175.882812 1198.597656 1177.097656 1201.121094 1176.074219 C 1203.644531 1175.050781 1204.859375 1172.175781 1203.832031 1169.652344 Z M 1150.132812 1139.636719 L 1165.566406 1101.644531 L 1181 1139.636719 Z M 1150.132812 1139.636719 " fill-opacity="1" fill-rule="nonzero"/><path fill="#ff0000" d="M 1161.6875 1032.503906 C 1164.410156 1032.503906 1166.617188 1030.296875 1166.617188 1027.574219 L 1166.617188 978.945312 C 1166.617188 967.53125 1157.328125 958.246094 1145.914062 958.246094 L 1088.085938 958.246094 C 1085.363281 958.246094 1083.15625 960.449219 1083.15625 963.171875 C 1083.15625 965.894531 1085.363281 968.101562 1088.085938 968.101562 L 1145.914062 968.101562 C 1151.894531 968.101562 1156.757812 972.964844 1156.757812 978.945312 L 1156.757812 1027.574219 C 1156.757812 1030.296875 1158.964844 1032.503906 1161.6875 1032.503906 Z M 1161.6875 1032.503906 " fill-opacity="1" fill-rule="nonzero"/></svg>